<svg xmlns="http://www.w3.org/2000/svg" xmlns:xlink="http://www.w3.org/1999/xlink" width="1030" height="415" viewBox="0 0 1030 415" style="font-family: 'Helvetica Neue', Arial, sans-serif;">
<rect width="1030" height="415" fill="#fafafa"/>

<text x="515" y="22" text-anchor="middle" font-size="14" font-weight="bold" fill="#2c3e50">Scene: n04_000001 | qwen--qwen3-vl-30b-a3b-thinking</text>
<text x="515" y="42" text-anchor="middle" font-size="10" fill="#7f8c8d">CSR_QRR=0.500  |  CSR_TRR=0.167  |  NRMS=0.4864  |  τ=0.067  |  K=4</text>
<line x1="20.0" y1="65.0" x2="20.0" y2="385.0" stroke="#ecf0f1" stroke-width="0.5"/>
<line x1="20.0" y1="65.0" x2="340.0" y2="65.0" stroke="#ecf0f1" stroke-width="0.5"/>
<line x1="84.0" y1="65.0" x2="84.0" y2="385.0" stroke="#ecf0f1" stroke-width="0.5"/>
<line x1="20.0" y1="129.0" x2="340.0" y2="129.0" stroke="#ecf0f1" stroke-width="0.5"/>
<line x1="148.0" y1="65.0" x2="148.0" y2="385.0" stroke="#ecf0f1" stroke-width="0.5"/>
<line x1="20.0" y1="193.0" x2="340.0" y2="193.0" stroke="#ecf0f1" stroke-width="0.5"/>
<line x1="212.0" y1="65.0" x2="212.0" y2="385.0" stroke="#ecf0f1" stroke-width="0.5"/>
<line x1="20.0" y1="257.0" x2="340.0" y2="257.0" stroke="#ecf0f1" stroke-width="0.5"/>
<line x1="276.0" y1="65.0" x2="276.0" y2="385.0" stroke="#ecf0f1" stroke-width="0.5"/>
<line x1="20.0" y1="321.0" x2="340.0" y2="321.0" stroke="#ecf0f1" stroke-width="0.5"/>
<line x1="340.0" y1="65.0" x2="340.0" y2="385.0" stroke="#ecf0f1" stroke-width="0.5"/>
<line x1="20.0" y1="385.0" x2="340.0" y2="385.0" stroke="#ecf0f1" stroke-width="0.5"/>
<rect x="20.0" y="65.0" width="320.0" height="320.0" fill="none" stroke="#ddd" stroke-width="1"/>
<text x="180" y="60" text-anchor="middle" font-size="12" font-weight="bold" fill="#2c3e50">Ground Truth</text>

<circle cx="177.1" cy="350.0" r="18" fill="#a0785a" stroke="#8b6545" stroke-width="2.0" opacity="0.85"/>
<text x="177.1" y="327.0" text-anchor="middle" font-size="10" fill="#333" opacity="1.0">obj_0</text>

<rect x="149.0" y="80.2" width="27.0" height="39.6" rx="13.5" ry="4.7" fill="#3498db" stroke="#2980b9" stroke-width="2.0" opacity="0.85"/>
<text x="162.5" y="77.0" text-anchor="middle" font-size="10" fill="#333" opacity="1.0">obj_1</text>
<defs><radialGradient id="grad_obj_2" cx="35%" cy="35%"><stop offset="0%" stop-color="white" stop-opacity="0.4"/><stop offset="100%" stop-color="#2ecc71" stop-opacity="0"/></radialGradient></defs>

<circle cx="62.7" cy="346.1" r="12" fill="#2ecc71" stroke="#27ae60" stroke-width="2.0" opacity="1.0"/>
<circle cx="62.7" cy="346.1" r="12" fill="url(#grad_obj_2)" opacity="1.0"/>
<text x="62.7" y="329.1" text-anchor="middle" font-size="10" fill="#333" opacity="1.0">obj_2</text>

<rect x="287.1" y="182.3" width="20.4" height="20.4" rx="3" ry="3" fill="#e74c3c" stroke="#c0392b" stroke-width="2.0" opacity="0.85"/>
<text x="297.3" y="175.5" text-anchor="middle" font-size="10" fill="#333" opacity="1.0">obj_3</text>
<line x1="355.0" y1="65.0" x2="355.0" y2="385.0" stroke="#ecf0f1" stroke-width="0.5"/>
<line x1="355.0" y1="65.0" x2="675.0" y2="65.0" stroke="#ecf0f1" stroke-width="0.5"/>
<line x1="419.0" y1="65.0" x2="419.0" y2="385.0" stroke="#ecf0f1" stroke-width="0.5"/>
<line x1="355.0" y1="129.0" x2="675.0" y2="129.0" stroke="#ecf0f1" stroke-width="0.5"/>
<line x1="483.0" y1="65.0" x2="483.0" y2="385.0" stroke="#ecf0f1" stroke-width="0.5"/>
<line x1="355.0" y1="193.0" x2="675.0" y2="193.0" stroke="#ecf0f1" stroke-width="0.5"/>
<line x1="547.0" y1="65.0" x2="547.0" y2="385.0" stroke="#ecf0f1" stroke-width="0.5"/>
<line x1="355.0" y1="257.0" x2="675.0" y2="257.0" stroke="#ecf0f1" stroke-width="0.5"/>
<line x1="611.0" y1="65.0" x2="611.0" y2="385.0" stroke="#ecf0f1" stroke-width="0.5"/>
<line x1="355.0" y1="321.0" x2="675.0" y2="321.0" stroke="#ecf0f1" stroke-width="0.5"/>
<line x1="675.0" y1="65.0" x2="675.0" y2="385.0" stroke="#ecf0f1" stroke-width="0.5"/>
<line x1="355.0" y1="385.0" x2="675.0" y2="385.0" stroke="#ecf0f1" stroke-width="0.5"/>
<rect x="355.0" y="65.0" width="320.0" height="320.0" fill="none" stroke="#ddd" stroke-width="1"/>
<text x="515" y="60" text-anchor="middle" font-size="12" font-weight="bold" fill="#2c3e50">Reconstructed</text>

<circle cx="392.8" cy="286.3" r="18" fill="#a0785a" stroke="#8b6545" stroke-width="2.0" opacity="0.85"/>
<text x="392.8" y="263.3" text-anchor="middle" font-size="10" fill="#333" opacity="1.0">obj_0</text>

<rect x="377.2" y="253.7" width="27.0" height="39.6" rx="13.5" ry="4.7" fill="#3498db" stroke="#2980b9" stroke-width="2.0" opacity="0.85"/>
<text x="390.7" y="250.5" text-anchor="middle" font-size="10" fill="#333" opacity="1.0">obj_1</text>
<defs><radialGradient id="grad_obj_2" cx="35%" cy="35%"><stop offset="0%" stop-color="white" stop-opacity="0.4"/><stop offset="100%" stop-color="#2ecc71" stop-opacity="0"/></radialGradient></defs>

<circle cx="390.0" cy="274.2" r="12" fill="#2ecc71" stroke="#27ae60" stroke-width="2.0" opacity="1.0"/>
<circle cx="390.0" cy="274.2" r="12" fill="url(#grad_obj_2)" opacity="1.0"/>
<text x="390.0" y="257.2" text-anchor="middle" font-size="10" fill="#333" opacity="1.0">obj_2</text>

<rect x="629.8" y="153.5" width="20.4" height="20.4" rx="3" ry="3" fill="#e74c3c" stroke="#c0392b" stroke-width="2.0" opacity="0.85"/>
<text x="640.0" y="146.7" text-anchor="middle" font-size="10" fill="#333" opacity="1.0">obj_3</text>
<line x1="690.0" y1="65.0" x2="690.0" y2="385.0" stroke="#ecf0f1" stroke-width="0.5"/>
<line x1="690.0" y1="65.0" x2="1010.0" y2="65.0" stroke="#ecf0f1" stroke-width="0.5"/>
<line x1="754.0" y1="65.0" x2="754.0" y2="385.0" stroke="#ecf0f1" stroke-width="0.5"/>
<line x1="690.0" y1="129.0" x2="1010.0" y2="129.0" stroke="#ecf0f1" stroke-width="0.5"/>
<line x1="818.0" y1="65.0" x2="818.0" y2="385.0" stroke="#ecf0f1" stroke-width="0.5"/>
<line x1="690.0" y1="193.0" x2="1010.0" y2="193.0" stroke="#ecf0f1" stroke-width="0.5"/>
<line x1="882.0" y1="65.0" x2="882.0" y2="385.0" stroke="#ecf0f1" stroke-width="0.5"/>
<line x1="690.0" y1="257.0" x2="1010.0" y2="257.0" stroke="#ecf0f1" stroke-width="0.5"/>
<line x1="946.0" y1="65.0" x2="946.0" y2="385.0" stroke="#ecf0f1" stroke-width="0.5"/>
<line x1="690.0" y1="321.0" x2="1010.0" y2="321.0" stroke="#ecf0f1" stroke-width="0.5"/>
<line x1="1010.0" y1="65.0" x2="1010.0" y2="385.0" stroke="#ecf0f1" stroke-width="0.5"/>
<line x1="690.0" y1="385.0" x2="1010.0" y2="385.0" stroke="#ecf0f1" stroke-width="0.5"/>
<rect x="690.0" y="65.0" width="320.0" height="320.0" fill="none" stroke="#ddd" stroke-width="1"/>
<text x="850" y="60" text-anchor="middle" font-size="12" font-weight="bold" fill="#2c3e50">Overlay (NRMS=0.486)</text>
<line x1="847.1" y1="350.0" x2="727.8" y2="286.3" stroke="#a0785a" stroke-width="1.8" opacity="0.7"/>
<polygon points="727.8,286.3 735.8,286.0 732.0,293.1" fill="#a0785a" opacity="0.7"/>
<line x1="832.5" y1="100.0" x2="725.7" y2="273.5" stroke="#3498db" stroke-width="1.8" opacity="0.7"/>
<polygon points="725.7,273.5 726.0,265.5 732.8,269.7" fill="#3498db" opacity="0.7"/>
<line x1="732.7" y1="346.1" x2="725.0" y2="274.2" stroke="#2ecc71" stroke-width="1.8" opacity="0.7"/>
<polygon points="725.0,274.2 729.7,280.6 721.8,281.5" fill="#2ecc71" opacity="0.7"/>
<line x1="967.3" y1="192.5" x2="975.0" y2="163.7" stroke="#e74c3c" stroke-width="1.8" opacity="0.7"/>
<polygon points="975.0,163.7 977.1,171.4 969.3,169.4" fill="#e74c3c" opacity="0.7"/>

<circle cx="847.1" cy="350.0" r="18" fill="#a0785a" stroke="#8b6545" stroke-width="2.0" opacity="0.85"/>
<text x="847.1" y="327.0" text-anchor="middle" font-size="10" fill="#333" opacity="1.0">obj_0</text>

<rect x="819.0" y="80.2" width="27.0" height="39.6" rx="13.5" ry="4.7" fill="#3498db" stroke="#2980b9" stroke-width="2.0" opacity="0.85"/>
<text x="832.5" y="77.0" text-anchor="middle" font-size="10" fill="#333" opacity="1.0">obj_1</text>
<defs><radialGradient id="grad_obj_2" cx="35%" cy="35%"><stop offset="0%" stop-color="white" stop-opacity="0.4"/><stop offset="100%" stop-color="#2ecc71" stop-opacity="0"/></radialGradient></defs>

<circle cx="732.7" cy="346.1" r="12" fill="#2ecc71" stroke="#27ae60" stroke-width="2.0" opacity="1.0"/>
<circle cx="732.7" cy="346.1" r="12" fill="url(#grad_obj_2)" opacity="1.0"/>
<text x="732.7" y="329.1" text-anchor="middle" font-size="10" fill="#333" opacity="1.0">obj_2</text>

<rect x="957.1" y="182.3" width="20.4" height="20.4" rx="3" ry="3" fill="#e74c3c" stroke="#c0392b" stroke-width="2.0" opacity="0.85"/>
<text x="967.3" y="175.5" text-anchor="middle" font-size="10" fill="#333" opacity="1.0">obj_3</text>

<circle cx="727.8" cy="286.3" r="18" fill="#a0785a" stroke="#8b6545" stroke-width="1.0" stroke-dasharray="4,3" opacity="0.2975"/>
<text x="727.8" y="263.3" text-anchor="middle" font-size="9" fill="#333" opacity="0.5974999999999999"></text>

<rect x="712.2" y="253.7" width="27.0" height="39.6" rx="13.5" ry="4.7" fill="#3498db" stroke="#2980b9" stroke-width="1.0" stroke-dasharray="4,3" opacity="0.2975"/>
<text x="725.7" y="250.5" text-anchor="middle" font-size="9" fill="#333" opacity="0.5974999999999999"></text>

<circle cx="725.0" cy="274.2" r="12" fill="#2ecc71" stroke="#27ae60" stroke-width="1.0" stroke-dasharray="4,3" opacity="0.35"/>
<text x="725.0" y="257.2" text-anchor="middle" font-size="9" fill="#333" opacity="0.6499999999999999"></text>

<rect x="964.8" y="153.5" width="20.4" height="20.4" rx="3" ry="3" fill="#e74c3c" stroke="#c0392b" stroke-width="1.0" stroke-dasharray="4,3" opacity="0.2975"/>
<text x="975.0" y="146.7" text-anchor="middle" font-size="9" fill="#333" opacity="0.5974999999999999"></text>
<circle cx="940" cy="75" r="5" fill="#95a5a6" stroke="#333" stroke-width="1"/><text x="950" y="79" font-size="9" fill="#555">GT</text><circle cx="940" cy="91" r="5" fill="#95a5a6" stroke="#333" stroke-width="1" stroke-dasharray="3,2" opacity="0.5"/><text x="950" y="95" font-size="9" fill="#555">Recon</text><line x1="934" y1="107" x2="946" y2="107" stroke="#e74c3c" stroke-width="1.5"/><text x="950" y="111" font-size="9" fill="#555">Distortion</text>
</svg>
