<svg xmlns="http://www.w3.org/2000/svg" xmlns:xlink="http://www.w3.org/1999/xlink" width="1030" height="415" viewBox="0 0 1030 415" style="font-family: 'Helvetica Neue', Arial, sans-serif;">
<rect width="1030" height="415" fill="#fafafa"/>

<text x="515" y="22" text-anchor="middle" font-size="14" font-weight="bold" fill="#2c3e50">Scene: n05_000009 | qwen--qwen3-vl-30b-a3b-thinking</text>
<text x="515" y="42" text-anchor="middle" font-size="10" fill="#7f8c8d">CSR_QRR=0.600  |  CSR_TRR=0.067  |  NRMS=0.3672  |  τ=0.156  |  K=2</text>
<line x1="20.0" y1="65.0" x2="20.0" y2="385.0" stroke="#ecf0f1" stroke-width="0.5"/>
<line x1="20.0" y1="65.0" x2="340.0" y2="65.0" stroke="#ecf0f1" stroke-width="0.5"/>
<line x1="84.0" y1="65.0" x2="84.0" y2="385.0" stroke="#ecf0f1" stroke-width="0.5"/>
<line x1="20.0" y1="129.0" x2="340.0" y2="129.0" stroke="#ecf0f1" stroke-width="0.5"/>
<line x1="148.0" y1="65.0" x2="148.0" y2="385.0" stroke="#ecf0f1" stroke-width="0.5"/>
<line x1="20.0" y1="193.0" x2="340.0" y2="193.0" stroke="#ecf0f1" stroke-width="0.5"/>
<line x1="212.0" y1="65.0" x2="212.0" y2="385.0" stroke="#ecf0f1" stroke-width="0.5"/>
<line x1="20.0" y1="257.0" x2="340.0" y2="257.0" stroke="#ecf0f1" stroke-width="0.5"/>
<line x1="276.0" y1="65.0" x2="276.0" y2="385.0" stroke="#ecf0f1" stroke-width="0.5"/>
<line x1="20.0" y1="321.0" x2="340.0" y2="321.0" stroke="#ecf0f1" stroke-width="0.5"/>
<line x1="340.0" y1="65.0" x2="340.0" y2="385.0" stroke="#ecf0f1" stroke-width="0.5"/>
<line x1="20.0" y1="385.0" x2="340.0" y2="385.0" stroke="#ecf0f1" stroke-width="0.5"/>
<rect x="20.0" y="65.0" width="320.0" height="320.0" fill="none" stroke="#ddd" stroke-width="1"/>
<text x="180" y="60" text-anchor="middle" font-size="12" font-weight="bold" fill="#2c3e50">Ground Truth</text>

<circle cx="58.4" cy="309.9" r="12" fill="#95a5a6" stroke="#7f8c8d" stroke-width="2.0" opacity="0.85"/>
<text x="58.4" y="292.9" text-anchor="middle" font-size="10" fill="#333" opacity="1.0">obj_0</text>

<rect x="269.9" y="131.1" width="18.0" height="26.4" rx="9.0" ry="3.1" fill="#1abc9c" stroke="#16a085" stroke-width="2.0" opacity="0.85"/>
<text x="278.9" y="127.3" text-anchor="middle" font-size="10" fill="#333" opacity="1.0">obj_1</text>
<defs><radialGradient id="grad_obj_2" cx="35%" cy="35%"><stop offset="0%" stop-color="white" stop-opacity="0.4"/><stop offset="100%" stop-color="#e74c3c" stop-opacity="0"/></radialGradient></defs>

<circle cx="158.7" cy="145.2" r="12" fill="#e74c3c" stroke="#c0392b" stroke-width="2.0" opacity="1.0"/>
<circle cx="158.7" cy="145.2" r="12" fill="url(#grad_obj_2)" opacity="1.0"/>
<text x="158.7" y="128.2" text-anchor="middle" font-size="10" fill="#333" opacity="1.0">obj_2</text>
<defs><radialGradient id="grad_obj_3" cx="35%" cy="35%"><stop offset="0%" stop-color="white" stop-opacity="0.4"/><stop offset="100%" stop-color="#a0785a" stop-opacity="0"/></radialGradient></defs>

<rect x="289.7" y="212.7" width="30.6" height="30.6" rx="3" ry="3" fill="#a0785a" stroke="#8b6545" stroke-width="2.0" opacity="1.0"/>
<text x="305.0" y="205.0" text-anchor="middle" font-size="10" fill="#333" opacity="1.0">obj_3</text>

<rect x="46.0" y="126.9" width="18.0" height="26.4" rx="9.0" ry="3.1" fill="#a0785a" stroke="#8b6545" stroke-width="2.0" opacity="0.85"/>
<text x="55.0" y="123.1" text-anchor="middle" font-size="10" fill="#333" opacity="1.0">obj_4</text>
<line x1="355.0" y1="65.0" x2="355.0" y2="385.0" stroke="#ecf0f1" stroke-width="0.5"/>
<line x1="355.0" y1="65.0" x2="675.0" y2="65.0" stroke="#ecf0f1" stroke-width="0.5"/>
<line x1="419.0" y1="65.0" x2="419.0" y2="385.0" stroke="#ecf0f1" stroke-width="0.5"/>
<line x1="355.0" y1="129.0" x2="675.0" y2="129.0" stroke="#ecf0f1" stroke-width="0.5"/>
<line x1="483.0" y1="65.0" x2="483.0" y2="385.0" stroke="#ecf0f1" stroke-width="0.5"/>
<line x1="355.0" y1="193.0" x2="675.0" y2="193.0" stroke="#ecf0f1" stroke-width="0.5"/>
<line x1="547.0" y1="65.0" x2="547.0" y2="385.0" stroke="#ecf0f1" stroke-width="0.5"/>
<line x1="355.0" y1="257.0" x2="675.0" y2="257.0" stroke="#ecf0f1" stroke-width="0.5"/>
<line x1="611.0" y1="65.0" x2="611.0" y2="385.0" stroke="#ecf0f1" stroke-width="0.5"/>
<line x1="355.0" y1="321.0" x2="675.0" y2="321.0" stroke="#ecf0f1" stroke-width="0.5"/>
<line x1="675.0" y1="65.0" x2="675.0" y2="385.0" stroke="#ecf0f1" stroke-width="0.5"/>
<line x1="355.0" y1="385.0" x2="675.0" y2="385.0" stroke="#ecf0f1" stroke-width="0.5"/>
<rect x="355.0" y="65.0" width="320.0" height="320.0" fill="none" stroke="#ddd" stroke-width="1"/>
<text x="515" y="60" text-anchor="middle" font-size="12" font-weight="bold" fill="#2c3e50">Reconstructed</text>

<circle cx="393.8" cy="220.0" r="12" fill="#95a5a6" stroke="#7f8c8d" stroke-width="2.0" opacity="0.85"/>
<text x="393.8" y="203.0" text-anchor="middle" font-size="10" fill="#333" opacity="1.0">obj_0</text>

<rect x="459.4" y="150.2" width="18.0" height="26.4" rx="9.0" ry="3.1" fill="#1abc9c" stroke="#16a085" stroke-width="2.0" opacity="0.85"/>
<text x="468.4" y="146.4" text-anchor="middle" font-size="10" fill="#333" opacity="1.0">obj_1</text>
<defs><radialGradient id="grad_obj_2" cx="35%" cy="35%"><stop offset="0%" stop-color="white" stop-opacity="0.4"/><stop offset="100%" stop-color="#e74c3c" stop-opacity="0"/></radialGradient></defs>

<circle cx="392.3" cy="218.9" r="12" fill="#e74c3c" stroke="#c0392b" stroke-width="2.0" opacity="1.0"/>
<circle cx="392.3" cy="218.9" r="12" fill="url(#grad_obj_2)" opacity="1.0"/>
<text x="392.3" y="201.9" text-anchor="middle" font-size="10" fill="#333" opacity="1.0">obj_2</text>
<defs><radialGradient id="grad_obj_3" cx="35%" cy="35%"><stop offset="0%" stop-color="white" stop-opacity="0.4"/><stop offset="100%" stop-color="#a0785a" stop-opacity="0"/></radialGradient></defs>

<rect x="624.7" y="271.3" width="30.6" height="30.6" rx="3" ry="3" fill="#a0785a" stroke="#8b6545" stroke-width="2.0" opacity="1.0"/>
<text x="640.0" y="263.6" text-anchor="middle" font-size="10" fill="#333" opacity="1.0">obj_3</text>

<rect x="381.0" y="187.1" width="18.0" height="26.4" rx="9.0" ry="3.1" fill="#a0785a" stroke="#8b6545" stroke-width="2.0" opacity="0.85"/>
<text x="390.0" y="183.3" text-anchor="middle" font-size="10" fill="#333" opacity="1.0">obj_4</text>
<line x1="690.0" y1="65.0" x2="690.0" y2="385.0" stroke="#ecf0f1" stroke-width="0.5"/>
<line x1="690.0" y1="65.0" x2="1010.0" y2="65.0" stroke="#ecf0f1" stroke-width="0.5"/>
<line x1="754.0" y1="65.0" x2="754.0" y2="385.0" stroke="#ecf0f1" stroke-width="0.5"/>
<line x1="690.0" y1="129.0" x2="1010.0" y2="129.0" stroke="#ecf0f1" stroke-width="0.5"/>
<line x1="818.0" y1="65.0" x2="818.0" y2="385.0" stroke="#ecf0f1" stroke-width="0.5"/>
<line x1="690.0" y1="193.0" x2="1010.0" y2="193.0" stroke="#ecf0f1" stroke-width="0.5"/>
<line x1="882.0" y1="65.0" x2="882.0" y2="385.0" stroke="#ecf0f1" stroke-width="0.5"/>
<line x1="690.0" y1="257.0" x2="1010.0" y2="257.0" stroke="#ecf0f1" stroke-width="0.5"/>
<line x1="946.0" y1="65.0" x2="946.0" y2="385.0" stroke="#ecf0f1" stroke-width="0.5"/>
<line x1="690.0" y1="321.0" x2="1010.0" y2="321.0" stroke="#ecf0f1" stroke-width="0.5"/>
<line x1="1010.0" y1="65.0" x2="1010.0" y2="385.0" stroke="#ecf0f1" stroke-width="0.5"/>
<line x1="690.0" y1="385.0" x2="1010.0" y2="385.0" stroke="#ecf0f1" stroke-width="0.5"/>
<rect x="690.0" y="65.0" width="320.0" height="320.0" fill="none" stroke="#ddd" stroke-width="1"/>
<text x="850" y="60" text-anchor="middle" font-size="12" font-weight="bold" fill="#2c3e50">Overlay (NRMS=0.367)</text>
<line x1="728.4" y1="309.9" x2="728.8" y2="220.0" stroke="#95a5a6" stroke-width="1.8" opacity="0.7"/>
<polygon points="728.8,220.0 732.8,227.0 724.8,227.0" fill="#95a5a6" opacity="0.7"/>
<line x1="948.9" y1="144.3" x2="803.4" y2="163.4" stroke="#1abc9c" stroke-width="1.8" opacity="0.7"/>
<polygon points="803.4,163.4 809.7,158.5 810.8,166.4" fill="#1abc9c" opacity="0.7"/>
<line x1="828.7" y1="145.2" x2="727.3" y2="218.9" stroke="#e74c3c" stroke-width="1.8" opacity="0.7"/>
<polygon points="727.3,218.9 730.5,211.6 735.2,218.0" fill="#e74c3c" opacity="0.7"/>
<line x1="975.0" y1="228.0" x2="975.0" y2="286.6" stroke="#a0785a" stroke-width="1.8" opacity="0.7"/>
<polygon points="975.0,286.6 971.0,279.7 979.0,279.7" fill="#a0785a" opacity="0.7"/>
<line x1="725.0" y1="140.1" x2="725.0" y2="200.3" stroke="#a0785a" stroke-width="1.8" opacity="0.7"/>
<polygon points="725.0,200.3 721.0,193.3 729.0,193.3" fill="#a0785a" opacity="0.7"/>

<circle cx="728.4" cy="309.9" r="12" fill="#95a5a6" stroke="#7f8c8d" stroke-width="2.0" opacity="0.85"/>
<text x="728.4" y="292.9" text-anchor="middle" font-size="10" fill="#333" opacity="1.0">obj_0</text>

<rect x="939.9" y="131.1" width="18.0" height="26.4" rx="9.0" ry="3.1" fill="#1abc9c" stroke="#16a085" stroke-width="2.0" opacity="0.85"/>
<text x="948.9" y="127.3" text-anchor="middle" font-size="10" fill="#333" opacity="1.0">obj_1</text>
<defs><radialGradient id="grad_obj_2" cx="35%" cy="35%"><stop offset="0%" stop-color="white" stop-opacity="0.4"/><stop offset="100%" stop-color="#e74c3c" stop-opacity="0"/></radialGradient></defs>

<circle cx="828.7" cy="145.2" r="12" fill="#e74c3c" stroke="#c0392b" stroke-width="2.0" opacity="1.0"/>
<circle cx="828.7" cy="145.2" r="12" fill="url(#grad_obj_2)" opacity="1.0"/>
<text x="828.7" y="128.2" text-anchor="middle" font-size="10" fill="#333" opacity="1.0">obj_2</text>
<defs><radialGradient id="grad_obj_3" cx="35%" cy="35%"><stop offset="0%" stop-color="white" stop-opacity="0.4"/><stop offset="100%" stop-color="#a0785a" stop-opacity="0"/></radialGradient></defs>

<rect x="959.7" y="212.7" width="30.6" height="30.6" rx="3" ry="3" fill="#a0785a" stroke="#8b6545" stroke-width="2.0" opacity="1.0"/>
<text x="975.0" y="205.0" text-anchor="middle" font-size="10" fill="#333" opacity="1.0">obj_3</text>

<rect x="716.0" y="126.9" width="18.0" height="26.4" rx="9.0" ry="3.1" fill="#a0785a" stroke="#8b6545" stroke-width="2.0" opacity="0.85"/>
<text x="725.0" y="123.1" text-anchor="middle" font-size="10" fill="#333" opacity="1.0">obj_4</text>

<circle cx="728.8" cy="220.0" r="12" fill="#95a5a6" stroke="#7f8c8d" stroke-width="1.0" stroke-dasharray="4,3" opacity="0.2975"/>
<text x="728.8" y="203.0" text-anchor="middle" font-size="9" fill="#333" opacity="0.5974999999999999"></text>

<rect x="794.4" y="150.2" width="18.0" height="26.4" rx="9.0" ry="3.1" fill="#1abc9c" stroke="#16a085" stroke-width="1.0" stroke-dasharray="4,3" opacity="0.2975"/>
<text x="803.4" y="146.4" text-anchor="middle" font-size="9" fill="#333" opacity="0.5974999999999999"></text>

<circle cx="727.3" cy="218.9" r="12" fill="#e74c3c" stroke="#c0392b" stroke-width="1.0" stroke-dasharray="4,3" opacity="0.35"/>
<text x="727.3" y="201.9" text-anchor="middle" font-size="9" fill="#333" opacity="0.6499999999999999"></text>

<rect x="959.7" y="271.3" width="30.6" height="30.6" rx="3" ry="3" fill="#a0785a" stroke="#8b6545" stroke-width="1.0" stroke-dasharray="4,3" opacity="0.35"/>
<text x="975.0" y="263.6" text-anchor="middle" font-size="9" fill="#333" opacity="0.6499999999999999"></text>

<rect x="716.0" y="187.1" width="18.0" height="26.4" rx="9.0" ry="3.1" fill="#a0785a" stroke="#8b6545" stroke-width="1.0" stroke-dasharray="4,3" opacity="0.2975"/>
<text x="725.0" y="183.3" text-anchor="middle" font-size="9" fill="#333" opacity="0.5974999999999999"></text>
<circle cx="940" cy="75" r="5" fill="#95a5a6" stroke="#333" stroke-width="1"/><text x="950" y="79" font-size="9" fill="#555">GT</text><circle cx="940" cy="91" r="5" fill="#95a5a6" stroke="#333" stroke-width="1" stroke-dasharray="3,2" opacity="0.5"/><text x="950" y="95" font-size="9" fill="#555">Recon</text><line x1="934" y1="107" x2="946" y2="107" stroke="#e74c3c" stroke-width="1.5"/><text x="950" y="111" font-size="9" fill="#555">Distortion</text>
</svg>
