<svg xmlns="http://www.w3.org/2000/svg" xmlns:xlink="http://www.w3.org/1999/xlink" width="1030" height="415" viewBox="0 0 1030 415" style="font-family: 'Helvetica Neue', Arial, sans-serif;">
<rect width="1030" height="415" fill="#fafafa"/>

<text x="515" y="22" text-anchor="middle" font-size="14" font-weight="bold" fill="#2c3e50">Scene: n05_000007 | qwen--qwen3-vl-30b-a3b-thinking</text>
<text x="515" y="42" text-anchor="middle" font-size="10" fill="#7f8c8d">CSR_QRR=1.000  |  CSR_TRR=0.967  |  NRMS=0.2484  |  τ=0.600  |  K=2</text>
<line x1="20.0" y1="65.0" x2="20.0" y2="385.0" stroke="#ecf0f1" stroke-width="0.5"/>
<line x1="20.0" y1="65.0" x2="340.0" y2="65.0" stroke="#ecf0f1" stroke-width="0.5"/>
<line x1="84.0" y1="65.0" x2="84.0" y2="385.0" stroke="#ecf0f1" stroke-width="0.5"/>
<line x1="20.0" y1="129.0" x2="340.0" y2="129.0" stroke="#ecf0f1" stroke-width="0.5"/>
<line x1="148.0" y1="65.0" x2="148.0" y2="385.0" stroke="#ecf0f1" stroke-width="0.5"/>
<line x1="20.0" y1="193.0" x2="340.0" y2="193.0" stroke="#ecf0f1" stroke-width="0.5"/>
<line x1="212.0" y1="65.0" x2="212.0" y2="385.0" stroke="#ecf0f1" stroke-width="0.5"/>
<line x1="20.0" y1="257.0" x2="340.0" y2="257.0" stroke="#ecf0f1" stroke-width="0.5"/>
<line x1="276.0" y1="65.0" x2="276.0" y2="385.0" stroke="#ecf0f1" stroke-width="0.5"/>
<line x1="20.0" y1="321.0" x2="340.0" y2="321.0" stroke="#ecf0f1" stroke-width="0.5"/>
<line x1="340.0" y1="65.0" x2="340.0" y2="385.0" stroke="#ecf0f1" stroke-width="0.5"/>
<line x1="20.0" y1="385.0" x2="340.0" y2="385.0" stroke="#ecf0f1" stroke-width="0.5"/>
<rect x="20.0" y="65.0" width="320.0" height="320.0" fill="none" stroke="#ddd" stroke-width="1"/>
<text x="180" y="60" text-anchor="middle" font-size="12" font-weight="bold" fill="#2c3e50">Ground Truth</text>

<circle cx="71.5" cy="129.7" r="18" fill="#a0785a" stroke="#8b6545" stroke-width="2.0" opacity="0.85"/>
<text x="71.5" y="106.7" text-anchor="middle" font-size="10" fill="#333" opacity="1.0">obj_0</text>

<rect x="166.7" y="166.7" width="20.4" height="20.4" rx="3" ry="3" fill="#9b59b6" stroke="#8e44ad" stroke-width="2.0" opacity="0.85"/>
<text x="176.9" y="159.9" text-anchor="middle" font-size="10" fill="#333" opacity="1.0">obj_1</text>

<rect x="180.0" y="307.1" width="18.0" height="26.4" rx="9.0" ry="3.1" fill="#3498db" stroke="#2980b9" stroke-width="2.0" opacity="0.85"/>
<text x="189.0" y="303.3" text-anchor="middle" font-size="10" fill="#333" opacity="1.0">obj_2</text>
<defs><radialGradient id="grad_obj_3" cx="35%" cy="35%"><stop offset="0%" stop-color="white" stop-opacity="0.4"/><stop offset="100%" stop-color="#95a5a6" stop-opacity="0"/></radialGradient></defs>

<rect x="289.7" y="247.0" width="30.6" height="30.6" rx="3" ry="3" fill="#95a5a6" stroke="#7f8c8d" stroke-width="2.0" opacity="1.0"/>
<text x="305.0" y="239.3" text-anchor="middle" font-size="10" fill="#333" opacity="1.0">obj_3</text>
<defs><radialGradient id="grad_obj_4" cx="35%" cy="35%"><stop offset="0%" stop-color="white" stop-opacity="0.4"/><stop offset="100%" stop-color="#e74c3c" stop-opacity="0"/></radialGradient></defs>

<circle cx="55.0" cy="267.4" r="18" fill="#e74c3c" stroke="#c0392b" stroke-width="2.0" opacity="1.0"/>
<circle cx="55.0" cy="267.4" r="18" fill="url(#grad_obj_4)" opacity="1.0"/>
<text x="55.0" y="244.4" text-anchor="middle" font-size="10" fill="#333" opacity="1.0">obj_4</text>
<line x1="355.0" y1="65.0" x2="355.0" y2="385.0" stroke="#ecf0f1" stroke-width="0.5"/>
<line x1="355.0" y1="65.0" x2="675.0" y2="65.0" stroke="#ecf0f1" stroke-width="0.5"/>
<line x1="419.0" y1="65.0" x2="419.0" y2="385.0" stroke="#ecf0f1" stroke-width="0.5"/>
<line x1="355.0" y1="129.0" x2="675.0" y2="129.0" stroke="#ecf0f1" stroke-width="0.5"/>
<line x1="483.0" y1="65.0" x2="483.0" y2="385.0" stroke="#ecf0f1" stroke-width="0.5"/>
<line x1="355.0" y1="193.0" x2="675.0" y2="193.0" stroke="#ecf0f1" stroke-width="0.5"/>
<line x1="547.0" y1="65.0" x2="547.0" y2="385.0" stroke="#ecf0f1" stroke-width="0.5"/>
<line x1="355.0" y1="257.0" x2="675.0" y2="257.0" stroke="#ecf0f1" stroke-width="0.5"/>
<line x1="611.0" y1="65.0" x2="611.0" y2="385.0" stroke="#ecf0f1" stroke-width="0.5"/>
<line x1="355.0" y1="321.0" x2="675.0" y2="321.0" stroke="#ecf0f1" stroke-width="0.5"/>
<line x1="675.0" y1="65.0" x2="675.0" y2="385.0" stroke="#ecf0f1" stroke-width="0.5"/>
<line x1="355.0" y1="385.0" x2="675.0" y2="385.0" stroke="#ecf0f1" stroke-width="0.5"/>
<rect x="355.0" y="65.0" width="320.0" height="320.0" fill="none" stroke="#ddd" stroke-width="1"/>
<text x="515" y="60" text-anchor="middle" font-size="12" font-weight="bold" fill="#2c3e50">Reconstructed</text>

<circle cx="390.0" cy="159.0" r="18" fill="#a0785a" stroke="#8b6545" stroke-width="2.0" opacity="0.85"/>
<text x="390.0" y="136.0" text-anchor="middle" font-size="10" fill="#333" opacity="1.0">obj_0</text>

<rect x="501.2" y="220.7" width="20.4" height="20.4" rx="3" ry="3" fill="#9b59b6" stroke="#8e44ad" stroke-width="2.0" opacity="0.85"/>
<text x="511.4" y="213.9" text-anchor="middle" font-size="10" fill="#333" opacity="1.0">obj_1</text>

<rect x="567.4" y="247.3" width="18.0" height="26.4" rx="9.0" ry="3.1" fill="#3498db" stroke="#2980b9" stroke-width="2.0" opacity="0.85"/>
<text x="576.4" y="243.5" text-anchor="middle" font-size="10" fill="#333" opacity="1.0">obj_2</text>
<defs><radialGradient id="grad_obj_3" cx="35%" cy="35%"><stop offset="0%" stop-color="white" stop-opacity="0.4"/><stop offset="100%" stop-color="#95a5a6" stop-opacity="0"/></radialGradient></defs>

<rect x="624.7" y="275.7" width="30.6" height="30.6" rx="3" ry="3" fill="#95a5a6" stroke="#7f8c8d" stroke-width="2.0" opacity="1.0"/>
<text x="640.0" y="268.0" text-anchor="middle" font-size="10" fill="#333" opacity="1.0">obj_3</text>
<defs><radialGradient id="grad_obj_4" cx="35%" cy="35%"><stop offset="0%" stop-color="white" stop-opacity="0.4"/><stop offset="100%" stop-color="#e74c3c" stop-opacity="0"/></radialGradient></defs>

<circle cx="452.9" cy="192.1" r="18" fill="#e74c3c" stroke="#c0392b" stroke-width="2.0" opacity="1.0"/>
<circle cx="452.9" cy="192.1" r="18" fill="url(#grad_obj_4)" opacity="1.0"/>
<text x="452.9" y="169.1" text-anchor="middle" font-size="10" fill="#333" opacity="1.0">obj_4</text>
<line x1="690.0" y1="65.0" x2="690.0" y2="385.0" stroke="#ecf0f1" stroke-width="0.5"/>
<line x1="690.0" y1="65.0" x2="1010.0" y2="65.0" stroke="#ecf0f1" stroke-width="0.5"/>
<line x1="754.0" y1="65.0" x2="754.0" y2="385.0" stroke="#ecf0f1" stroke-width="0.5"/>
<line x1="690.0" y1="129.0" x2="1010.0" y2="129.0" stroke="#ecf0f1" stroke-width="0.5"/>
<line x1="818.0" y1="65.0" x2="818.0" y2="385.0" stroke="#ecf0f1" stroke-width="0.5"/>
<line x1="690.0" y1="193.0" x2="1010.0" y2="193.0" stroke="#ecf0f1" stroke-width="0.5"/>
<line x1="882.0" y1="65.0" x2="882.0" y2="385.0" stroke="#ecf0f1" stroke-width="0.5"/>
<line x1="690.0" y1="257.0" x2="1010.0" y2="257.0" stroke="#ecf0f1" stroke-width="0.5"/>
<line x1="946.0" y1="65.0" x2="946.0" y2="385.0" stroke="#ecf0f1" stroke-width="0.5"/>
<line x1="690.0" y1="321.0" x2="1010.0" y2="321.0" stroke="#ecf0f1" stroke-width="0.5"/>
<line x1="1010.0" y1="65.0" x2="1010.0" y2="385.0" stroke="#ecf0f1" stroke-width="0.5"/>
<line x1="690.0" y1="385.0" x2="1010.0" y2="385.0" stroke="#ecf0f1" stroke-width="0.5"/>
<rect x="690.0" y="65.0" width="320.0" height="320.0" fill="none" stroke="#ddd" stroke-width="1"/>
<text x="850" y="60" text-anchor="middle" font-size="12" font-weight="bold" fill="#2c3e50">Overlay (NRMS=0.255)</text>
<line x1="741.5" y1="129.7" x2="725.0" y2="159.0" stroke="#a0785a" stroke-width="1.8" opacity="0.7"/>
<polygon points="725.0,159.0 724.9,151.0 731.9,155.0" fill="#a0785a" opacity="0.7"/>
<line x1="846.9" y1="176.9" x2="846.4" y2="230.9" stroke="#9b59b6" stroke-width="1.8" opacity="0.7"/>
<polygon points="846.4,230.9 842.4,223.9 850.4,224.0" fill="#9b59b6" opacity="0.7"/>
<line x1="859.0" y1="320.3" x2="911.4" y2="260.5" stroke="#3498db" stroke-width="1.8" opacity="0.7"/>
<polygon points="911.4,260.5 909.8,268.3 903.8,263.0" fill="#3498db" opacity="0.7"/>
<line x1="975.0" y1="262.3" x2="975.0" y2="291.0" stroke="#95a5a6" stroke-width="1.8" opacity="0.7"/>
<polygon points="975.0,291.0 971.0,284.0 979.0,284.0" fill="#95a5a6" opacity="0.7"/>
<line x1="725.0" y1="267.4" x2="787.9" y2="192.1" stroke="#e74c3c" stroke-width="1.8" opacity="0.7"/>
<polygon points="787.9,192.1 786.5,199.9 780.4,194.8" fill="#e74c3c" opacity="0.7"/>

<circle cx="741.5" cy="129.7" r="18" fill="#a0785a" stroke="#8b6545" stroke-width="2.0" opacity="0.85"/>
<text x="741.5" y="106.7" text-anchor="middle" font-size="10" fill="#333" opacity="1.0">obj_0</text>

<rect x="836.7" y="166.7" width="20.4" height="20.4" rx="3" ry="3" fill="#9b59b6" stroke="#8e44ad" stroke-width="2.0" opacity="0.85"/>
<text x="846.9" y="159.9" text-anchor="middle" font-size="10" fill="#333" opacity="1.0">obj_1</text>

<rect x="850.0" y="307.1" width="18.0" height="26.4" rx="9.0" ry="3.1" fill="#3498db" stroke="#2980b9" stroke-width="2.0" opacity="0.85"/>
<text x="859.0" y="303.3" text-anchor="middle" font-size="10" fill="#333" opacity="1.0">obj_2</text>
<defs><radialGradient id="grad_obj_3" cx="35%" cy="35%"><stop offset="0%" stop-color="white" stop-opacity="0.4"/><stop offset="100%" stop-color="#95a5a6" stop-opacity="0"/></radialGradient></defs>

<rect x="959.7" y="247.0" width="30.6" height="30.6" rx="3" ry="3" fill="#95a5a6" stroke="#7f8c8d" stroke-width="2.0" opacity="1.0"/>
<text x="975.0" y="239.3" text-anchor="middle" font-size="10" fill="#333" opacity="1.0">obj_3</text>
<defs><radialGradient id="grad_obj_4" cx="35%" cy="35%"><stop offset="0%" stop-color="white" stop-opacity="0.4"/><stop offset="100%" stop-color="#e74c3c" stop-opacity="0"/></radialGradient></defs>

<circle cx="725.0" cy="267.4" r="18" fill="#e74c3c" stroke="#c0392b" stroke-width="2.0" opacity="1.0"/>
<circle cx="725.0" cy="267.4" r="18" fill="url(#grad_obj_4)" opacity="1.0"/>
<text x="725.0" y="244.4" text-anchor="middle" font-size="10" fill="#333" opacity="1.0">obj_4</text>

<circle cx="725.0" cy="159.0" r="18" fill="#a0785a" stroke="#8b6545" stroke-width="1.0" stroke-dasharray="4,3" opacity="0.2975"/>
<text x="725.0" y="136.0" text-anchor="middle" font-size="9" fill="#333" opacity="0.5974999999999999"></text>

<rect x="836.2" y="220.7" width="20.4" height="20.4" rx="3" ry="3" fill="#9b59b6" stroke="#8e44ad" stroke-width="1.0" stroke-dasharray="4,3" opacity="0.2975"/>
<text x="846.4" y="213.9" text-anchor="middle" font-size="9" fill="#333" opacity="0.5974999999999999"></text>

<rect x="902.4" y="247.3" width="18.0" height="26.4" rx="9.0" ry="3.1" fill="#3498db" stroke="#2980b9" stroke-width="1.0" stroke-dasharray="4,3" opacity="0.2975"/>
<text x="911.4" y="243.5" text-anchor="middle" font-size="9" fill="#333" opacity="0.5974999999999999"></text>

<rect x="959.7" y="275.7" width="30.6" height="30.6" rx="3" ry="3" fill="#95a5a6" stroke="#7f8c8d" stroke-width="1.0" stroke-dasharray="4,3" opacity="0.35"/>
<text x="975.0" y="268.0" text-anchor="middle" font-size="9" fill="#333" opacity="0.6499999999999999"></text>

<circle cx="787.9" cy="192.1" r="18" fill="#e74c3c" stroke="#c0392b" stroke-width="1.0" stroke-dasharray="4,3" opacity="0.35"/>
<text x="787.9" y="169.1" text-anchor="middle" font-size="9" fill="#333" opacity="0.6499999999999999"></text>
<circle cx="940" cy="75" r="5" fill="#95a5a6" stroke="#333" stroke-width="1"/><text x="950" y="79" font-size="9" fill="#555">GT</text><circle cx="940" cy="91" r="5" fill="#95a5a6" stroke="#333" stroke-width="1" stroke-dasharray="3,2" opacity="0.5"/><text x="950" y="95" font-size="9" fill="#555">Recon</text><line x1="934" y1="107" x2="946" y2="107" stroke="#e74c3c" stroke-width="1.5"/><text x="950" y="111" font-size="9" fill="#555">Distortion</text>
</svg>
