<svg xmlns="http://www.w3.org/2000/svg" xmlns:xlink="http://www.w3.org/1999/xlink" width="1030" height="415" viewBox="0 0 1030 415" style="font-family: 'Helvetica Neue', Arial, sans-serif;">
<rect width="1030" height="415" fill="#fafafa"/>

<text x="515" y="22" text-anchor="middle" font-size="14" font-weight="bold" fill="#2c3e50">Scene: n06_000005 | qwen--qwen3-vl-30b-a3b-thinking</text>
<text x="515" y="42" text-anchor="middle" font-size="10" fill="#7f8c8d">CSR_QRR=0.500  |  CSR_TRR=0.217  |  NRMS=0.4612  |  τ=-0.105  |  K=8</text>
<line x1="20.0" y1="65.0" x2="20.0" y2="385.0" stroke="#ecf0f1" stroke-width="0.5"/>
<line x1="20.0" y1="65.0" x2="340.0" y2="65.0" stroke="#ecf0f1" stroke-width="0.5"/>
<line x1="84.0" y1="65.0" x2="84.0" y2="385.0" stroke="#ecf0f1" stroke-width="0.5"/>
<line x1="20.0" y1="129.0" x2="340.0" y2="129.0" stroke="#ecf0f1" stroke-width="0.5"/>
<line x1="148.0" y1="65.0" x2="148.0" y2="385.0" stroke="#ecf0f1" stroke-width="0.5"/>
<line x1="20.0" y1="193.0" x2="340.0" y2="193.0" stroke="#ecf0f1" stroke-width="0.5"/>
<line x1="212.0" y1="65.0" x2="212.0" y2="385.0" stroke="#ecf0f1" stroke-width="0.5"/>
<line x1="20.0" y1="257.0" x2="340.0" y2="257.0" stroke="#ecf0f1" stroke-width="0.5"/>
<line x1="276.0" y1="65.0" x2="276.0" y2="385.0" stroke="#ecf0f1" stroke-width="0.5"/>
<line x1="20.0" y1="321.0" x2="340.0" y2="321.0" stroke="#ecf0f1" stroke-width="0.5"/>
<line x1="340.0" y1="65.0" x2="340.0" y2="385.0" stroke="#ecf0f1" stroke-width="0.5"/>
<line x1="20.0" y1="385.0" x2="340.0" y2="385.0" stroke="#ecf0f1" stroke-width="0.5"/>
<rect x="20.0" y="65.0" width="320.0" height="320.0" fill="none" stroke="#ddd" stroke-width="1"/>
<text x="180" y="60" text-anchor="middle" font-size="12" font-weight="bold" fill="#2c3e50">Ground Truth</text>
<defs><radialGradient id="grad_obj_0" cx="35%" cy="35%"><stop offset="0%" stop-color="white" stop-opacity="0.4"/><stop offset="100%" stop-color="#2ecc71" stop-opacity="0"/></radialGradient></defs>

<rect x="39.7" y="174.0" width="30.6" height="30.6" rx="3" ry="3" fill="#2ecc71" stroke="#27ae60" stroke-width="2.0" opacity="1.0"/>
<text x="55.0" y="166.3" text-anchor="middle" font-size="10" fill="#333" opacity="1.0">obj_0</text>
<defs><radialGradient id="grad_obj_1" cx="35%" cy="35%"><stop offset="0%" stop-color="white" stop-opacity="0.4"/><stop offset="100%" stop-color="#f1c40f" stop-opacity="0"/></radialGradient></defs>

<rect x="108.9" y="318.4" width="30.6" height="30.6" rx="3" ry="3" fill="#f1c40f" stroke="#d4ac0f" stroke-width="2.0" opacity="1.0"/>
<text x="124.2" y="310.7" text-anchor="middle" font-size="10" fill="#333" opacity="1.0">obj_1</text>
<defs><radialGradient id="grad_obj_2" cx="35%" cy="35%"><stop offset="0%" stop-color="white" stop-opacity="0.4"/><stop offset="100%" stop-color="#e74c3c" stop-opacity="0"/></radialGradient></defs>

<circle cx="161.2" cy="235.4" r="12" fill="#e74c3c" stroke="#c0392b" stroke-width="2.0" opacity="1.0"/>
<circle cx="161.2" cy="235.4" r="12" fill="url(#grad_obj_2)" opacity="1.0"/>
<text x="161.2" y="218.4" text-anchor="middle" font-size="10" fill="#333" opacity="1.0">obj_2</text>

<circle cx="305.0" cy="261.8" r="18" fill="#e74c3c" stroke="#c0392b" stroke-width="2.0" opacity="0.85"/>
<text x="305.0" y="238.8" text-anchor="middle" font-size="10" fill="#333" opacity="1.0">obj_3</text>
<defs><radialGradient id="grad_obj_4" cx="35%" cy="35%"><stop offset="0%" stop-color="white" stop-opacity="0.4"/><stop offset="100%" stop-color="#9b59b6" stop-opacity="0"/></radialGradient></defs>

<circle cx="135.7" cy="163.0" r="12" fill="#9b59b6" stroke="#8e44ad" stroke-width="2.0" opacity="1.0"/>
<circle cx="135.7" cy="163.0" r="12" fill="url(#grad_obj_4)" opacity="1.0"/>
<text x="135.7" y="146.0" text-anchor="middle" font-size="10" fill="#333" opacity="1.0">obj_4</text>
<defs><radialGradient id="grad_obj_5" cx="35%" cy="35%"><stop offset="0%" stop-color="white" stop-opacity="0.4"/><stop offset="100%" stop-color="#a0785a" stop-opacity="0"/></radialGradient></defs>

<rect x="202.6" y="101.0" width="30.6" height="30.6" rx="3" ry="3" fill="#a0785a" stroke="#8b6545" stroke-width="2.0" opacity="1.0"/>
<text x="217.9" y="93.3" text-anchor="middle" font-size="10" fill="#333" opacity="1.0">obj_5</text>
<line x1="355.0" y1="65.0" x2="355.0" y2="385.0" stroke="#ecf0f1" stroke-width="0.5"/>
<line x1="355.0" y1="65.0" x2="675.0" y2="65.0" stroke="#ecf0f1" stroke-width="0.5"/>
<line x1="419.0" y1="65.0" x2="419.0" y2="385.0" stroke="#ecf0f1" stroke-width="0.5"/>
<line x1="355.0" y1="129.0" x2="675.0" y2="129.0" stroke="#ecf0f1" stroke-width="0.5"/>
<line x1="483.0" y1="65.0" x2="483.0" y2="385.0" stroke="#ecf0f1" stroke-width="0.5"/>
<line x1="355.0" y1="193.0" x2="675.0" y2="193.0" stroke="#ecf0f1" stroke-width="0.5"/>
<line x1="547.0" y1="65.0" x2="547.0" y2="385.0" stroke="#ecf0f1" stroke-width="0.5"/>
<line x1="355.0" y1="257.0" x2="675.0" y2="257.0" stroke="#ecf0f1" stroke-width="0.5"/>
<line x1="611.0" y1="65.0" x2="611.0" y2="385.0" stroke="#ecf0f1" stroke-width="0.5"/>
<line x1="355.0" y1="321.0" x2="675.0" y2="321.0" stroke="#ecf0f1" stroke-width="0.5"/>
<line x1="675.0" y1="65.0" x2="675.0" y2="385.0" stroke="#ecf0f1" stroke-width="0.5"/>
<line x1="355.0" y1="385.0" x2="675.0" y2="385.0" stroke="#ecf0f1" stroke-width="0.5"/>
<rect x="355.0" y="65.0" width="320.0" height="320.0" fill="none" stroke="#ddd" stroke-width="1"/>
<text x="515" y="60" text-anchor="middle" font-size="12" font-weight="bold" fill="#2c3e50">Reconstructed</text>
<defs><radialGradient id="grad_obj_0" cx="35%" cy="35%"><stop offset="0%" stop-color="white" stop-opacity="0.4"/><stop offset="100%" stop-color="#2ecc71" stop-opacity="0"/></radialGradient></defs>

<rect x="374.7" y="92.1" width="30.6" height="30.6" rx="3" ry="3" fill="#2ecc71" stroke="#27ae60" stroke-width="2.0" opacity="1.0"/>
<text x="390.0" y="84.4" text-anchor="middle" font-size="10" fill="#333" opacity="1.0">obj_0</text>
<defs><radialGradient id="grad_obj_1" cx="35%" cy="35%"><stop offset="0%" stop-color="white" stop-opacity="0.4"/><stop offset="100%" stop-color="#f1c40f" stop-opacity="0"/></radialGradient></defs>

<rect x="624.7" y="328.6" width="30.6" height="30.6" rx="3" ry="3" fill="#f1c40f" stroke="#d4ac0f" stroke-width="2.0" opacity="1.0"/>
<text x="640.0" y="320.9" text-anchor="middle" font-size="10" fill="#333" opacity="1.0">obj_1</text>
<defs><radialGradient id="grad_obj_2" cx="35%" cy="35%"><stop offset="0%" stop-color="white" stop-opacity="0.4"/><stop offset="100%" stop-color="#e74c3c" stop-opacity="0"/></radialGradient></defs>

<circle cx="395.0" cy="106.1" r="12" fill="#e74c3c" stroke="#c0392b" stroke-width="2.0" opacity="1.0"/>
<circle cx="395.0" cy="106.1" r="12" fill="url(#grad_obj_2)" opacity="1.0"/>
<text x="395.0" y="89.1" text-anchor="middle" font-size="10" fill="#333" opacity="1.0">obj_2</text>

<circle cx="605.2" cy="217.5" r="18" fill="#e74c3c" stroke="#c0392b" stroke-width="2.0" opacity="0.85"/>
<text x="605.2" y="194.5" text-anchor="middle" font-size="10" fill="#333" opacity="1.0">obj_3</text>
<defs><radialGradient id="grad_obj_4" cx="35%" cy="35%"><stop offset="0%" stop-color="white" stop-opacity="0.4"/><stop offset="100%" stop-color="#9b59b6" stop-opacity="0"/></radialGradient></defs>

<circle cx="621.0" cy="283.1" r="12" fill="#9b59b6" stroke="#8e44ad" stroke-width="2.0" opacity="1.0"/>
<circle cx="621.0" cy="283.1" r="12" fill="url(#grad_obj_4)" opacity="1.0"/>
<text x="621.0" y="266.1" text-anchor="middle" font-size="10" fill="#333" opacity="1.0">obj_4</text>
<defs><radialGradient id="grad_obj_5" cx="35%" cy="35%"><stop offset="0%" stop-color="white" stop-opacity="0.4"/><stop offset="100%" stop-color="#a0785a" stop-opacity="0"/></radialGradient></defs>

<rect x="585.7" y="203.5" width="30.6" height="30.6" rx="3" ry="3" fill="#a0785a" stroke="#8b6545" stroke-width="2.0" opacity="1.0"/>
<text x="601.0" y="195.8" text-anchor="middle" font-size="10" fill="#333" opacity="1.0">obj_5</text>
<line x1="690.0" y1="65.0" x2="690.0" y2="385.0" stroke="#ecf0f1" stroke-width="0.5"/>
<line x1="690.0" y1="65.0" x2="1010.0" y2="65.0" stroke="#ecf0f1" stroke-width="0.5"/>
<line x1="754.0" y1="65.0" x2="754.0" y2="385.0" stroke="#ecf0f1" stroke-width="0.5"/>
<line x1="690.0" y1="129.0" x2="1010.0" y2="129.0" stroke="#ecf0f1" stroke-width="0.5"/>
<line x1="818.0" y1="65.0" x2="818.0" y2="385.0" stroke="#ecf0f1" stroke-width="0.5"/>
<line x1="690.0" y1="193.0" x2="1010.0" y2="193.0" stroke="#ecf0f1" stroke-width="0.5"/>
<line x1="882.0" y1="65.0" x2="882.0" y2="385.0" stroke="#ecf0f1" stroke-width="0.5"/>
<line x1="690.0" y1="257.0" x2="1010.0" y2="257.0" stroke="#ecf0f1" stroke-width="0.5"/>
<line x1="946.0" y1="65.0" x2="946.0" y2="385.0" stroke="#ecf0f1" stroke-width="0.5"/>
<line x1="690.0" y1="321.0" x2="1010.0" y2="321.0" stroke="#ecf0f1" stroke-width="0.5"/>
<line x1="1010.0" y1="65.0" x2="1010.0" y2="385.0" stroke="#ecf0f1" stroke-width="0.5"/>
<line x1="690.0" y1="385.0" x2="1010.0" y2="385.0" stroke="#ecf0f1" stroke-width="0.5"/>
<rect x="690.0" y="65.0" width="320.0" height="320.0" fill="none" stroke="#ddd" stroke-width="1"/>
<text x="850" y="60" text-anchor="middle" font-size="12" font-weight="bold" fill="#2c3e50">Overlay (NRMS=0.461)</text>
<line x1="725.0" y1="189.3" x2="725.0" y2="107.4" stroke="#2ecc71" stroke-width="1.8" opacity="0.7"/>
<polygon points="725.0,107.4 729.0,114.3 721.0,114.3" fill="#2ecc71" opacity="0.7"/>
<line x1="794.2" y1="333.7" x2="975.0" y2="343.9" stroke="#f1c40f" stroke-width="1.8" opacity="0.7"/>
<polygon points="975.0,343.9 967.9,347.5 968.3,339.5" fill="#f1c40f" opacity="0.7"/>
<line x1="831.2" y1="235.4" x2="730.0" y2="106.1" stroke="#e74c3c" stroke-width="1.8" opacity="0.7"/>
<polygon points="730.0,106.1 737.4,109.1 731.1,114.0" fill="#e74c3c" opacity="0.7"/>
<line x1="975.0" y1="261.8" x2="940.2" y2="217.5" stroke="#e74c3c" stroke-width="1.8" opacity="0.7"/>
<polygon points="940.2,217.5 947.6,220.5 941.3,225.4" fill="#e74c3c" opacity="0.7"/>
<line x1="805.7" y1="163.0" x2="956.0" y2="283.1" stroke="#9b59b6" stroke-width="1.8" opacity="0.7"/>
<polygon points="956.0,283.1 948.1,281.9 953.1,275.6" fill="#9b59b6" opacity="0.7"/>
<line x1="887.9" y1="116.3" x2="936.0" y2="218.8" stroke="#a0785a" stroke-width="1.8" opacity="0.7"/>
<polygon points="936.0,218.8 929.5,214.2 936.7,210.8" fill="#a0785a" opacity="0.7"/>
<defs><radialGradient id="grad_obj_0" cx="35%" cy="35%"><stop offset="0%" stop-color="white" stop-opacity="0.4"/><stop offset="100%" stop-color="#2ecc71" stop-opacity="0"/></radialGradient></defs>

<rect x="709.7" y="174.0" width="30.6" height="30.6" rx="3" ry="3" fill="#2ecc71" stroke="#27ae60" stroke-width="2.0" opacity="1.0"/>
<text x="725.0" y="166.3" text-anchor="middle" font-size="10" fill="#333" opacity="1.0">obj_0</text>
<defs><radialGradient id="grad_obj_1" cx="35%" cy="35%"><stop offset="0%" stop-color="white" stop-opacity="0.4"/><stop offset="100%" stop-color="#f1c40f" stop-opacity="0"/></radialGradient></defs>

<rect x="778.9" y="318.4" width="30.6" height="30.6" rx="3" ry="3" fill="#f1c40f" stroke="#d4ac0f" stroke-width="2.0" opacity="1.0"/>
<text x="794.2" y="310.7" text-anchor="middle" font-size="10" fill="#333" opacity="1.0">obj_1</text>
<defs><radialGradient id="grad_obj_2" cx="35%" cy="35%"><stop offset="0%" stop-color="white" stop-opacity="0.4"/><stop offset="100%" stop-color="#e74c3c" stop-opacity="0"/></radialGradient></defs>

<circle cx="831.2" cy="235.4" r="12" fill="#e74c3c" stroke="#c0392b" stroke-width="2.0" opacity="1.0"/>
<circle cx="831.2" cy="235.4" r="12" fill="url(#grad_obj_2)" opacity="1.0"/>
<text x="831.2" y="218.4" text-anchor="middle" font-size="10" fill="#333" opacity="1.0">obj_2</text>

<circle cx="975.0" cy="261.8" r="18" fill="#e74c3c" stroke="#c0392b" stroke-width="2.0" opacity="0.85"/>
<text x="975.0" y="238.8" text-anchor="middle" font-size="10" fill="#333" opacity="1.0">obj_3</text>
<defs><radialGradient id="grad_obj_4" cx="35%" cy="35%"><stop offset="0%" stop-color="white" stop-opacity="0.4"/><stop offset="100%" stop-color="#9b59b6" stop-opacity="0"/></radialGradient></defs>

<circle cx="805.7" cy="163.0" r="12" fill="#9b59b6" stroke="#8e44ad" stroke-width="2.0" opacity="1.0"/>
<circle cx="805.7" cy="163.0" r="12" fill="url(#grad_obj_4)" opacity="1.0"/>
<text x="805.7" y="146.0" text-anchor="middle" font-size="10" fill="#333" opacity="1.0">obj_4</text>
<defs><radialGradient id="grad_obj_5" cx="35%" cy="35%"><stop offset="0%" stop-color="white" stop-opacity="0.4"/><stop offset="100%" stop-color="#a0785a" stop-opacity="0"/></radialGradient></defs>

<rect x="872.6" y="101.0" width="30.6" height="30.6" rx="3" ry="3" fill="#a0785a" stroke="#8b6545" stroke-width="2.0" opacity="1.0"/>
<text x="887.9" y="93.3" text-anchor="middle" font-size="10" fill="#333" opacity="1.0">obj_5</text>

<rect x="709.7" y="92.1" width="30.6" height="30.6" rx="3" ry="3" fill="#2ecc71" stroke="#27ae60" stroke-width="1.0" stroke-dasharray="4,3" opacity="0.35"/>
<text x="725.0" y="84.4" text-anchor="middle" font-size="9" fill="#333" opacity="0.6499999999999999"></text>

<rect x="959.7" y="328.6" width="30.6" height="30.6" rx="3" ry="3" fill="#f1c40f" stroke="#d4ac0f" stroke-width="1.0" stroke-dasharray="4,3" opacity="0.35"/>
<text x="975.0" y="320.9" text-anchor="middle" font-size="9" fill="#333" opacity="0.6499999999999999"></text>

<circle cx="730.0" cy="106.1" r="12" fill="#e74c3c" stroke="#c0392b" stroke-width="1.0" stroke-dasharray="4,3" opacity="0.35"/>
<text x="730.0" y="89.1" text-anchor="middle" font-size="9" fill="#333" opacity="0.6499999999999999"></text>

<circle cx="940.2" cy="217.5" r="18" fill="#e74c3c" stroke="#c0392b" stroke-width="1.0" stroke-dasharray="4,3" opacity="0.2975"/>
<text x="940.2" y="194.5" text-anchor="middle" font-size="9" fill="#333" opacity="0.5974999999999999"></text>

<circle cx="956.0" cy="283.1" r="12" fill="#9b59b6" stroke="#8e44ad" stroke-width="1.0" stroke-dasharray="4,3" opacity="0.35"/>
<text x="956.0" y="266.1" text-anchor="middle" font-size="9" fill="#333" opacity="0.6499999999999999"></text>

<rect x="920.7" y="203.5" width="30.6" height="30.6" rx="3" ry="3" fill="#a0785a" stroke="#8b6545" stroke-width="1.0" stroke-dasharray="4,3" opacity="0.35"/>
<text x="936.0" y="195.8" text-anchor="middle" font-size="9" fill="#333" opacity="0.6499999999999999"></text>
<circle cx="940" cy="75" r="5" fill="#95a5a6" stroke="#333" stroke-width="1"/><text x="950" y="79" font-size="9" fill="#555">GT</text><circle cx="940" cy="91" r="5" fill="#95a5a6" stroke="#333" stroke-width="1" stroke-dasharray="3,2" opacity="0.5"/><text x="950" y="95" font-size="9" fill="#555">Recon</text><line x1="934" y1="107" x2="946" y2="107" stroke="#e74c3c" stroke-width="1.5"/><text x="950" y="111" font-size="9" fill="#555">Distortion</text>
</svg>
