<svg xmlns="http://www.w3.org/2000/svg" xmlns:xlink="http://www.w3.org/1999/xlink" width="1030" height="415" viewBox="0 0 1030 415" style="font-family: 'Helvetica Neue', Arial, sans-serif;">
<rect width="1030" height="415" fill="#fafafa"/>

<text x="515" y="22" text-anchor="middle" font-size="14" font-weight="bold" fill="#2c3e50">Scene: n08_000000 | qwen--qwen3-vl-30b-a3b-thinking</text>
<text x="515" y="42" text-anchor="middle" font-size="10" fill="#7f8c8d">CSR_QRR=0.500  |  CSR_TRR=0.125  |  NRMS=0.6103  |  τ=-0.016  |  K=8</text>
<line x1="20.0" y1="65.0" x2="20.0" y2="385.0" stroke="#ecf0f1" stroke-width="0.5"/>
<line x1="20.0" y1="65.0" x2="340.0" y2="65.0" stroke="#ecf0f1" stroke-width="0.5"/>
<line x1="84.0" y1="65.0" x2="84.0" y2="385.0" stroke="#ecf0f1" stroke-width="0.5"/>
<line x1="20.0" y1="129.0" x2="340.0" y2="129.0" stroke="#ecf0f1" stroke-width="0.5"/>
<line x1="148.0" y1="65.0" x2="148.0" y2="385.0" stroke="#ecf0f1" stroke-width="0.5"/>
<line x1="20.0" y1="193.0" x2="340.0" y2="193.0" stroke="#ecf0f1" stroke-width="0.5"/>
<line x1="212.0" y1="65.0" x2="212.0" y2="385.0" stroke="#ecf0f1" stroke-width="0.5"/>
<line x1="20.0" y1="257.0" x2="340.0" y2="257.0" stroke="#ecf0f1" stroke-width="0.5"/>
<line x1="276.0" y1="65.0" x2="276.0" y2="385.0" stroke="#ecf0f1" stroke-width="0.5"/>
<line x1="20.0" y1="321.0" x2="340.0" y2="321.0" stroke="#ecf0f1" stroke-width="0.5"/>
<line x1="340.0" y1="65.0" x2="340.0" y2="385.0" stroke="#ecf0f1" stroke-width="0.5"/>
<line x1="20.0" y1="385.0" x2="340.0" y2="385.0" stroke="#ecf0f1" stroke-width="0.5"/>
<rect x="20.0" y="65.0" width="320.0" height="320.0" fill="none" stroke="#ddd" stroke-width="1"/>
<text x="180" y="60" text-anchor="middle" font-size="12" font-weight="bold" fill="#2c3e50">Ground Truth</text>

<rect x="253.7" y="281.3" width="27.0" height="39.6" rx="13.5" ry="4.7" fill="#2ecc71" stroke="#27ae60" stroke-width="2.0" opacity="0.85"/>
<text x="267.2" y="278.1" text-anchor="middle" font-size="10" fill="#333" opacity="1.0">obj_0</text>
<defs><radialGradient id="grad_obj_1" cx="35%" cy="35%"><stop offset="0%" stop-color="white" stop-opacity="0.4"/><stop offset="100%" stop-color="#2ecc71" stop-opacity="0"/></radialGradient></defs>

<rect x="182.4" y="245.4" width="27.0" height="39.6" rx="13.5" ry="4.7" fill="#2ecc71" stroke="#27ae60" stroke-width="2.0" opacity="1.0"/>
<text x="195.9" y="242.2" text-anchor="middle" font-size="10" fill="#333" opacity="1.0">obj_1</text>
<defs><radialGradient id="grad_obj_2" cx="35%" cy="35%"><stop offset="0%" stop-color="white" stop-opacity="0.4"/><stop offset="100%" stop-color="#95a5a6" stop-opacity="0"/></radialGradient></defs>

<rect x="223.7" y="108.5" width="30.6" height="30.6" rx="3" ry="3" fill="#95a5a6" stroke="#7f8c8d" stroke-width="2.0" opacity="1.0"/>
<text x="239.0" y="100.8" text-anchor="middle" font-size="10" fill="#333" opacity="1.0">obj_2</text>

<circle cx="71.0" cy="167.1" r="18" fill="#9b59b6" stroke="#8e44ad" stroke-width="2.0" opacity="0.85"/>
<text x="71.0" y="144.1" text-anchor="middle" font-size="10" fill="#333" opacity="1.0">obj_3</text>
<defs><radialGradient id="grad_obj_4" cx="35%" cy="35%"><stop offset="0%" stop-color="white" stop-opacity="0.4"/><stop offset="100%" stop-color="#f1c40f" stop-opacity="0"/></radialGradient></defs>

<circle cx="145.8" cy="124.4" r="12" fill="#f1c40f" stroke="#d4ac0f" stroke-width="2.0" opacity="1.0"/>
<circle cx="145.8" cy="124.4" r="12" fill="url(#grad_obj_4)" opacity="1.0"/>
<text x="145.8" y="107.4" text-anchor="middle" font-size="10" fill="#333" opacity="1.0">obj_4</text>

<rect x="58.9" y="326.7" width="27.0" height="39.6" rx="13.5" ry="4.7" fill="#e74c3c" stroke="#c0392b" stroke-width="2.0" opacity="0.85"/>
<text x="72.4" y="323.5" text-anchor="middle" font-size="10" fill="#333" opacity="1.0">obj_5</text>

<rect x="149.7" y="339.8" width="20.4" height="20.4" rx="3" ry="3" fill="#9b59b6" stroke="#8e44ad" stroke-width="2.0" opacity="0.85"/>
<text x="159.9" y="333.0" text-anchor="middle" font-size="10" fill="#333" opacity="1.0">obj_6</text>
<defs><radialGradient id="grad_obj_7" cx="35%" cy="35%"><stop offset="0%" stop-color="white" stop-opacity="0.4"/><stop offset="100%" stop-color="#9b59b6" stop-opacity="0"/></radialGradient></defs>

<rect x="280.0" y="86.8" width="18.0" height="26.4" rx="9.0" ry="3.1" fill="#9b59b6" stroke="#8e44ad" stroke-width="2.0" opacity="1.0"/>
<text x="289.0" y="83.0" text-anchor="middle" font-size="10" fill="#333" opacity="1.0">obj_7</text>
<line x1="355.0" y1="65.0" x2="355.0" y2="385.0" stroke="#ecf0f1" stroke-width="0.5"/>
<line x1="355.0" y1="65.0" x2="675.0" y2="65.0" stroke="#ecf0f1" stroke-width="0.5"/>
<line x1="419.0" y1="65.0" x2="419.0" y2="385.0" stroke="#ecf0f1" stroke-width="0.5"/>
<line x1="355.0" y1="129.0" x2="675.0" y2="129.0" stroke="#ecf0f1" stroke-width="0.5"/>
<line x1="483.0" y1="65.0" x2="483.0" y2="385.0" stroke="#ecf0f1" stroke-width="0.5"/>
<line x1="355.0" y1="193.0" x2="675.0" y2="193.0" stroke="#ecf0f1" stroke-width="0.5"/>
<line x1="547.0" y1="65.0" x2="547.0" y2="385.0" stroke="#ecf0f1" stroke-width="0.5"/>
<line x1="355.0" y1="257.0" x2="675.0" y2="257.0" stroke="#ecf0f1" stroke-width="0.5"/>
<line x1="611.0" y1="65.0" x2="611.0" y2="385.0" stroke="#ecf0f1" stroke-width="0.5"/>
<line x1="355.0" y1="321.0" x2="675.0" y2="321.0" stroke="#ecf0f1" stroke-width="0.5"/>
<line x1="675.0" y1="65.0" x2="675.0" y2="385.0" stroke="#ecf0f1" stroke-width="0.5"/>
<line x1="355.0" y1="385.0" x2="675.0" y2="385.0" stroke="#ecf0f1" stroke-width="0.5"/>
<rect x="355.0" y="65.0" width="320.0" height="320.0" fill="none" stroke="#ddd" stroke-width="1"/>
<text x="515" y="60" text-anchor="middle" font-size="12" font-weight="bold" fill="#2c3e50">Reconstructed</text>

<rect x="596.3" y="204.1" width="27.0" height="39.6" rx="13.5" ry="4.7" fill="#2ecc71" stroke="#27ae60" stroke-width="2.0" opacity="0.85"/>
<text x="609.8" y="200.9" text-anchor="middle" font-size="10" fill="#333" opacity="1.0">obj_0</text>
<defs><radialGradient id="grad_obj_1" cx="35%" cy="35%"><stop offset="0%" stop-color="white" stop-opacity="0.4"/><stop offset="100%" stop-color="#2ecc71" stop-opacity="0"/></radialGradient></defs>

<rect x="609.3" y="273.7" width="27.0" height="39.6" rx="13.5" ry="4.7" fill="#2ecc71" stroke="#27ae60" stroke-width="2.0" opacity="1.0"/>
<text x="622.8" y="270.5" text-anchor="middle" font-size="10" fill="#333" opacity="1.0">obj_1</text>
<defs><radialGradient id="grad_obj_2" cx="35%" cy="35%"><stop offset="0%" stop-color="white" stop-opacity="0.4"/><stop offset="100%" stop-color="#95a5a6" stop-opacity="0"/></radialGradient></defs>

<rect x="613.6" y="204.8" width="30.6" height="30.6" rx="3" ry="3" fill="#95a5a6" stroke="#7f8c8d" stroke-width="2.0" opacity="1.0"/>
<text x="628.9" y="197.1" text-anchor="middle" font-size="10" fill="#333" opacity="1.0">obj_2</text>

<circle cx="390.0" cy="154.2" r="18" fill="#9b59b6" stroke="#8e44ad" stroke-width="2.0" opacity="0.85"/>
<text x="390.0" y="131.2" text-anchor="middle" font-size="10" fill="#333" opacity="1.0">obj_3</text>
<defs><radialGradient id="grad_obj_4" cx="35%" cy="35%"><stop offset="0%" stop-color="white" stop-opacity="0.4"/><stop offset="100%" stop-color="#f1c40f" stop-opacity="0"/></radialGradient></defs>

<circle cx="622.9" cy="294.9" r="12" fill="#f1c40f" stroke="#d4ac0f" stroke-width="2.0" opacity="1.0"/>
<circle cx="622.9" cy="294.9" r="12" fill="url(#grad_obj_4)" opacity="1.0"/>
<text x="622.9" y="277.9" text-anchor="middle" font-size="10" fill="#333" opacity="1.0">obj_4</text>

<rect x="610.6" y="198.6" width="27.0" height="39.6" rx="13.5" ry="4.7" fill="#e74c3c" stroke="#c0392b" stroke-width="2.0" opacity="0.85"/>
<text x="624.1" y="195.4" text-anchor="middle" font-size="10" fill="#333" opacity="1.0">obj_5</text>

<rect x="629.8" y="280.0" width="20.4" height="20.4" rx="3" ry="3" fill="#9b59b6" stroke="#8e44ad" stroke-width="2.0" opacity="0.85"/>
<text x="640.0" y="273.2" text-anchor="middle" font-size="10" fill="#333" opacity="1.0">obj_6</text>
<defs><radialGradient id="grad_obj_7" cx="35%" cy="35%"><stop offset="0%" stop-color="white" stop-opacity="0.4"/><stop offset="100%" stop-color="#9b59b6" stop-opacity="0"/></radialGradient></defs>

<rect x="617.1" y="282.6" width="18.0" height="26.4" rx="9.0" ry="3.1" fill="#9b59b6" stroke="#8e44ad" stroke-width="2.0" opacity="1.0"/>
<text x="626.1" y="278.8" text-anchor="middle" font-size="10" fill="#333" opacity="1.0">obj_7</text>
<line x1="690.0" y1="65.0" x2="690.0" y2="385.0" stroke="#ecf0f1" stroke-width="0.5"/>
<line x1="690.0" y1="65.0" x2="1010.0" y2="65.0" stroke="#ecf0f1" stroke-width="0.5"/>
<line x1="754.0" y1="65.0" x2="754.0" y2="385.0" stroke="#ecf0f1" stroke-width="0.5"/>
<line x1="690.0" y1="129.0" x2="1010.0" y2="129.0" stroke="#ecf0f1" stroke-width="0.5"/>
<line x1="818.0" y1="65.0" x2="818.0" y2="385.0" stroke="#ecf0f1" stroke-width="0.5"/>
<line x1="690.0" y1="193.0" x2="1010.0" y2="193.0" stroke="#ecf0f1" stroke-width="0.5"/>
<line x1="882.0" y1="65.0" x2="882.0" y2="385.0" stroke="#ecf0f1" stroke-width="0.5"/>
<line x1="690.0" y1="257.0" x2="1010.0" y2="257.0" stroke="#ecf0f1" stroke-width="0.5"/>
<line x1="946.0" y1="65.0" x2="946.0" y2="385.0" stroke="#ecf0f1" stroke-width="0.5"/>
<line x1="690.0" y1="321.0" x2="1010.0" y2="321.0" stroke="#ecf0f1" stroke-width="0.5"/>
<line x1="1010.0" y1="65.0" x2="1010.0" y2="385.0" stroke="#ecf0f1" stroke-width="0.5"/>
<line x1="690.0" y1="385.0" x2="1010.0" y2="385.0" stroke="#ecf0f1" stroke-width="0.5"/>
<rect x="690.0" y="65.0" width="320.0" height="320.0" fill="none" stroke="#ddd" stroke-width="1"/>
<text x="850" y="60" text-anchor="middle" font-size="12" font-weight="bold" fill="#2c3e50">Overlay (NRMS=0.610)</text>
<line x1="937.2" y1="301.1" x2="944.8" y2="223.9" stroke="#2ecc71" stroke-width="1.8" opacity="0.7"/>
<polygon points="944.8,223.9 948.1,231.2 940.1,230.5" fill="#2ecc71" opacity="0.7"/>
<line x1="865.9" y1="265.2" x2="957.8" y2="293.5" stroke="#2ecc71" stroke-width="1.8" opacity="0.7"/>
<polygon points="957.8,293.5 950.0,295.3 952.4,287.7" fill="#2ecc71" opacity="0.7"/>
<line x1="909.0" y1="123.8" x2="963.9" y2="220.1" stroke="#95a5a6" stroke-width="1.8" opacity="0.7"/>
<polygon points="963.9,220.1 957.0,216.1 964.0,212.1" fill="#95a5a6" opacity="0.7"/>
<line x1="741.0" y1="167.1" x2="725.0" y2="154.2" stroke="#9b59b6" stroke-width="1.8" opacity="0.7"/>
<polygon points="725.0,154.2 731.1,155.2 727.2,160.0" fill="#9b59b6" opacity="0.7"/>
<line x1="815.8" y1="124.4" x2="957.9" y2="294.9" stroke="#f1c40f" stroke-width="1.8" opacity="0.7"/>
<polygon points="957.9,294.9 950.4,292.1 956.5,287.0" fill="#f1c40f" opacity="0.7"/>
<line x1="742.4" y1="346.5" x2="959.1" y2="218.4" stroke="#e74c3c" stroke-width="1.8" opacity="0.7"/>
<polygon points="959.1,218.4 955.2,225.4 951.1,218.5" fill="#e74c3c" opacity="0.7"/>
<line x1="829.9" y1="350.0" x2="975.0" y2="290.2" stroke="#9b59b6" stroke-width="1.8" opacity="0.7"/>
<polygon points="975.0,290.2 970.1,296.6 967.1,289.2" fill="#9b59b6" opacity="0.7"/>
<line x1="959.0" y1="100.0" x2="961.1" y2="295.8" stroke="#9b59b6" stroke-width="1.8" opacity="0.7"/>
<polygon points="961.1,295.8 957.1,288.9 965.1,288.8" fill="#9b59b6" opacity="0.7"/>

<rect x="923.7" y="281.3" width="27.0" height="39.6" rx="13.5" ry="4.7" fill="#2ecc71" stroke="#27ae60" stroke-width="2.0" opacity="0.85"/>
<text x="937.2" y="278.1" text-anchor="middle" font-size="10" fill="#333" opacity="1.0">obj_0</text>
<defs><radialGradient id="grad_obj_1" cx="35%" cy="35%"><stop offset="0%" stop-color="white" stop-opacity="0.4"/><stop offset="100%" stop-color="#2ecc71" stop-opacity="0"/></radialGradient></defs>

<rect x="852.4" y="245.4" width="27.0" height="39.6" rx="13.5" ry="4.7" fill="#2ecc71" stroke="#27ae60" stroke-width="2.0" opacity="1.0"/>
<text x="865.9" y="242.2" text-anchor="middle" font-size="10" fill="#333" opacity="1.0">obj_1</text>
<defs><radialGradient id="grad_obj_2" cx="35%" cy="35%"><stop offset="0%" stop-color="white" stop-opacity="0.4"/><stop offset="100%" stop-color="#95a5a6" stop-opacity="0"/></radialGradient></defs>

<rect x="893.7" y="108.5" width="30.6" height="30.6" rx="3" ry="3" fill="#95a5a6" stroke="#7f8c8d" stroke-width="2.0" opacity="1.0"/>
<text x="909.0" y="100.8" text-anchor="middle" font-size="10" fill="#333" opacity="1.0">obj_2</text>

<circle cx="741.0" cy="167.1" r="18" fill="#9b59b6" stroke="#8e44ad" stroke-width="2.0" opacity="0.85"/>
<text x="741.0" y="144.1" text-anchor="middle" font-size="10" fill="#333" opacity="1.0">obj_3</text>
<defs><radialGradient id="grad_obj_4" cx="35%" cy="35%"><stop offset="0%" stop-color="white" stop-opacity="0.4"/><stop offset="100%" stop-color="#f1c40f" stop-opacity="0"/></radialGradient></defs>

<circle cx="815.8" cy="124.4" r="12" fill="#f1c40f" stroke="#d4ac0f" stroke-width="2.0" opacity="1.0"/>
<circle cx="815.8" cy="124.4" r="12" fill="url(#grad_obj_4)" opacity="1.0"/>
<text x="815.8" y="107.4" text-anchor="middle" font-size="10" fill="#333" opacity="1.0">obj_4</text>

<rect x="728.9" y="326.7" width="27.0" height="39.6" rx="13.5" ry="4.7" fill="#e74c3c" stroke="#c0392b" stroke-width="2.0" opacity="0.85"/>
<text x="742.4" y="323.5" text-anchor="middle" font-size="10" fill="#333" opacity="1.0">obj_5</text>

<rect x="819.7" y="339.8" width="20.4" height="20.4" rx="3" ry="3" fill="#9b59b6" stroke="#8e44ad" stroke-width="2.0" opacity="0.85"/>
<text x="829.9" y="333.0" text-anchor="middle" font-size="10" fill="#333" opacity="1.0">obj_6</text>
<defs><radialGradient id="grad_obj_7" cx="35%" cy="35%"><stop offset="0%" stop-color="white" stop-opacity="0.4"/><stop offset="100%" stop-color="#9b59b6" stop-opacity="0"/></radialGradient></defs>

<rect x="950.0" y="86.8" width="18.0" height="26.4" rx="9.0" ry="3.1" fill="#9b59b6" stroke="#8e44ad" stroke-width="2.0" opacity="1.0"/>
<text x="959.0" y="83.0" text-anchor="middle" font-size="10" fill="#333" opacity="1.0">obj_7</text>

<rect x="931.3" y="204.1" width="27.0" height="39.6" rx="13.5" ry="4.7" fill="#2ecc71" stroke="#27ae60" stroke-width="1.0" stroke-dasharray="4,3" opacity="0.2975"/>
<text x="944.8" y="200.9" text-anchor="middle" font-size="9" fill="#333" opacity="0.5974999999999999"></text>

<rect x="944.3" y="273.7" width="27.0" height="39.6" rx="13.5" ry="4.7" fill="#2ecc71" stroke="#27ae60" stroke-width="1.0" stroke-dasharray="4,3" opacity="0.35"/>
<text x="957.8" y="270.5" text-anchor="middle" font-size="9" fill="#333" opacity="0.6499999999999999"></text>

<rect x="948.6" y="204.8" width="30.6" height="30.6" rx="3" ry="3" fill="#95a5a6" stroke="#7f8c8d" stroke-width="1.0" stroke-dasharray="4,3" opacity="0.35"/>
<text x="963.9" y="197.1" text-anchor="middle" font-size="9" fill="#333" opacity="0.6499999999999999"></text>

<circle cx="725.0" cy="154.2" r="18" fill="#9b59b6" stroke="#8e44ad" stroke-width="1.0" stroke-dasharray="4,3" opacity="0.2975"/>
<text x="725.0" y="131.2" text-anchor="middle" font-size="9" fill="#333" opacity="0.5974999999999999"></text>

<circle cx="957.9" cy="294.9" r="12" fill="#f1c40f" stroke="#d4ac0f" stroke-width="1.0" stroke-dasharray="4,3" opacity="0.35"/>
<text x="957.9" y="277.9" text-anchor="middle" font-size="9" fill="#333" opacity="0.6499999999999999"></text>

<rect x="945.6" y="198.6" width="27.0" height="39.6" rx="13.5" ry="4.7" fill="#e74c3c" stroke="#c0392b" stroke-width="1.0" stroke-dasharray="4,3" opacity="0.2975"/>
<text x="959.1" y="195.4" text-anchor="middle" font-size="9" fill="#333" opacity="0.5974999999999999"></text>

<rect x="964.8" y="280.0" width="20.4" height="20.4" rx="3" ry="3" fill="#9b59b6" stroke="#8e44ad" stroke-width="1.0" stroke-dasharray="4,3" opacity="0.2975"/>
<text x="975.0" y="273.2" text-anchor="middle" font-size="9" fill="#333" opacity="0.5974999999999999"></text>

<rect x="952.1" y="282.6" width="18.0" height="26.4" rx="9.0" ry="3.1" fill="#9b59b6" stroke="#8e44ad" stroke-width="1.0" stroke-dasharray="4,3" opacity="0.35"/>
<text x="961.1" y="278.8" text-anchor="middle" font-size="9" fill="#333" opacity="0.6499999999999999"></text>
<circle cx="940" cy="75" r="5" fill="#95a5a6" stroke="#333" stroke-width="1"/><text x="950" y="79" font-size="9" fill="#555">GT</text><circle cx="940" cy="91" r="5" fill="#95a5a6" stroke="#333" stroke-width="1" stroke-dasharray="3,2" opacity="0.5"/><text x="950" y="95" font-size="9" fill="#555">Recon</text><line x1="934" y1="107" x2="946" y2="107" stroke="#e74c3c" stroke-width="1.5"/><text x="950" y="111" font-size="9" fill="#555">Distortion</text>
</svg>
