<svg xmlns="http://www.w3.org/2000/svg" xmlns:xlink="http://www.w3.org/1999/xlink" width="1030" height="415" viewBox="0 0 1030 415" style="font-family: 'Helvetica Neue', Arial, sans-serif;">
<rect width="1030" height="415" fill="#fafafa"/>

<text x="515" y="22" text-anchor="middle" font-size="14" font-weight="bold" fill="#2c3e50">Scene: n04_000090 | claude-sonnet-4-6_multi_view</text>
<text x="515" y="42" text-anchor="middle" font-size="10" fill="#7f8c8d">CSR_QRR=0.357  |  CSR_TRR=0.167  |  NRMS=0.3680  |  τ=0.200  |  K=5</text>
<line x1="20.0" y1="65.0" x2="20.0" y2="385.0" stroke="#ecf0f1" stroke-width="0.5"/>
<line x1="20.0" y1="65.0" x2="340.0" y2="65.0" stroke="#ecf0f1" stroke-width="0.5"/>
<line x1="84.0" y1="65.0" x2="84.0" y2="385.0" stroke="#ecf0f1" stroke-width="0.5"/>
<line x1="20.0" y1="129.0" x2="340.0" y2="129.0" stroke="#ecf0f1" stroke-width="0.5"/>
<line x1="148.0" y1="65.0" x2="148.0" y2="385.0" stroke="#ecf0f1" stroke-width="0.5"/>
<line x1="20.0" y1="193.0" x2="340.0" y2="193.0" stroke="#ecf0f1" stroke-width="0.5"/>
<line x1="212.0" y1="65.0" x2="212.0" y2="385.0" stroke="#ecf0f1" stroke-width="0.5"/>
<line x1="20.0" y1="257.0" x2="340.0" y2="257.0" stroke="#ecf0f1" stroke-width="0.5"/>
<line x1="276.0" y1="65.0" x2="276.0" y2="385.0" stroke="#ecf0f1" stroke-width="0.5"/>
<line x1="20.0" y1="321.0" x2="340.0" y2="321.0" stroke="#ecf0f1" stroke-width="0.5"/>
<line x1="340.0" y1="65.0" x2="340.0" y2="385.0" stroke="#ecf0f1" stroke-width="0.5"/>
<line x1="20.0" y1="385.0" x2="340.0" y2="385.0" stroke="#ecf0f1" stroke-width="0.5"/>
<rect x="20.0" y="65.0" width="320.0" height="320.0" fill="none" stroke="#ddd" stroke-width="1"/>
<text x="180" y="60" text-anchor="middle" font-size="12" font-weight="bold" fill="#2c3e50">Ground Truth</text>
<defs><radialGradient id="grad_obj_0" cx="35%" cy="35%"><stop offset="0%" stop-color="white" stop-opacity="0.4"/><stop offset="100%" stop-color="#1abc9c" stop-opacity="0"/></radialGradient></defs>

<circle cx="237.7" cy="134.7" r="12" fill="#1abc9c" stroke="#16a085" stroke-width="2.0" opacity="1.0"/>
<circle cx="237.7" cy="134.7" r="12" fill="url(#grad_obj_0)" opacity="1.0"/>
<text x="237.7" y="117.7" text-anchor="middle" font-size="10" fill="#333" opacity="1.0">obj_0</text>

<rect x="131.7" y="80.2" width="27.0" height="39.6" rx="13.5" ry="4.7" fill="#a0785a" stroke="#8b6545" stroke-width="2.0" opacity="0.85"/>
<text x="145.2" y="77.0" text-anchor="middle" font-size="10" fill="#333" opacity="1.0">obj_1</text>

<rect x="236.8" y="286.8" width="30.6" height="30.6" rx="3" ry="3" fill="#e74c3c" stroke="#c0392b" stroke-width="2.0" opacity="0.85"/>
<text x="252.1" y="279.1" text-anchor="middle" font-size="10" fill="#333" opacity="1.0">obj_2</text>

<rect x="94.4" y="330.2" width="27.0" height="39.6" rx="13.5" ry="4.7" fill="#2ecc71" stroke="#27ae60" stroke-width="2.0" opacity="0.85"/>
<text x="107.9" y="327.0" text-anchor="middle" font-size="10" fill="#333" opacity="1.0">obj_3</text>
<line x1="355.0" y1="65.0" x2="355.0" y2="385.0" stroke="#ecf0f1" stroke-width="0.5"/>
<line x1="355.0" y1="65.0" x2="675.0" y2="65.0" stroke="#ecf0f1" stroke-width="0.5"/>
<line x1="419.0" y1="65.0" x2="419.0" y2="385.0" stroke="#ecf0f1" stroke-width="0.5"/>
<line x1="355.0" y1="129.0" x2="675.0" y2="129.0" stroke="#ecf0f1" stroke-width="0.5"/>
<line x1="483.0" y1="65.0" x2="483.0" y2="385.0" stroke="#ecf0f1" stroke-width="0.5"/>
<line x1="355.0" y1="193.0" x2="675.0" y2="193.0" stroke="#ecf0f1" stroke-width="0.5"/>
<line x1="547.0" y1="65.0" x2="547.0" y2="385.0" stroke="#ecf0f1" stroke-width="0.5"/>
<line x1="355.0" y1="257.0" x2="675.0" y2="257.0" stroke="#ecf0f1" stroke-width="0.5"/>
<line x1="611.0" y1="65.0" x2="611.0" y2="385.0" stroke="#ecf0f1" stroke-width="0.5"/>
<line x1="355.0" y1="321.0" x2="675.0" y2="321.0" stroke="#ecf0f1" stroke-width="0.5"/>
<line x1="675.0" y1="65.0" x2="675.0" y2="385.0" stroke="#ecf0f1" stroke-width="0.5"/>
<line x1="355.0" y1="385.0" x2="675.0" y2="385.0" stroke="#ecf0f1" stroke-width="0.5"/>
<rect x="355.0" y="65.0" width="320.0" height="320.0" fill="none" stroke="#ddd" stroke-width="1"/>
<text x="515" y="60" text-anchor="middle" font-size="12" font-weight="bold" fill="#2c3e50">Reconstructed</text>
<defs><radialGradient id="grad_obj_0" cx="35%" cy="35%"><stop offset="0%" stop-color="white" stop-opacity="0.4"/><stop offset="100%" stop-color="#1abc9c" stop-opacity="0"/></radialGradient></defs>

<circle cx="593.3" cy="108.1" r="12" fill="#1abc9c" stroke="#16a085" stroke-width="2.0" opacity="1.0"/>
<circle cx="593.3" cy="108.1" r="12" fill="url(#grad_obj_0)" opacity="1.0"/>
<text x="593.3" y="91.1" text-anchor="middle" font-size="10" fill="#333" opacity="1.0">obj_0</text>

<rect x="555.8" y="80.2" width="27.0" height="39.6" rx="13.5" ry="4.7" fill="#a0785a" stroke="#8b6545" stroke-width="2.0" opacity="0.85"/>
<text x="569.3" y="77.0" text-anchor="middle" font-size="10" fill="#333" opacity="1.0">obj_1</text>

<rect x="557.7" y="88.1" width="30.6" height="30.6" rx="3" ry="3" fill="#e74c3c" stroke="#c0392b" stroke-width="2.0" opacity="0.85"/>
<text x="573.0" y="80.4" text-anchor="middle" font-size="10" fill="#333" opacity="1.0">obj_2</text>

<rect x="423.2" y="330.2" width="27.0" height="39.6" rx="13.5" ry="4.7" fill="#2ecc71" stroke="#27ae60" stroke-width="2.0" opacity="0.85"/>
<text x="436.7" y="327.0" text-anchor="middle" font-size="10" fill="#333" opacity="1.0">obj_3</text>
<line x1="690.0" y1="65.0" x2="690.0" y2="385.0" stroke="#ecf0f1" stroke-width="0.5"/>
<line x1="690.0" y1="65.0" x2="1010.0" y2="65.0" stroke="#ecf0f1" stroke-width="0.5"/>
<line x1="754.0" y1="65.0" x2="754.0" y2="385.0" stroke="#ecf0f1" stroke-width="0.5"/>
<line x1="690.0" y1="129.0" x2="1010.0" y2="129.0" stroke="#ecf0f1" stroke-width="0.5"/>
<line x1="818.0" y1="65.0" x2="818.0" y2="385.0" stroke="#ecf0f1" stroke-width="0.5"/>
<line x1="690.0" y1="193.0" x2="1010.0" y2="193.0" stroke="#ecf0f1" stroke-width="0.5"/>
<line x1="882.0" y1="65.0" x2="882.0" y2="385.0" stroke="#ecf0f1" stroke-width="0.5"/>
<line x1="690.0" y1="257.0" x2="1010.0" y2="257.0" stroke="#ecf0f1" stroke-width="0.5"/>
<line x1="946.0" y1="65.0" x2="946.0" y2="385.0" stroke="#ecf0f1" stroke-width="0.5"/>
<line x1="690.0" y1="321.0" x2="1010.0" y2="321.0" stroke="#ecf0f1" stroke-width="0.5"/>
<line x1="1010.0" y1="65.0" x2="1010.0" y2="385.0" stroke="#ecf0f1" stroke-width="0.5"/>
<line x1="690.0" y1="385.0" x2="1010.0" y2="385.0" stroke="#ecf0f1" stroke-width="0.5"/>
<rect x="690.0" y="65.0" width="320.0" height="320.0" fill="none" stroke="#ddd" stroke-width="1"/>
<text x="850" y="60" text-anchor="middle" font-size="12" font-weight="bold" fill="#2c3e50">Overlay (NRMS=0.368)</text>
<line x1="907.7" y1="134.7" x2="928.3" y2="108.1" stroke="#1abc9c" stroke-width="1.8" opacity="0.7"/>
<polygon points="928.3,108.1 927.2,116.1 920.9,111.2" fill="#1abc9c" opacity="0.7"/>
<line x1="815.2" y1="100.0" x2="904.3" y2="100.0" stroke="#a0785a" stroke-width="1.8" opacity="0.7"/>
<polygon points="904.3,100.0 897.3,104.0 897.3,96.0" fill="#a0785a" opacity="0.7"/>
<line x1="922.1" y1="302.1" x2="908.0" y2="103.4" stroke="#e74c3c" stroke-width="1.8" opacity="0.7"/>
<polygon points="908.0,103.4 912.5,110.1 904.5,110.6" fill="#e74c3c" opacity="0.7"/>
<line x1="777.9" y1="350.0" x2="771.7" y2="350.0" stroke="#2ecc71" stroke-width="1.8" opacity="0.7"/>
<polygon points="771.7,350.0 773.3,349.1 773.3,350.9" fill="#2ecc71" opacity="0.7"/>
<defs><radialGradient id="grad_obj_0" cx="35%" cy="35%"><stop offset="0%" stop-color="white" stop-opacity="0.4"/><stop offset="100%" stop-color="#1abc9c" stop-opacity="0"/></radialGradient></defs>

<circle cx="907.7" cy="134.7" r="12" fill="#1abc9c" stroke="#16a085" stroke-width="2.0" opacity="1.0"/>
<circle cx="907.7" cy="134.7" r="12" fill="url(#grad_obj_0)" opacity="1.0"/>
<text x="907.7" y="117.7" text-anchor="middle" font-size="10" fill="#333" opacity="1.0">obj_0</text>

<rect x="801.7" y="80.2" width="27.0" height="39.6" rx="13.5" ry="4.7" fill="#a0785a" stroke="#8b6545" stroke-width="2.0" opacity="0.85"/>
<text x="815.2" y="77.0" text-anchor="middle" font-size="10" fill="#333" opacity="1.0">obj_1</text>

<rect x="906.8" y="286.8" width="30.6" height="30.6" rx="3" ry="3" fill="#e74c3c" stroke="#c0392b" stroke-width="2.0" opacity="0.85"/>
<text x="922.1" y="279.1" text-anchor="middle" font-size="10" fill="#333" opacity="1.0">obj_2</text>

<rect x="764.4" y="330.2" width="27.0" height="39.6" rx="13.5" ry="4.7" fill="#2ecc71" stroke="#27ae60" stroke-width="2.0" opacity="0.85"/>
<text x="777.9" y="327.0" text-anchor="middle" font-size="10" fill="#333" opacity="1.0">obj_3</text>

<circle cx="928.3" cy="108.1" r="12" fill="#1abc9c" stroke="#16a085" stroke-width="1.0" stroke-dasharray="4,3" opacity="0.35"/>
<text x="928.3" y="91.1" text-anchor="middle" font-size="9" fill="#333" opacity="0.6499999999999999"></text>

<rect x="890.8" y="80.2" width="27.0" height="39.6" rx="13.5" ry="4.7" fill="#a0785a" stroke="#8b6545" stroke-width="1.0" stroke-dasharray="4,3" opacity="0.2975"/>
<text x="904.3" y="77.0" text-anchor="middle" font-size="9" fill="#333" opacity="0.5974999999999999"></text>

<rect x="892.7" y="88.1" width="30.6" height="30.6" rx="3" ry="3" fill="#e74c3c" stroke="#c0392b" stroke-width="1.0" stroke-dasharray="4,3" opacity="0.2975"/>
<text x="908.0" y="80.4" text-anchor="middle" font-size="9" fill="#333" opacity="0.5974999999999999"></text>

<rect x="758.2" y="330.2" width="27.0" height="39.6" rx="13.5" ry="4.7" fill="#2ecc71" stroke="#27ae60" stroke-width="1.0" stroke-dasharray="4,3" opacity="0.2975"/>
<text x="771.7" y="327.0" text-anchor="middle" font-size="9" fill="#333" opacity="0.5974999999999999"></text>
<circle cx="940" cy="75" r="5" fill="#95a5a6" stroke="#333" stroke-width="1"/><text x="950" y="79" font-size="9" fill="#555">GT</text><circle cx="940" cy="91" r="5" fill="#95a5a6" stroke="#333" stroke-width="1" stroke-dasharray="3,2" opacity="0.5"/><text x="950" y="95" font-size="9" fill="#555">Recon</text><line x1="934" y1="107" x2="946" y2="107" stroke="#e74c3c" stroke-width="1.5"/><text x="950" y="111" font-size="9" fill="#555">Distortion</text>
</svg>
