<svg xmlns="http://www.w3.org/2000/svg" xmlns:xlink="http://www.w3.org/1999/xlink" width="1030" height="415" viewBox="0 0 1030 415" style="font-family: 'Helvetica Neue', Arial, sans-serif;">
<rect width="1030" height="415" fill="#fafafa"/>

<text x="515" y="22" text-anchor="middle" font-size="14" font-weight="bold" fill="#2c3e50">Scene: n05_000000 | qwen--qwen3-vl-235b-a22b-thinking</text>
<text x="515" y="42" text-anchor="middle" font-size="10" fill="#7f8c8d">CSR_QRR=1.000  |  CSR_TRR=0.900  |  NRMS=0.1385  |  τ=0.689  |  K=1</text>
<line x1="20.0" y1="65.0" x2="20.0" y2="385.0" stroke="#ecf0f1" stroke-width="0.5"/>
<line x1="20.0" y1="65.0" x2="340.0" y2="65.0" stroke="#ecf0f1" stroke-width="0.5"/>
<line x1="84.0" y1="65.0" x2="84.0" y2="385.0" stroke="#ecf0f1" stroke-width="0.5"/>
<line x1="20.0" y1="129.0" x2="340.0" y2="129.0" stroke="#ecf0f1" stroke-width="0.5"/>
<line x1="148.0" y1="65.0" x2="148.0" y2="385.0" stroke="#ecf0f1" stroke-width="0.5"/>
<line x1="20.0" y1="193.0" x2="340.0" y2="193.0" stroke="#ecf0f1" stroke-width="0.5"/>
<line x1="212.0" y1="65.0" x2="212.0" y2="385.0" stroke="#ecf0f1" stroke-width="0.5"/>
<line x1="20.0" y1="257.0" x2="340.0" y2="257.0" stroke="#ecf0f1" stroke-width="0.5"/>
<line x1="276.0" y1="65.0" x2="276.0" y2="385.0" stroke="#ecf0f1" stroke-width="0.5"/>
<line x1="20.0" y1="321.0" x2="340.0" y2="321.0" stroke="#ecf0f1" stroke-width="0.5"/>
<line x1="340.0" y1="65.0" x2="340.0" y2="385.0" stroke="#ecf0f1" stroke-width="0.5"/>
<line x1="20.0" y1="385.0" x2="340.0" y2="385.0" stroke="#ecf0f1" stroke-width="0.5"/>
<rect x="20.0" y="65.0" width="320.0" height="320.0" fill="none" stroke="#ddd" stroke-width="1"/>
<text x="180" y="60" text-anchor="middle" font-size="12" font-weight="bold" fill="#2c3e50">Ground Truth</text>

<rect x="131.8" y="177.5" width="18.0" height="26.4" rx="9.0" ry="3.1" fill="#e74c3c" stroke="#c0392b" stroke-width="2.0" opacity="0.85"/>
<text x="140.8" y="173.7" text-anchor="middle" font-size="10" fill="#333" opacity="1.0">obj_0</text>

<rect x="233.7" y="339.8" width="20.4" height="20.4" rx="3" ry="3" fill="#3498db" stroke="#2980b9" stroke-width="2.0" opacity="0.85"/>
<text x="243.9" y="333.0" text-anchor="middle" font-size="10" fill="#333" opacity="1.0">obj_1</text>

<circle cx="296.0" cy="100.0" r="18" fill="#f1c40f" stroke="#d4ac0f" stroke-width="2.0" opacity="0.85"/>
<text x="296.0" y="77.0" text-anchor="middle" font-size="10" fill="#333" opacity="1.0">obj_2</text>

<rect x="272.9" y="229.6" width="18.0" height="26.4" rx="9.0" ry="3.1" fill="#9b59b6" stroke="#8e44ad" stroke-width="2.0" opacity="0.85"/>
<text x="281.9" y="225.8" text-anchor="middle" font-size="10" fill="#333" opacity="1.0">obj_3</text>

<rect x="50.5" y="214.6" width="27.0" height="39.6" rx="13.5" ry="4.7" fill="#95a5a6" stroke="#7f8c8d" stroke-width="2.0" opacity="0.85"/>
<text x="64.0" y="211.4" text-anchor="middle" font-size="10" fill="#333" opacity="1.0">obj_4</text>
<line x1="355.0" y1="65.0" x2="355.0" y2="385.0" stroke="#ecf0f1" stroke-width="0.5"/>
<line x1="355.0" y1="65.0" x2="675.0" y2="65.0" stroke="#ecf0f1" stroke-width="0.5"/>
<line x1="419.0" y1="65.0" x2="419.0" y2="385.0" stroke="#ecf0f1" stroke-width="0.5"/>
<line x1="355.0" y1="129.0" x2="675.0" y2="129.0" stroke="#ecf0f1" stroke-width="0.5"/>
<line x1="483.0" y1="65.0" x2="483.0" y2="385.0" stroke="#ecf0f1" stroke-width="0.5"/>
<line x1="355.0" y1="193.0" x2="675.0" y2="193.0" stroke="#ecf0f1" stroke-width="0.5"/>
<line x1="547.0" y1="65.0" x2="547.0" y2="385.0" stroke="#ecf0f1" stroke-width="0.5"/>
<line x1="355.0" y1="257.0" x2="675.0" y2="257.0" stroke="#ecf0f1" stroke-width="0.5"/>
<line x1="611.0" y1="65.0" x2="611.0" y2="385.0" stroke="#ecf0f1" stroke-width="0.5"/>
<line x1="355.0" y1="321.0" x2="675.0" y2="321.0" stroke="#ecf0f1" stroke-width="0.5"/>
<line x1="675.0" y1="65.0" x2="675.0" y2="385.0" stroke="#ecf0f1" stroke-width="0.5"/>
<line x1="355.0" y1="385.0" x2="675.0" y2="385.0" stroke="#ecf0f1" stroke-width="0.5"/>
<rect x="355.0" y="65.0" width="320.0" height="320.0" fill="none" stroke="#ddd" stroke-width="1"/>
<text x="515" y="60" text-anchor="middle" font-size="12" font-weight="bold" fill="#2c3e50">Reconstructed</text>

<rect x="510.9" y="158.7" width="18.0" height="26.4" rx="9.0" ry="3.1" fill="#e74c3c" stroke="#c0392b" stroke-width="2.0" opacity="0.85"/>
<text x="519.9" y="154.9" text-anchor="middle" font-size="10" fill="#333" opacity="1.0">obj_0</text>

<rect x="597.8" y="295.5" width="20.4" height="20.4" rx="3" ry="3" fill="#3498db" stroke="#2980b9" stroke-width="2.0" opacity="0.85"/>
<text x="608.0" y="288.7" text-anchor="middle" font-size="10" fill="#333" opacity="1.0">obj_1</text>

<circle cx="640.0" cy="144.3" r="18" fill="#f1c40f" stroke="#d4ac0f" stroke-width="2.0" opacity="0.85"/>
<text x="640.0" y="121.3" text-anchor="middle" font-size="10" fill="#333" opacity="1.0">obj_2</text>

<rect x="623.3" y="215.2" width="18.0" height="26.4" rx="9.0" ry="3.1" fill="#9b59b6" stroke="#8e44ad" stroke-width="2.0" opacity="0.85"/>
<text x="632.3" y="211.4" text-anchor="middle" font-size="10" fill="#333" opacity="1.0">obj_3</text>

<rect x="376.5" y="222.4" width="27.0" height="39.6" rx="13.5" ry="4.7" fill="#95a5a6" stroke="#7f8c8d" stroke-width="2.0" opacity="0.85"/>
<text x="390.0" y="219.2" text-anchor="middle" font-size="10" fill="#333" opacity="1.0">obj_4</text>
<line x1="690.0" y1="65.0" x2="690.0" y2="385.0" stroke="#ecf0f1" stroke-width="0.5"/>
<line x1="690.0" y1="65.0" x2="1010.0" y2="65.0" stroke="#ecf0f1" stroke-width="0.5"/>
<line x1="754.0" y1="65.0" x2="754.0" y2="385.0" stroke="#ecf0f1" stroke-width="0.5"/>
<line x1="690.0" y1="129.0" x2="1010.0" y2="129.0" stroke="#ecf0f1" stroke-width="0.5"/>
<line x1="818.0" y1="65.0" x2="818.0" y2="385.0" stroke="#ecf0f1" stroke-width="0.5"/>
<line x1="690.0" y1="193.0" x2="1010.0" y2="193.0" stroke="#ecf0f1" stroke-width="0.5"/>
<line x1="882.0" y1="65.0" x2="882.0" y2="385.0" stroke="#ecf0f1" stroke-width="0.5"/>
<line x1="690.0" y1="257.0" x2="1010.0" y2="257.0" stroke="#ecf0f1" stroke-width="0.5"/>
<line x1="946.0" y1="65.0" x2="946.0" y2="385.0" stroke="#ecf0f1" stroke-width="0.5"/>
<line x1="690.0" y1="321.0" x2="1010.0" y2="321.0" stroke="#ecf0f1" stroke-width="0.5"/>
<line x1="1010.0" y1="65.0" x2="1010.0" y2="385.0" stroke="#ecf0f1" stroke-width="0.5"/>
<line x1="690.0" y1="385.0" x2="1010.0" y2="385.0" stroke="#ecf0f1" stroke-width="0.5"/>
<rect x="690.0" y="65.0" width="320.0" height="320.0" fill="none" stroke="#ddd" stroke-width="1"/>
<text x="850" y="60" text-anchor="middle" font-size="12" font-weight="bold" fill="#2c3e50">Overlay (NRMS=0.139)</text>
<line x1="810.8" y1="190.7" x2="854.9" y2="171.9" stroke="#e74c3c" stroke-width="1.8" opacity="0.7"/>
<polygon points="854.9,171.9 850.0,178.3 846.9,171.0" fill="#e74c3c" opacity="0.7"/>
<line x1="913.9" y1="350.0" x2="943.0" y2="305.7" stroke="#3498db" stroke-width="1.8" opacity="0.7"/>
<polygon points="943.0,305.7 942.6,313.7 935.9,309.3" fill="#3498db" opacity="0.7"/>
<line x1="966.0" y1="100.0" x2="975.0" y2="144.3" stroke="#f1c40f" stroke-width="1.8" opacity="0.7"/>
<polygon points="975.0,144.3 969.7,138.3 977.5,136.7" fill="#f1c40f" opacity="0.7"/>
<line x1="951.9" y1="242.8" x2="967.3" y2="228.4" stroke="#9b59b6" stroke-width="1.8" opacity="0.7"/>
<polygon points="967.3,228.4 965.5,234.5 961.2,229.9" fill="#9b59b6" opacity="0.7"/>
<line x1="734.0" y1="234.4" x2="725.0" y2="242.2" stroke="#95a5a6" stroke-width="1.8" opacity="0.7"/>
<polygon points="725.0,242.2 726.2,238.8 728.5,241.5" fill="#95a5a6" opacity="0.7"/>

<rect x="801.8" y="177.5" width="18.0" height="26.4" rx="9.0" ry="3.1" fill="#e74c3c" stroke="#c0392b" stroke-width="2.0" opacity="0.85"/>
<text x="810.8" y="173.7" text-anchor="middle" font-size="10" fill="#333" opacity="1.0">obj_0</text>

<rect x="903.7" y="339.8" width="20.4" height="20.4" rx="3" ry="3" fill="#3498db" stroke="#2980b9" stroke-width="2.0" opacity="0.85"/>
<text x="913.9" y="333.0" text-anchor="middle" font-size="10" fill="#333" opacity="1.0">obj_1</text>

<circle cx="966.0" cy="100.0" r="18" fill="#f1c40f" stroke="#d4ac0f" stroke-width="2.0" opacity="0.85"/>
<text x="966.0" y="77.0" text-anchor="middle" font-size="10" fill="#333" opacity="1.0">obj_2</text>

<rect x="942.9" y="229.6" width="18.0" height="26.4" rx="9.0" ry="3.1" fill="#9b59b6" stroke="#8e44ad" stroke-width="2.0" opacity="0.85"/>
<text x="951.9" y="225.8" text-anchor="middle" font-size="10" fill="#333" opacity="1.0">obj_3</text>

<rect x="720.5" y="214.6" width="27.0" height="39.6" rx="13.5" ry="4.7" fill="#95a5a6" stroke="#7f8c8d" stroke-width="2.0" opacity="0.85"/>
<text x="734.0" y="211.4" text-anchor="middle" font-size="10" fill="#333" opacity="1.0">obj_4</text>

<rect x="845.9" y="158.7" width="18.0" height="26.4" rx="9.0" ry="3.1" fill="#e74c3c" stroke="#c0392b" stroke-width="1.0" stroke-dasharray="4,3" opacity="0.2975"/>
<text x="854.9" y="154.9" text-anchor="middle" font-size="9" fill="#333" opacity="0.5974999999999999"></text>

<rect x="932.8" y="295.5" width="20.4" height="20.4" rx="3" ry="3" fill="#3498db" stroke="#2980b9" stroke-width="1.0" stroke-dasharray="4,3" opacity="0.2975"/>
<text x="943.0" y="288.7" text-anchor="middle" font-size="9" fill="#333" opacity="0.5974999999999999"></text>

<circle cx="975.0" cy="144.3" r="18" fill="#f1c40f" stroke="#d4ac0f" stroke-width="1.0" stroke-dasharray="4,3" opacity="0.2975"/>
<text x="975.0" y="121.3" text-anchor="middle" font-size="9" fill="#333" opacity="0.5974999999999999"></text>

<rect x="958.3" y="215.2" width="18.0" height="26.4" rx="9.0" ry="3.1" fill="#9b59b6" stroke="#8e44ad" stroke-width="1.0" stroke-dasharray="4,3" opacity="0.2975"/>
<text x="967.3" y="211.4" text-anchor="middle" font-size="9" fill="#333" opacity="0.5974999999999999"></text>

<rect x="711.5" y="222.4" width="27.0" height="39.6" rx="13.5" ry="4.7" fill="#95a5a6" stroke="#7f8c8d" stroke-width="1.0" stroke-dasharray="4,3" opacity="0.2975"/>
<text x="725.0" y="219.2" text-anchor="middle" font-size="9" fill="#333" opacity="0.5974999999999999"></text>
<circle cx="940" cy="75" r="5" fill="#95a5a6" stroke="#333" stroke-width="1"/><text x="950" y="79" font-size="9" fill="#555">GT</text><circle cx="940" cy="91" r="5" fill="#95a5a6" stroke="#333" stroke-width="1" stroke-dasharray="3,2" opacity="0.5"/><text x="950" y="95" font-size="9" fill="#555">Recon</text><line x1="934" y1="107" x2="946" y2="107" stroke="#e74c3c" stroke-width="1.5"/><text x="950" y="111" font-size="9" fill="#555">Distortion</text>
</svg>
