<svg xmlns="http://www.w3.org/2000/svg" xmlns:xlink="http://www.w3.org/1999/xlink" width="1030" height="415" viewBox="0 0 1030 415" style="font-family: 'Helvetica Neue', Arial, sans-serif;">
<rect width="1030" height="415" fill="#fafafa"/>

<text x="515" y="22" text-anchor="middle" font-size="14" font-weight="bold" fill="#2c3e50">Scene: n05_000007 | qwen--qwen3-vl-235b-a22b-thinking</text>
<text x="515" y="42" text-anchor="middle" font-size="10" fill="#7f8c8d">CSR_QRR=0.833  |  CSR_TRR=0.050  |  NRMS=0.3189  |  τ=0.378  |  K=10</text>
<line x1="20.0" y1="65.0" x2="20.0" y2="385.0" stroke="#ecf0f1" stroke-width="0.5"/>
<line x1="20.0" y1="65.0" x2="340.0" y2="65.0" stroke="#ecf0f1" stroke-width="0.5"/>
<line x1="84.0" y1="65.0" x2="84.0" y2="385.0" stroke="#ecf0f1" stroke-width="0.5"/>
<line x1="20.0" y1="129.0" x2="340.0" y2="129.0" stroke="#ecf0f1" stroke-width="0.5"/>
<line x1="148.0" y1="65.0" x2="148.0" y2="385.0" stroke="#ecf0f1" stroke-width="0.5"/>
<line x1="20.0" y1="193.0" x2="340.0" y2="193.0" stroke="#ecf0f1" stroke-width="0.5"/>
<line x1="212.0" y1="65.0" x2="212.0" y2="385.0" stroke="#ecf0f1" stroke-width="0.5"/>
<line x1="20.0" y1="257.0" x2="340.0" y2="257.0" stroke="#ecf0f1" stroke-width="0.5"/>
<line x1="276.0" y1="65.0" x2="276.0" y2="385.0" stroke="#ecf0f1" stroke-width="0.5"/>
<line x1="20.0" y1="321.0" x2="340.0" y2="321.0" stroke="#ecf0f1" stroke-width="0.5"/>
<line x1="340.0" y1="65.0" x2="340.0" y2="385.0" stroke="#ecf0f1" stroke-width="0.5"/>
<line x1="20.0" y1="385.0" x2="340.0" y2="385.0" stroke="#ecf0f1" stroke-width="0.5"/>
<rect x="20.0" y="65.0" width="320.0" height="320.0" fill="none" stroke="#ddd" stroke-width="1"/>
<text x="180" y="60" text-anchor="middle" font-size="12" font-weight="bold" fill="#2c3e50">Ground Truth</text>

<circle cx="71.5" cy="129.7" r="18" fill="#a0785a" stroke="#8b6545" stroke-width="2.0" opacity="0.85"/>
<text x="71.5" y="106.7" text-anchor="middle" font-size="10" fill="#333" opacity="1.0">obj_0</text>

<rect x="166.7" y="166.7" width="20.4" height="20.4" rx="3" ry="3" fill="#9b59b6" stroke="#8e44ad" stroke-width="2.0" opacity="0.85"/>
<text x="176.9" y="159.9" text-anchor="middle" font-size="10" fill="#333" opacity="1.0">obj_1</text>

<rect x="180.0" y="307.1" width="18.0" height="26.4" rx="9.0" ry="3.1" fill="#3498db" stroke="#2980b9" stroke-width="2.0" opacity="0.85"/>
<text x="189.0" y="303.3" text-anchor="middle" font-size="10" fill="#333" opacity="1.0">obj_2</text>
<defs><radialGradient id="grad_obj_3" cx="35%" cy="35%"><stop offset="0%" stop-color="white" stop-opacity="0.4"/><stop offset="100%" stop-color="#95a5a6" stop-opacity="0"/></radialGradient></defs>

<rect x="289.7" y="247.0" width="30.6" height="30.6" rx="3" ry="3" fill="#95a5a6" stroke="#7f8c8d" stroke-width="2.0" opacity="1.0"/>
<text x="305.0" y="239.3" text-anchor="middle" font-size="10" fill="#333" opacity="1.0">obj_3</text>
<defs><radialGradient id="grad_obj_4" cx="35%" cy="35%"><stop offset="0%" stop-color="white" stop-opacity="0.4"/><stop offset="100%" stop-color="#e74c3c" stop-opacity="0"/></radialGradient></defs>

<circle cx="55.0" cy="267.4" r="18" fill="#e74c3c" stroke="#c0392b" stroke-width="2.0" opacity="1.0"/>
<circle cx="55.0" cy="267.4" r="18" fill="url(#grad_obj_4)" opacity="1.0"/>
<text x="55.0" y="244.4" text-anchor="middle" font-size="10" fill="#333" opacity="1.0">obj_4</text>
<line x1="355.0" y1="65.0" x2="355.0" y2="385.0" stroke="#ecf0f1" stroke-width="0.5"/>
<line x1="355.0" y1="65.0" x2="675.0" y2="65.0" stroke="#ecf0f1" stroke-width="0.5"/>
<line x1="419.0" y1="65.0" x2="419.0" y2="385.0" stroke="#ecf0f1" stroke-width="0.5"/>
<line x1="355.0" y1="129.0" x2="675.0" y2="129.0" stroke="#ecf0f1" stroke-width="0.5"/>
<line x1="483.0" y1="65.0" x2="483.0" y2="385.0" stroke="#ecf0f1" stroke-width="0.5"/>
<line x1="355.0" y1="193.0" x2="675.0" y2="193.0" stroke="#ecf0f1" stroke-width="0.5"/>
<line x1="547.0" y1="65.0" x2="547.0" y2="385.0" stroke="#ecf0f1" stroke-width="0.5"/>
<line x1="355.0" y1="257.0" x2="675.0" y2="257.0" stroke="#ecf0f1" stroke-width="0.5"/>
<line x1="611.0" y1="65.0" x2="611.0" y2="385.0" stroke="#ecf0f1" stroke-width="0.5"/>
<line x1="355.0" y1="321.0" x2="675.0" y2="321.0" stroke="#ecf0f1" stroke-width="0.5"/>
<line x1="675.0" y1="65.0" x2="675.0" y2="385.0" stroke="#ecf0f1" stroke-width="0.5"/>
<line x1="355.0" y1="385.0" x2="675.0" y2="385.0" stroke="#ecf0f1" stroke-width="0.5"/>
<rect x="355.0" y="65.0" width="320.0" height="320.0" fill="none" stroke="#ddd" stroke-width="1"/>
<text x="515" y="60" text-anchor="middle" font-size="12" font-weight="bold" fill="#2c3e50">Reconstructed</text>

<circle cx="390.0" cy="158.2" r="18" fill="#a0785a" stroke="#8b6545" stroke-width="2.0" opacity="0.85"/>
<text x="390.0" y="135.2" text-anchor="middle" font-size="10" fill="#333" opacity="1.0">obj_0</text>

<rect x="626.1" y="281.6" width="20.4" height="20.4" rx="3" ry="3" fill="#9b59b6" stroke="#8e44ad" stroke-width="2.0" opacity="0.85"/>
<text x="636.3" y="274.8" text-anchor="middle" font-size="10" fill="#333" opacity="1.0">obj_1</text>

<rect x="629.1" y="277.8" width="18.0" height="26.4" rx="9.0" ry="3.1" fill="#3498db" stroke="#2980b9" stroke-width="2.0" opacity="0.85"/>
<text x="638.1" y="274.0" text-anchor="middle" font-size="10" fill="#333" opacity="1.0">obj_2</text>
<defs><radialGradient id="grad_obj_3" cx="35%" cy="35%"><stop offset="0%" stop-color="white" stop-opacity="0.4"/><stop offset="100%" stop-color="#95a5a6" stop-opacity="0"/></radialGradient></defs>

<rect x="624.7" y="273.5" width="30.6" height="30.6" rx="3" ry="3" fill="#95a5a6" stroke="#7f8c8d" stroke-width="2.0" opacity="1.0"/>
<text x="640.0" y="265.8" text-anchor="middle" font-size="10" fill="#333" opacity="1.0">obj_3</text>
<defs><radialGradient id="grad_obj_4" cx="35%" cy="35%"><stop offset="0%" stop-color="white" stop-opacity="0.4"/><stop offset="100%" stop-color="#e74c3c" stop-opacity="0"/></radialGradient></defs>

<circle cx="465.9" cy="216.6" r="18" fill="#e74c3c" stroke="#c0392b" stroke-width="2.0" opacity="1.0"/>
<circle cx="465.9" cy="216.6" r="18" fill="url(#grad_obj_4)" opacity="1.0"/>
<text x="465.9" y="193.6" text-anchor="middle" font-size="10" fill="#333" opacity="1.0">obj_4</text>
<line x1="690.0" y1="65.0" x2="690.0" y2="385.0" stroke="#ecf0f1" stroke-width="0.5"/>
<line x1="690.0" y1="65.0" x2="1010.0" y2="65.0" stroke="#ecf0f1" stroke-width="0.5"/>
<line x1="754.0" y1="65.0" x2="754.0" y2="385.0" stroke="#ecf0f1" stroke-width="0.5"/>
<line x1="690.0" y1="129.0" x2="1010.0" y2="129.0" stroke="#ecf0f1" stroke-width="0.5"/>
<line x1="818.0" y1="65.0" x2="818.0" y2="385.0" stroke="#ecf0f1" stroke-width="0.5"/>
<line x1="690.0" y1="193.0" x2="1010.0" y2="193.0" stroke="#ecf0f1" stroke-width="0.5"/>
<line x1="882.0" y1="65.0" x2="882.0" y2="385.0" stroke="#ecf0f1" stroke-width="0.5"/>
<line x1="690.0" y1="257.0" x2="1010.0" y2="257.0" stroke="#ecf0f1" stroke-width="0.5"/>
<line x1="946.0" y1="65.0" x2="946.0" y2="385.0" stroke="#ecf0f1" stroke-width="0.5"/>
<line x1="690.0" y1="321.0" x2="1010.0" y2="321.0" stroke="#ecf0f1" stroke-width="0.5"/>
<line x1="1010.0" y1="65.0" x2="1010.0" y2="385.0" stroke="#ecf0f1" stroke-width="0.5"/>
<line x1="690.0" y1="385.0" x2="1010.0" y2="385.0" stroke="#ecf0f1" stroke-width="0.5"/>
<rect x="690.0" y="65.0" width="320.0" height="320.0" fill="none" stroke="#ddd" stroke-width="1"/>
<text x="850" y="60" text-anchor="middle" font-size="12" font-weight="bold" fill="#2c3e50">Overlay (NRMS=0.319)</text>
<line x1="741.5" y1="129.7" x2="725.0" y2="158.2" stroke="#a0785a" stroke-width="1.8" opacity="0.7"/>
<polygon points="725.0,158.2 725.0,150.2 731.9,154.2" fill="#a0785a" opacity="0.7"/>
<line x1="846.9" y1="176.9" x2="971.3" y2="291.8" stroke="#9b59b6" stroke-width="1.8" opacity="0.7"/>
<polygon points="971.3,291.8 963.5,290.1 968.9,284.2" fill="#9b59b6" opacity="0.7"/>
<line x1="859.0" y1="320.3" x2="973.1" y2="291.0" stroke="#3498db" stroke-width="1.8" opacity="0.7"/>
<polygon points="973.1,291.0 967.4,296.6 965.4,288.9" fill="#3498db" opacity="0.7"/>
<line x1="975.0" y1="262.3" x2="975.0" y2="288.8" stroke="#95a5a6" stroke-width="1.8" opacity="0.7"/>
<polygon points="975.0,288.8 971.0,281.9 979.0,281.9" fill="#95a5a6" opacity="0.7"/>
<line x1="725.0" y1="267.4" x2="800.9" y2="216.6" stroke="#e74c3c" stroke-width="1.8" opacity="0.7"/>
<polygon points="800.9,216.6 797.4,223.8 792.9,217.1" fill="#e74c3c" opacity="0.7"/>

<circle cx="741.5" cy="129.7" r="18" fill="#a0785a" stroke="#8b6545" stroke-width="2.0" opacity="0.85"/>
<text x="741.5" y="106.7" text-anchor="middle" font-size="10" fill="#333" opacity="1.0">obj_0</text>

<rect x="836.7" y="166.7" width="20.4" height="20.4" rx="3" ry="3" fill="#9b59b6" stroke="#8e44ad" stroke-width="2.0" opacity="0.85"/>
<text x="846.9" y="159.9" text-anchor="middle" font-size="10" fill="#333" opacity="1.0">obj_1</text>

<rect x="850.0" y="307.1" width="18.0" height="26.4" rx="9.0" ry="3.1" fill="#3498db" stroke="#2980b9" stroke-width="2.0" opacity="0.85"/>
<text x="859.0" y="303.3" text-anchor="middle" font-size="10" fill="#333" opacity="1.0">obj_2</text>
<defs><radialGradient id="grad_obj_3" cx="35%" cy="35%"><stop offset="0%" stop-color="white" stop-opacity="0.4"/><stop offset="100%" stop-color="#95a5a6" stop-opacity="0"/></radialGradient></defs>

<rect x="959.7" y="247.0" width="30.6" height="30.6" rx="3" ry="3" fill="#95a5a6" stroke="#7f8c8d" stroke-width="2.0" opacity="1.0"/>
<text x="975.0" y="239.3" text-anchor="middle" font-size="10" fill="#333" opacity="1.0">obj_3</text>
<defs><radialGradient id="grad_obj_4" cx="35%" cy="35%"><stop offset="0%" stop-color="white" stop-opacity="0.4"/><stop offset="100%" stop-color="#e74c3c" stop-opacity="0"/></radialGradient></defs>

<circle cx="725.0" cy="267.4" r="18" fill="#e74c3c" stroke="#c0392b" stroke-width="2.0" opacity="1.0"/>
<circle cx="725.0" cy="267.4" r="18" fill="url(#grad_obj_4)" opacity="1.0"/>
<text x="725.0" y="244.4" text-anchor="middle" font-size="10" fill="#333" opacity="1.0">obj_4</text>

<circle cx="725.0" cy="158.2" r="18" fill="#a0785a" stroke="#8b6545" stroke-width="1.0" stroke-dasharray="4,3" opacity="0.2975"/>
<text x="725.0" y="135.2" text-anchor="middle" font-size="9" fill="#333" opacity="0.5974999999999999"></text>

<rect x="961.1" y="281.6" width="20.4" height="20.4" rx="3" ry="3" fill="#9b59b6" stroke="#8e44ad" stroke-width="1.0" stroke-dasharray="4,3" opacity="0.2975"/>
<text x="971.3" y="274.8" text-anchor="middle" font-size="9" fill="#333" opacity="0.5974999999999999"></text>

<rect x="964.1" y="277.8" width="18.0" height="26.4" rx="9.0" ry="3.1" fill="#3498db" stroke="#2980b9" stroke-width="1.0" stroke-dasharray="4,3" opacity="0.2975"/>
<text x="973.1" y="274.0" text-anchor="middle" font-size="9" fill="#333" opacity="0.5974999999999999"></text>

<rect x="959.7" y="273.5" width="30.6" height="30.6" rx="3" ry="3" fill="#95a5a6" stroke="#7f8c8d" stroke-width="1.0" stroke-dasharray="4,3" opacity="0.35"/>
<text x="975.0" y="265.8" text-anchor="middle" font-size="9" fill="#333" opacity="0.6499999999999999"></text>

<circle cx="800.9" cy="216.6" r="18" fill="#e74c3c" stroke="#c0392b" stroke-width="1.0" stroke-dasharray="4,3" opacity="0.35"/>
<text x="800.9" y="193.6" text-anchor="middle" font-size="9" fill="#333" opacity="0.6499999999999999"></text>
<circle cx="940" cy="75" r="5" fill="#95a5a6" stroke="#333" stroke-width="1"/><text x="950" y="79" font-size="9" fill="#555">GT</text><circle cx="940" cy="91" r="5" fill="#95a5a6" stroke="#333" stroke-width="1" stroke-dasharray="3,2" opacity="0.5"/><text x="950" y="95" font-size="9" fill="#555">Recon</text><line x1="934" y1="107" x2="946" y2="107" stroke="#e74c3c" stroke-width="1.5"/><text x="950" y="111" font-size="9" fill="#555">Distortion</text>
</svg>
