<svg xmlns="http://www.w3.org/2000/svg" xmlns:xlink="http://www.w3.org/1999/xlink" width="1030" height="415" viewBox="0 0 1030 415" style="font-family: 'Helvetica Neue', Arial, sans-serif;">
<rect width="1030" height="415" fill="#fafafa"/>

<text x="515" y="22" text-anchor="middle" font-size="14" font-weight="bold" fill="#2c3e50">Scene: n05_000004 | qwen--qwen3-vl-235b-a22b-thinking</text>
<text x="515" y="42" text-anchor="middle" font-size="10" fill="#7f8c8d">CSR_QRR=0.267  |  CSR_TRR=0.133  |  NRMS=0.5031  |  τ=0.156  |  K=6</text>
<line x1="20.0" y1="65.0" x2="20.0" y2="385.0" stroke="#ecf0f1" stroke-width="0.5"/>
<line x1="20.0" y1="65.0" x2="340.0" y2="65.0" stroke="#ecf0f1" stroke-width="0.5"/>
<line x1="84.0" y1="65.0" x2="84.0" y2="385.0" stroke="#ecf0f1" stroke-width="0.5"/>
<line x1="20.0" y1="129.0" x2="340.0" y2="129.0" stroke="#ecf0f1" stroke-width="0.5"/>
<line x1="148.0" y1="65.0" x2="148.0" y2="385.0" stroke="#ecf0f1" stroke-width="0.5"/>
<line x1="20.0" y1="193.0" x2="340.0" y2="193.0" stroke="#ecf0f1" stroke-width="0.5"/>
<line x1="212.0" y1="65.0" x2="212.0" y2="385.0" stroke="#ecf0f1" stroke-width="0.5"/>
<line x1="20.0" y1="257.0" x2="340.0" y2="257.0" stroke="#ecf0f1" stroke-width="0.5"/>
<line x1="276.0" y1="65.0" x2="276.0" y2="385.0" stroke="#ecf0f1" stroke-width="0.5"/>
<line x1="20.0" y1="321.0" x2="340.0" y2="321.0" stroke="#ecf0f1" stroke-width="0.5"/>
<line x1="340.0" y1="65.0" x2="340.0" y2="385.0" stroke="#ecf0f1" stroke-width="0.5"/>
<line x1="20.0" y1="385.0" x2="340.0" y2="385.0" stroke="#ecf0f1" stroke-width="0.5"/>
<rect x="20.0" y="65.0" width="320.0" height="320.0" fill="none" stroke="#ddd" stroke-width="1"/>
<text x="180" y="60" text-anchor="middle" font-size="12" font-weight="bold" fill="#2c3e50">Ground Truth</text>
<defs><radialGradient id="grad_obj_0" cx="35%" cy="35%"><stop offset="0%" stop-color="white" stop-opacity="0.4"/><stop offset="100%" stop-color="#a0785a" stop-opacity="0"/></radialGradient></defs>

<circle cx="117.1" cy="321.1" r="18" fill="#a0785a" stroke="#8b6545" stroke-width="2.0" opacity="1.0"/>
<circle cx="117.1" cy="321.1" r="18" fill="url(#grad_obj_0)" opacity="1.0"/>
<text x="117.1" y="298.1" text-anchor="middle" font-size="10" fill="#333" opacity="1.0">obj_0</text>

<circle cx="143.9" cy="118.2" r="18" fill="#f1c40f" stroke="#d4ac0f" stroke-width="2.0" opacity="0.85"/>
<text x="143.9" y="95.2" text-anchor="middle" font-size="10" fill="#333" opacity="1.0">obj_1</text>

<circle cx="55.0" cy="153.2" r="18" fill="#f1c40f" stroke="#d4ac0f" stroke-width="2.0" opacity="0.85"/>
<text x="55.0" y="130.2" text-anchor="middle" font-size="10" fill="#333" opacity="1.0">obj_2</text>

<circle cx="304.6" cy="331.8" r="12" fill="#f1c40f" stroke="#d4ac0f" stroke-width="2.0" opacity="0.85"/>
<text x="304.6" y="314.8" text-anchor="middle" font-size="10" fill="#333" opacity="1.0">obj_3</text>

<rect x="289.7" y="198.1" width="30.6" height="30.6" rx="3" ry="3" fill="#95a5a6" stroke="#7f8c8d" stroke-width="2.0" opacity="0.85"/>
<text x="305.0" y="190.4" text-anchor="middle" font-size="10" fill="#333" opacity="1.0">obj_4</text>
<line x1="355.0" y1="65.0" x2="355.0" y2="385.0" stroke="#ecf0f1" stroke-width="0.5"/>
<line x1="355.0" y1="65.0" x2="675.0" y2="65.0" stroke="#ecf0f1" stroke-width="0.5"/>
<line x1="419.0" y1="65.0" x2="419.0" y2="385.0" stroke="#ecf0f1" stroke-width="0.5"/>
<line x1="355.0" y1="129.0" x2="675.0" y2="129.0" stroke="#ecf0f1" stroke-width="0.5"/>
<line x1="483.0" y1="65.0" x2="483.0" y2="385.0" stroke="#ecf0f1" stroke-width="0.5"/>
<line x1="355.0" y1="193.0" x2="675.0" y2="193.0" stroke="#ecf0f1" stroke-width="0.5"/>
<line x1="547.0" y1="65.0" x2="547.0" y2="385.0" stroke="#ecf0f1" stroke-width="0.5"/>
<line x1="355.0" y1="257.0" x2="675.0" y2="257.0" stroke="#ecf0f1" stroke-width="0.5"/>
<line x1="611.0" y1="65.0" x2="611.0" y2="385.0" stroke="#ecf0f1" stroke-width="0.5"/>
<line x1="355.0" y1="321.0" x2="675.0" y2="321.0" stroke="#ecf0f1" stroke-width="0.5"/>
<line x1="675.0" y1="65.0" x2="675.0" y2="385.0" stroke="#ecf0f1" stroke-width="0.5"/>
<line x1="355.0" y1="385.0" x2="675.0" y2="385.0" stroke="#ecf0f1" stroke-width="0.5"/>
<rect x="355.0" y="65.0" width="320.0" height="320.0" fill="none" stroke="#ddd" stroke-width="1"/>
<text x="515" y="60" text-anchor="middle" font-size="12" font-weight="bold" fill="#2c3e50">Reconstructed</text>
<defs><radialGradient id="grad_obj_0" cx="35%" cy="35%"><stop offset="0%" stop-color="white" stop-opacity="0.4"/><stop offset="100%" stop-color="#a0785a" stop-opacity="0"/></radialGradient></defs>

<circle cx="390.0" cy="348.1" r="18" fill="#a0785a" stroke="#8b6545" stroke-width="2.0" opacity="1.0"/>
<circle cx="390.0" cy="348.1" r="18" fill="url(#grad_obj_0)" opacity="1.0"/>
<text x="390.0" y="325.1" text-anchor="middle" font-size="10" fill="#333" opacity="1.0">obj_0</text>

<circle cx="635.2" cy="177.5" r="18" fill="#f1c40f" stroke="#d4ac0f" stroke-width="2.0" opacity="0.85"/>
<text x="635.2" y="154.5" text-anchor="middle" font-size="10" fill="#333" opacity="1.0">obj_1</text>

<circle cx="640.0" cy="138.8" r="18" fill="#f1c40f" stroke="#d4ac0f" stroke-width="2.0" opacity="0.85"/>
<text x="640.0" y="115.8" text-anchor="middle" font-size="10" fill="#333" opacity="1.0">obj_2</text>

<circle cx="620.2" cy="101.9" r="12" fill="#f1c40f" stroke="#d4ac0f" stroke-width="2.0" opacity="0.85"/>
<text x="620.2" y="84.9" text-anchor="middle" font-size="10" fill="#333" opacity="1.0">obj_3</text>

<rect x="606.3" y="86.7" width="30.6" height="30.6" rx="3" ry="3" fill="#95a5a6" stroke="#7f8c8d" stroke-width="2.0" opacity="0.85"/>
<text x="621.6" y="79.0" text-anchor="middle" font-size="10" fill="#333" opacity="1.0">obj_4</text>
<line x1="690.0" y1="65.0" x2="690.0" y2="385.0" stroke="#ecf0f1" stroke-width="0.5"/>
<line x1="690.0" y1="65.0" x2="1010.0" y2="65.0" stroke="#ecf0f1" stroke-width="0.5"/>
<line x1="754.0" y1="65.0" x2="754.0" y2="385.0" stroke="#ecf0f1" stroke-width="0.5"/>
<line x1="690.0" y1="129.0" x2="1010.0" y2="129.0" stroke="#ecf0f1" stroke-width="0.5"/>
<line x1="818.0" y1="65.0" x2="818.0" y2="385.0" stroke="#ecf0f1" stroke-width="0.5"/>
<line x1="690.0" y1="193.0" x2="1010.0" y2="193.0" stroke="#ecf0f1" stroke-width="0.5"/>
<line x1="882.0" y1="65.0" x2="882.0" y2="385.0" stroke="#ecf0f1" stroke-width="0.5"/>
<line x1="690.0" y1="257.0" x2="1010.0" y2="257.0" stroke="#ecf0f1" stroke-width="0.5"/>
<line x1="946.0" y1="65.0" x2="946.0" y2="385.0" stroke="#ecf0f1" stroke-width="0.5"/>
<line x1="690.0" y1="321.0" x2="1010.0" y2="321.0" stroke="#ecf0f1" stroke-width="0.5"/>
<line x1="1010.0" y1="65.0" x2="1010.0" y2="385.0" stroke="#ecf0f1" stroke-width="0.5"/>
<line x1="690.0" y1="385.0" x2="1010.0" y2="385.0" stroke="#ecf0f1" stroke-width="0.5"/>
<rect x="690.0" y="65.0" width="320.0" height="320.0" fill="none" stroke="#ddd" stroke-width="1"/>
<text x="850" y="60" text-anchor="middle" font-size="12" font-weight="bold" fill="#2c3e50">Overlay (NRMS=0.642)</text>
<line x1="787.1" y1="321.1" x2="725.0" y2="348.1" stroke="#a0785a" stroke-width="1.8" opacity="0.7"/>
<polygon points="725.0,348.1 729.8,341.7 732.9,349.0" fill="#a0785a" opacity="0.7"/>
<line x1="813.9" y1="118.2" x2="970.2" y2="177.5" stroke="#f1c40f" stroke-width="1.8" opacity="0.7"/>
<polygon points="970.2,177.5 962.3,178.8 965.1,171.3" fill="#f1c40f" opacity="0.7"/>
<line x1="725.0" y1="153.2" x2="975.0" y2="138.8" stroke="#f1c40f" stroke-width="1.8" opacity="0.7"/>
<polygon points="975.0,138.8 968.3,143.2 967.9,135.2" fill="#f1c40f" opacity="0.7"/>
<line x1="974.6" y1="331.8" x2="955.2" y2="101.9" stroke="#f1c40f" stroke-width="1.8" opacity="0.7"/>
<polygon points="955.2,101.9 959.8,108.4 951.8,109.1" fill="#f1c40f" opacity="0.7"/>
<line x1="975.0" y1="213.4" x2="956.6" y2="102.0" stroke="#95a5a6" stroke-width="1.8" opacity="0.7"/>
<polygon points="956.6,102.0 961.7,108.2 953.8,109.5" fill="#95a5a6" opacity="0.7"/>
<defs><radialGradient id="grad_obj_0" cx="35%" cy="35%"><stop offset="0%" stop-color="white" stop-opacity="0.4"/><stop offset="100%" stop-color="#a0785a" stop-opacity="0"/></radialGradient></defs>

<circle cx="787.1" cy="321.1" r="18" fill="#a0785a" stroke="#8b6545" stroke-width="2.0" opacity="1.0"/>
<circle cx="787.1" cy="321.1" r="18" fill="url(#grad_obj_0)" opacity="1.0"/>
<text x="787.1" y="298.1" text-anchor="middle" font-size="10" fill="#333" opacity="1.0">obj_0</text>

<circle cx="813.9" cy="118.2" r="18" fill="#f1c40f" stroke="#d4ac0f" stroke-width="2.0" opacity="0.85"/>
<text x="813.9" y="95.2" text-anchor="middle" font-size="10" fill="#333" opacity="1.0">obj_1</text>

<circle cx="725.0" cy="153.2" r="18" fill="#f1c40f" stroke="#d4ac0f" stroke-width="2.0" opacity="0.85"/>
<text x="725.0" y="130.2" text-anchor="middle" font-size="10" fill="#333" opacity="1.0">obj_2</text>

<circle cx="974.6" cy="331.8" r="12" fill="#f1c40f" stroke="#d4ac0f" stroke-width="2.0" opacity="0.85"/>
<text x="974.6" y="314.8" text-anchor="middle" font-size="10" fill="#333" opacity="1.0">obj_3</text>

<rect x="959.7" y="198.1" width="30.6" height="30.6" rx="3" ry="3" fill="#95a5a6" stroke="#7f8c8d" stroke-width="2.0" opacity="0.85"/>
<text x="975.0" y="190.4" text-anchor="middle" font-size="10" fill="#333" opacity="1.0">obj_4</text>

<circle cx="725.0" cy="348.1" r="18" fill="#a0785a" stroke="#8b6545" stroke-width="1.0" stroke-dasharray="4,3" opacity="0.35"/>
<text x="725.0" y="325.1" text-anchor="middle" font-size="9" fill="#333" opacity="0.6499999999999999"></text>

<circle cx="970.2" cy="177.5" r="18" fill="#f1c40f" stroke="#d4ac0f" stroke-width="1.0" stroke-dasharray="4,3" opacity="0.2975"/>
<text x="970.2" y="154.5" text-anchor="middle" font-size="9" fill="#333" opacity="0.5974999999999999"></text>

<circle cx="975.0" cy="138.8" r="18" fill="#f1c40f" stroke="#d4ac0f" stroke-width="1.0" stroke-dasharray="4,3" opacity="0.2975"/>
<text x="975.0" y="115.8" text-anchor="middle" font-size="9" fill="#333" opacity="0.5974999999999999"></text>

<circle cx="955.2" cy="101.9" r="12" fill="#f1c40f" stroke="#d4ac0f" stroke-width="1.0" stroke-dasharray="4,3" opacity="0.2975"/>
<text x="955.2" y="84.9" text-anchor="middle" font-size="9" fill="#333" opacity="0.5974999999999999"></text>

<rect x="941.3" y="86.7" width="30.6" height="30.6" rx="3" ry="3" fill="#95a5a6" stroke="#7f8c8d" stroke-width="1.0" stroke-dasharray="4,3" opacity="0.2975"/>
<text x="956.6" y="79.0" text-anchor="middle" font-size="9" fill="#333" opacity="0.5974999999999999"></text>
<circle cx="940" cy="75" r="5" fill="#95a5a6" stroke="#333" stroke-width="1"/><text x="950" y="79" font-size="9" fill="#555">GT</text><circle cx="940" cy="91" r="5" fill="#95a5a6" stroke="#333" stroke-width="1" stroke-dasharray="3,2" opacity="0.5"/><text x="950" y="95" font-size="9" fill="#555">Recon</text><line x1="934" y1="107" x2="946" y2="107" stroke="#e74c3c" stroke-width="1.5"/><text x="950" y="111" font-size="9" fill="#555">Distortion</text>
</svg>
