<svg xmlns="http://www.w3.org/2000/svg" xmlns:xlink="http://www.w3.org/1999/xlink" width="1030" height="415" viewBox="0 0 1030 415" style="font-family: 'Helvetica Neue', Arial, sans-serif;">
<rect width="1030" height="415" fill="#fafafa"/>

<text x="515" y="22" text-anchor="middle" font-size="14" font-weight="bold" fill="#2c3e50">Scene: n05_000008 | qwen--qwen3-vl-235b-a22b-thinking</text>
<text x="515" y="42" text-anchor="middle" font-size="10" fill="#7f8c8d">CSR_QRR=0.357  |  CSR_TRR=0.067  |  NRMS=0.4587  |  τ=0.022  |  K=5</text>
<line x1="20.0" y1="65.0" x2="20.0" y2="385.0" stroke="#ecf0f1" stroke-width="0.5"/>
<line x1="20.0" y1="65.0" x2="340.0" y2="65.0" stroke="#ecf0f1" stroke-width="0.5"/>
<line x1="84.0" y1="65.0" x2="84.0" y2="385.0" stroke="#ecf0f1" stroke-width="0.5"/>
<line x1="20.0" y1="129.0" x2="340.0" y2="129.0" stroke="#ecf0f1" stroke-width="0.5"/>
<line x1="148.0" y1="65.0" x2="148.0" y2="385.0" stroke="#ecf0f1" stroke-width="0.5"/>
<line x1="20.0" y1="193.0" x2="340.0" y2="193.0" stroke="#ecf0f1" stroke-width="0.5"/>
<line x1="212.0" y1="65.0" x2="212.0" y2="385.0" stroke="#ecf0f1" stroke-width="0.5"/>
<line x1="20.0" y1="257.0" x2="340.0" y2="257.0" stroke="#ecf0f1" stroke-width="0.5"/>
<line x1="276.0" y1="65.0" x2="276.0" y2="385.0" stroke="#ecf0f1" stroke-width="0.5"/>
<line x1="20.0" y1="321.0" x2="340.0" y2="321.0" stroke="#ecf0f1" stroke-width="0.5"/>
<line x1="340.0" y1="65.0" x2="340.0" y2="385.0" stroke="#ecf0f1" stroke-width="0.5"/>
<line x1="20.0" y1="385.0" x2="340.0" y2="385.0" stroke="#ecf0f1" stroke-width="0.5"/>
<rect x="20.0" y="65.0" width="320.0" height="320.0" fill="none" stroke="#ddd" stroke-width="1"/>
<text x="180" y="60" text-anchor="middle" font-size="12" font-weight="bold" fill="#2c3e50">Ground Truth</text>
<defs><radialGradient id="grad_obj_0" cx="35%" cy="35%"><stop offset="0%" stop-color="white" stop-opacity="0.4"/><stop offset="100%" stop-color="#2ecc71" stop-opacity="0"/></radialGradient></defs>

<rect x="119.2" y="84.7" width="30.6" height="30.6" rx="3" ry="3" fill="#2ecc71" stroke="#27ae60" stroke-width="2.0" opacity="1.0"/>
<text x="134.5" y="77.0" text-anchor="middle" font-size="10" fill="#333" opacity="1.0">obj_0</text>
<defs><radialGradient id="grad_obj_1" cx="35%" cy="35%"><stop offset="0%" stop-color="white" stop-opacity="0.4"/><stop offset="100%" stop-color="#e74c3c" stop-opacity="0"/></radialGradient></defs>

<rect x="138.0" y="160.7" width="18.0" height="26.4" rx="9.0" ry="3.1" fill="#e74c3c" stroke="#c0392b" stroke-width="2.0" opacity="1.0"/>
<text x="147.0" y="156.9" text-anchor="middle" font-size="10" fill="#333" opacity="1.0">obj_1</text>

<rect x="90.8" y="334.7" width="30.6" height="30.6" rx="3" ry="3" fill="#f1c40f" stroke="#d4ac0f" stroke-width="2.0" opacity="0.85"/>
<text x="106.1" y="327.0" text-anchor="middle" font-size="10" fill="#333" opacity="1.0">obj_2</text>

<circle cx="209.0" cy="325.2" r="12" fill="#f1c40f" stroke="#d4ac0f" stroke-width="2.0" opacity="0.85"/>
<text x="209.0" y="308.2" text-anchor="middle" font-size="10" fill="#333" opacity="1.0">obj_3</text>
<defs><radialGradient id="grad_obj_4" cx="35%" cy="35%"><stop offset="0%" stop-color="white" stop-opacity="0.4"/><stop offset="100%" stop-color="#a0785a" stop-opacity="0"/></radialGradient></defs>

<circle cx="253.9" cy="323.1" r="12" fill="#a0785a" stroke="#8b6545" stroke-width="2.0" opacity="1.0"/>
<circle cx="253.9" cy="323.1" r="12" fill="url(#grad_obj_4)" opacity="1.0"/>
<text x="253.9" y="306.1" text-anchor="middle" font-size="10" fill="#333" opacity="1.0">obj_4</text>
<line x1="355.0" y1="65.0" x2="355.0" y2="385.0" stroke="#ecf0f1" stroke-width="0.5"/>
<line x1="355.0" y1="65.0" x2="675.0" y2="65.0" stroke="#ecf0f1" stroke-width="0.5"/>
<line x1="419.0" y1="65.0" x2="419.0" y2="385.0" stroke="#ecf0f1" stroke-width="0.5"/>
<line x1="355.0" y1="129.0" x2="675.0" y2="129.0" stroke="#ecf0f1" stroke-width="0.5"/>
<line x1="483.0" y1="65.0" x2="483.0" y2="385.0" stroke="#ecf0f1" stroke-width="0.5"/>
<line x1="355.0" y1="193.0" x2="675.0" y2="193.0" stroke="#ecf0f1" stroke-width="0.5"/>
<line x1="547.0" y1="65.0" x2="547.0" y2="385.0" stroke="#ecf0f1" stroke-width="0.5"/>
<line x1="355.0" y1="257.0" x2="675.0" y2="257.0" stroke="#ecf0f1" stroke-width="0.5"/>
<line x1="611.0" y1="65.0" x2="611.0" y2="385.0" stroke="#ecf0f1" stroke-width="0.5"/>
<line x1="355.0" y1="321.0" x2="675.0" y2="321.0" stroke="#ecf0f1" stroke-width="0.5"/>
<line x1="675.0" y1="65.0" x2="675.0" y2="385.0" stroke="#ecf0f1" stroke-width="0.5"/>
<line x1="355.0" y1="385.0" x2="675.0" y2="385.0" stroke="#ecf0f1" stroke-width="0.5"/>
<rect x="355.0" y="65.0" width="320.0" height="320.0" fill="none" stroke="#ddd" stroke-width="1"/>
<text x="515" y="60" text-anchor="middle" font-size="12" font-weight="bold" fill="#2c3e50">Reconstructed</text>
<defs><radialGradient id="grad_obj_0" cx="35%" cy="35%"><stop offset="0%" stop-color="white" stop-opacity="0.4"/><stop offset="100%" stop-color="#2ecc71" stop-opacity="0"/></radialGradient></defs>

<rect x="572.7" y="89.0" width="30.6" height="30.6" rx="3" ry="3" fill="#2ecc71" stroke="#27ae60" stroke-width="2.0" opacity="1.0"/>
<text x="588.0" y="81.3" text-anchor="middle" font-size="10" fill="#333" opacity="1.0">obj_0</text>
<defs><radialGradient id="grad_obj_1" cx="35%" cy="35%"><stop offset="0%" stop-color="white" stop-opacity="0.4"/><stop offset="100%" stop-color="#e74c3c" stop-opacity="0"/></radialGradient></defs>

<rect x="574.4" y="92.8" width="18.0" height="26.4" rx="9.0" ry="3.1" fill="#e74c3c" stroke="#c0392b" stroke-width="2.0" opacity="1.0"/>
<text x="583.4" y="89.0" text-anchor="middle" font-size="10" fill="#333" opacity="1.0">obj_1</text>

<rect x="426.7" y="334.7" width="30.6" height="30.6" rx="3" ry="3" fill="#f1c40f" stroke="#d4ac0f" stroke-width="2.0" opacity="0.85"/>
<text x="442.0" y="327.0" text-anchor="middle" font-size="10" fill="#333" opacity="1.0">obj_2</text>

<circle cx="554.4" cy="103.1" r="12" fill="#f1c40f" stroke="#d4ac0f" stroke-width="2.0" opacity="0.85"/>
<text x="554.4" y="86.1" text-anchor="middle" font-size="10" fill="#333" opacity="1.0">obj_3</text>
<defs><radialGradient id="grad_obj_4" cx="35%" cy="35%"><stop offset="0%" stop-color="white" stop-opacity="0.4"/><stop offset="100%" stop-color="#a0785a" stop-opacity="0"/></radialGradient></defs>

<circle cx="585.0" cy="100.0" r="12" fill="#a0785a" stroke="#8b6545" stroke-width="2.0" opacity="1.0"/>
<circle cx="585.0" cy="100.0" r="12" fill="url(#grad_obj_4)" opacity="1.0"/>
<text x="585.0" y="83.0" text-anchor="middle" font-size="10" fill="#333" opacity="1.0">obj_4</text>
<line x1="690.0" y1="65.0" x2="690.0" y2="385.0" stroke="#ecf0f1" stroke-width="0.5"/>
<line x1="690.0" y1="65.0" x2="1010.0" y2="65.0" stroke="#ecf0f1" stroke-width="0.5"/>
<line x1="754.0" y1="65.0" x2="754.0" y2="385.0" stroke="#ecf0f1" stroke-width="0.5"/>
<line x1="690.0" y1="129.0" x2="1010.0" y2="129.0" stroke="#ecf0f1" stroke-width="0.5"/>
<line x1="818.0" y1="65.0" x2="818.0" y2="385.0" stroke="#ecf0f1" stroke-width="0.5"/>
<line x1="690.0" y1="193.0" x2="1010.0" y2="193.0" stroke="#ecf0f1" stroke-width="0.5"/>
<line x1="882.0" y1="65.0" x2="882.0" y2="385.0" stroke="#ecf0f1" stroke-width="0.5"/>
<line x1="690.0" y1="257.0" x2="1010.0" y2="257.0" stroke="#ecf0f1" stroke-width="0.5"/>
<line x1="946.0" y1="65.0" x2="946.0" y2="385.0" stroke="#ecf0f1" stroke-width="0.5"/>
<line x1="690.0" y1="321.0" x2="1010.0" y2="321.0" stroke="#ecf0f1" stroke-width="0.5"/>
<line x1="1010.0" y1="65.0" x2="1010.0" y2="385.0" stroke="#ecf0f1" stroke-width="0.5"/>
<line x1="690.0" y1="385.0" x2="1010.0" y2="385.0" stroke="#ecf0f1" stroke-width="0.5"/>
<rect x="690.0" y="65.0" width="320.0" height="320.0" fill="none" stroke="#ddd" stroke-width="1"/>
<text x="850" y="60" text-anchor="middle" font-size="12" font-weight="bold" fill="#2c3e50">Overlay (NRMS=0.459)</text>
<line x1="804.5" y1="100.0" x2="923.0" y2="104.3" stroke="#2ecc71" stroke-width="1.8" opacity="0.7"/>
<polygon points="923.0,104.3 915.9,108.0 916.2,100.0" fill="#2ecc71" opacity="0.7"/>
<line x1="817.0" y1="173.9" x2="918.4" y2="106.0" stroke="#e74c3c" stroke-width="1.8" opacity="0.7"/>
<polygon points="918.4,106.0 914.9,113.2 910.5,106.5" fill="#e74c3c" opacity="0.7"/>

<line x1="879.0" y1="325.2" x2="889.4" y2="103.1" stroke="#f1c40f" stroke-width="1.8" opacity="0.7"/>
<polygon points="889.4,103.1 893.0,110.2 885.0,109.8" fill="#f1c40f" opacity="0.7"/>
<line x1="923.9" y1="323.1" x2="920.0" y2="100.0" stroke="#a0785a" stroke-width="1.8" opacity="0.7"/>
<polygon points="920.0,100.0 924.1,106.9 916.1,107.0" fill="#a0785a" opacity="0.7"/>
<defs><radialGradient id="grad_obj_0" cx="35%" cy="35%"><stop offset="0%" stop-color="white" stop-opacity="0.4"/><stop offset="100%" stop-color="#2ecc71" stop-opacity="0"/></radialGradient></defs>

<rect x="789.2" y="84.7" width="30.6" height="30.6" rx="3" ry="3" fill="#2ecc71" stroke="#27ae60" stroke-width="2.0" opacity="1.0"/>
<text x="804.5" y="77.0" text-anchor="middle" font-size="10" fill="#333" opacity="1.0">obj_0</text>
<defs><radialGradient id="grad_obj_1" cx="35%" cy="35%"><stop offset="0%" stop-color="white" stop-opacity="0.4"/><stop offset="100%" stop-color="#e74c3c" stop-opacity="0"/></radialGradient></defs>

<rect x="808.0" y="160.7" width="18.0" height="26.4" rx="9.0" ry="3.1" fill="#e74c3c" stroke="#c0392b" stroke-width="2.0" opacity="1.0"/>
<text x="817.0" y="156.9" text-anchor="middle" font-size="10" fill="#333" opacity="1.0">obj_1</text>

<rect x="760.8" y="334.7" width="30.6" height="30.6" rx="3" ry="3" fill="#f1c40f" stroke="#d4ac0f" stroke-width="2.0" opacity="0.85"/>
<text x="776.1" y="327.0" text-anchor="middle" font-size="10" fill="#333" opacity="1.0">obj_2</text>

<circle cx="879.0" cy="325.2" r="12" fill="#f1c40f" stroke="#d4ac0f" stroke-width="2.0" opacity="0.85"/>
<text x="879.0" y="308.2" text-anchor="middle" font-size="10" fill="#333" opacity="1.0">obj_3</text>
<defs><radialGradient id="grad_obj_4" cx="35%" cy="35%"><stop offset="0%" stop-color="white" stop-opacity="0.4"/><stop offset="100%" stop-color="#a0785a" stop-opacity="0"/></radialGradient></defs>

<circle cx="923.9" cy="323.1" r="12" fill="#a0785a" stroke="#8b6545" stroke-width="2.0" opacity="1.0"/>
<circle cx="923.9" cy="323.1" r="12" fill="url(#grad_obj_4)" opacity="1.0"/>
<text x="923.9" y="306.1" text-anchor="middle" font-size="10" fill="#333" opacity="1.0">obj_4</text>

<rect x="907.7" y="89.0" width="30.6" height="30.6" rx="3" ry="3" fill="#2ecc71" stroke="#27ae60" stroke-width="1.0" stroke-dasharray="4,3" opacity="0.35"/>
<text x="923.0" y="81.3" text-anchor="middle" font-size="9" fill="#333" opacity="0.6499999999999999"></text>

<rect x="909.4" y="92.8" width="18.0" height="26.4" rx="9.0" ry="3.1" fill="#e74c3c" stroke="#c0392b" stroke-width="1.0" stroke-dasharray="4,3" opacity="0.35"/>
<text x="918.4" y="89.0" text-anchor="middle" font-size="9" fill="#333" opacity="0.6499999999999999"></text>

<rect x="761.7" y="334.7" width="30.6" height="30.6" rx="3" ry="3" fill="#f1c40f" stroke="#d4ac0f" stroke-width="1.0" stroke-dasharray="4,3" opacity="0.2975"/>
<text x="777.0" y="327.0" text-anchor="middle" font-size="9" fill="#333" opacity="0.5974999999999999"></text>

<circle cx="889.4" cy="103.1" r="12" fill="#f1c40f" stroke="#d4ac0f" stroke-width="1.0" stroke-dasharray="4,3" opacity="0.2975"/>
<text x="889.4" y="86.1" text-anchor="middle" font-size="9" fill="#333" opacity="0.5974999999999999"></text>

<circle cx="920.0" cy="100.0" r="12" fill="#a0785a" stroke="#8b6545" stroke-width="1.0" stroke-dasharray="4,3" opacity="0.35"/>
<text x="920.0" y="83.0" text-anchor="middle" font-size="9" fill="#333" opacity="0.6499999999999999"></text>
<circle cx="940" cy="75" r="5" fill="#95a5a6" stroke="#333" stroke-width="1"/><text x="950" y="79" font-size="9" fill="#555">GT</text><circle cx="940" cy="91" r="5" fill="#95a5a6" stroke="#333" stroke-width="1" stroke-dasharray="3,2" opacity="0.5"/><text x="950" y="95" font-size="9" fill="#555">Recon</text><line x1="934" y1="107" x2="946" y2="107" stroke="#e74c3c" stroke-width="1.5"/><text x="950" y="111" font-size="9" fill="#555">Distortion</text>
</svg>
