<svg xmlns="http://www.w3.org/2000/svg" xmlns:xlink="http://www.w3.org/1999/xlink" width="1030" height="415" viewBox="0 0 1030 415" style="font-family: 'Helvetica Neue', Arial, sans-serif;">
<rect width="1030" height="415" fill="#fafafa"/>

<text x="515" y="22" text-anchor="middle" font-size="14" font-weight="bold" fill="#2c3e50">Scene: n06_000002 | qwen--qwen3-vl-235b-a22b-thinking</text>
<text x="515" y="42" text-anchor="middle" font-size="10" fill="#7f8c8d">CSR_QRR=0.571  |  CSR_TRR=0.158  |  NRMS=0.3311  |  τ=0.524  |  K=7</text>
<line x1="20.0" y1="65.0" x2="20.0" y2="385.0" stroke="#ecf0f1" stroke-width="0.5"/>
<line x1="20.0" y1="65.0" x2="340.0" y2="65.0" stroke="#ecf0f1" stroke-width="0.5"/>
<line x1="84.0" y1="65.0" x2="84.0" y2="385.0" stroke="#ecf0f1" stroke-width="0.5"/>
<line x1="20.0" y1="129.0" x2="340.0" y2="129.0" stroke="#ecf0f1" stroke-width="0.5"/>
<line x1="148.0" y1="65.0" x2="148.0" y2="385.0" stroke="#ecf0f1" stroke-width="0.5"/>
<line x1="20.0" y1="193.0" x2="340.0" y2="193.0" stroke="#ecf0f1" stroke-width="0.5"/>
<line x1="212.0" y1="65.0" x2="212.0" y2="385.0" stroke="#ecf0f1" stroke-width="0.5"/>
<line x1="20.0" y1="257.0" x2="340.0" y2="257.0" stroke="#ecf0f1" stroke-width="0.5"/>
<line x1="276.0" y1="65.0" x2="276.0" y2="385.0" stroke="#ecf0f1" stroke-width="0.5"/>
<line x1="20.0" y1="321.0" x2="340.0" y2="321.0" stroke="#ecf0f1" stroke-width="0.5"/>
<line x1="340.0" y1="65.0" x2="340.0" y2="385.0" stroke="#ecf0f1" stroke-width="0.5"/>
<line x1="20.0" y1="385.0" x2="340.0" y2="385.0" stroke="#ecf0f1" stroke-width="0.5"/>
<rect x="20.0" y="65.0" width="320.0" height="320.0" fill="none" stroke="#ddd" stroke-width="1"/>
<text x="180" y="60" text-anchor="middle" font-size="12" font-weight="bold" fill="#2c3e50">Ground Truth</text>
<defs><radialGradient id="grad_obj_0" cx="35%" cy="35%"><stop offset="0%" stop-color="white" stop-opacity="0.4"/><stop offset="100%" stop-color="#a0785a" stop-opacity="0"/></radialGradient></defs>

<rect x="103.1" y="103.5" width="30.6" height="30.6" rx="3" ry="3" fill="#a0785a" stroke="#8b6545" stroke-width="2.0" opacity="1.0"/>
<text x="118.4" y="95.8" text-anchor="middle" font-size="10" fill="#333" opacity="1.0">obj_0</text>
<defs><radialGradient id="grad_obj_1" cx="35%" cy="35%"><stop offset="0%" stop-color="white" stop-opacity="0.4"/><stop offset="100%" stop-color="#9b59b6" stop-opacity="0"/></radialGradient></defs>

<rect x="255.2" y="144.0" width="27.0" height="39.6" rx="13.5" ry="4.7" fill="#9b59b6" stroke="#8e44ad" stroke-width="2.0" opacity="1.0"/>
<text x="268.7" y="140.8" text-anchor="middle" font-size="10" fill="#333" opacity="1.0">obj_1</text>

<rect x="39.7" y="309.9" width="30.6" height="30.6" rx="3" ry="3" fill="#f1c40f" stroke="#d4ac0f" stroke-width="2.0" opacity="0.85"/>
<text x="55.0" y="302.2" text-anchor="middle" font-size="10" fill="#333" opacity="1.0">obj_2</text>

<rect x="264.9" y="229.8" width="27.0" height="39.6" rx="13.5" ry="4.7" fill="#a0785a" stroke="#8b6545" stroke-width="2.0" opacity="0.85"/>
<text x="278.4" y="226.6" text-anchor="middle" font-size="10" fill="#333" opacity="1.0">obj_3</text>

<circle cx="103.4" cy="196.8" r="18" fill="#2ecc71" stroke="#27ae60" stroke-width="2.0" opacity="0.85"/>
<text x="103.4" y="173.8" text-anchor="middle" font-size="10" fill="#333" opacity="1.0">obj_4</text>

<rect x="291.5" y="311.4" width="27.0" height="39.6" rx="13.5" ry="4.7" fill="#95a5a6" stroke="#7f8c8d" stroke-width="2.0" opacity="0.85"/>
<text x="305.0" y="308.2" text-anchor="middle" font-size="10" fill="#333" opacity="1.0">obj_5</text>
<line x1="355.0" y1="65.0" x2="355.0" y2="385.0" stroke="#ecf0f1" stroke-width="0.5"/>
<line x1="355.0" y1="65.0" x2="675.0" y2="65.0" stroke="#ecf0f1" stroke-width="0.5"/>
<line x1="419.0" y1="65.0" x2="419.0" y2="385.0" stroke="#ecf0f1" stroke-width="0.5"/>
<line x1="355.0" y1="129.0" x2="675.0" y2="129.0" stroke="#ecf0f1" stroke-width="0.5"/>
<line x1="483.0" y1="65.0" x2="483.0" y2="385.0" stroke="#ecf0f1" stroke-width="0.5"/>
<line x1="355.0" y1="193.0" x2="675.0" y2="193.0" stroke="#ecf0f1" stroke-width="0.5"/>
<line x1="547.0" y1="65.0" x2="547.0" y2="385.0" stroke="#ecf0f1" stroke-width="0.5"/>
<line x1="355.0" y1="257.0" x2="675.0" y2="257.0" stroke="#ecf0f1" stroke-width="0.5"/>
<line x1="611.0" y1="65.0" x2="611.0" y2="385.0" stroke="#ecf0f1" stroke-width="0.5"/>
<line x1="355.0" y1="321.0" x2="675.0" y2="321.0" stroke="#ecf0f1" stroke-width="0.5"/>
<line x1="675.0" y1="65.0" x2="675.0" y2="385.0" stroke="#ecf0f1" stroke-width="0.5"/>
<line x1="355.0" y1="385.0" x2="675.0" y2="385.0" stroke="#ecf0f1" stroke-width="0.5"/>
<rect x="355.0" y="65.0" width="320.0" height="320.0" fill="none" stroke="#ddd" stroke-width="1"/>
<text x="515" y="60" text-anchor="middle" font-size="12" font-weight="bold" fill="#2c3e50">Reconstructed</text>
<defs><radialGradient id="grad_obj_0" cx="35%" cy="35%"><stop offset="0%" stop-color="white" stop-opacity="0.4"/><stop offset="100%" stop-color="#a0785a" stop-opacity="0"/></radialGradient></defs>

<rect x="377.3" y="168.6" width="30.6" height="30.6" rx="3" ry="3" fill="#a0785a" stroke="#8b6545" stroke-width="2.0" opacity="1.0"/>
<text x="392.6" y="160.9" text-anchor="middle" font-size="10" fill="#333" opacity="1.0">obj_0</text>
<defs><radialGradient id="grad_obj_1" cx="35%" cy="35%"><stop offset="0%" stop-color="white" stop-opacity="0.4"/><stop offset="100%" stop-color="#9b59b6" stop-opacity="0"/></radialGradient></defs>

<rect x="521.7" y="246.3" width="27.0" height="39.6" rx="13.5" ry="4.7" fill="#9b59b6" stroke="#8e44ad" stroke-width="2.0" opacity="1.0"/>
<text x="535.2" y="243.1" text-anchor="middle" font-size="10" fill="#333" opacity="1.0">obj_1</text>

<rect x="374.7" y="193.7" width="30.6" height="30.6" rx="3" ry="3" fill="#f1c40f" stroke="#d4ac0f" stroke-width="2.0" opacity="0.85"/>
<text x="390.0" y="186.0" text-anchor="middle" font-size="10" fill="#333" opacity="1.0">obj_2</text>

<rect x="521.8" y="246.3" width="27.0" height="39.6" rx="13.5" ry="4.7" fill="#a0785a" stroke="#8b6545" stroke-width="2.0" opacity="0.85"/>
<text x="535.3" y="243.1" text-anchor="middle" font-size="10" fill="#333" opacity="1.0">obj_3</text>

<circle cx="399.1" cy="184.7" r="18" fill="#2ecc71" stroke="#27ae60" stroke-width="2.0" opacity="0.85"/>
<text x="399.1" y="161.7" text-anchor="middle" font-size="10" fill="#333" opacity="1.0">obj_4</text>

<rect x="626.5" y="222.4" width="27.0" height="39.6" rx="13.5" ry="4.7" fill="#95a5a6" stroke="#7f8c8d" stroke-width="2.0" opacity="0.85"/>
<text x="640.0" y="219.2" text-anchor="middle" font-size="10" fill="#333" opacity="1.0">obj_5</text>
<line x1="690.0" y1="65.0" x2="690.0" y2="385.0" stroke="#ecf0f1" stroke-width="0.5"/>
<line x1="690.0" y1="65.0" x2="1010.0" y2="65.0" stroke="#ecf0f1" stroke-width="0.5"/>
<line x1="754.0" y1="65.0" x2="754.0" y2="385.0" stroke="#ecf0f1" stroke-width="0.5"/>
<line x1="690.0" y1="129.0" x2="1010.0" y2="129.0" stroke="#ecf0f1" stroke-width="0.5"/>
<line x1="818.0" y1="65.0" x2="818.0" y2="385.0" stroke="#ecf0f1" stroke-width="0.5"/>
<line x1="690.0" y1="193.0" x2="1010.0" y2="193.0" stroke="#ecf0f1" stroke-width="0.5"/>
<line x1="882.0" y1="65.0" x2="882.0" y2="385.0" stroke="#ecf0f1" stroke-width="0.5"/>
<line x1="690.0" y1="257.0" x2="1010.0" y2="257.0" stroke="#ecf0f1" stroke-width="0.5"/>
<line x1="946.0" y1="65.0" x2="946.0" y2="385.0" stroke="#ecf0f1" stroke-width="0.5"/>
<line x1="690.0" y1="321.0" x2="1010.0" y2="321.0" stroke="#ecf0f1" stroke-width="0.5"/>
<line x1="1010.0" y1="65.0" x2="1010.0" y2="385.0" stroke="#ecf0f1" stroke-width="0.5"/>
<line x1="690.0" y1="385.0" x2="1010.0" y2="385.0" stroke="#ecf0f1" stroke-width="0.5"/>
<rect x="690.0" y="65.0" width="320.0" height="320.0" fill="none" stroke="#ddd" stroke-width="1"/>
<text x="850" y="60" text-anchor="middle" font-size="12" font-weight="bold" fill="#2c3e50">Overlay (NRMS=0.358)</text>
<line x1="788.4" y1="118.8" x2="727.6" y2="183.9" stroke="#a0785a" stroke-width="1.8" opacity="0.7"/>
<polygon points="727.6,183.9 729.4,176.1 735.2,181.6" fill="#a0785a" opacity="0.7"/>
<line x1="938.7" y1="163.8" x2="870.2" y2="266.1" stroke="#9b59b6" stroke-width="1.8" opacity="0.7"/>
<polygon points="870.2,266.1 870.8,258.1 877.4,262.6" fill="#9b59b6" opacity="0.7"/>
<line x1="725.0" y1="325.2" x2="725.0" y2="209.0" stroke="#f1c40f" stroke-width="1.8" opacity="0.7"/>
<polygon points="725.0,209.0 729.0,215.9 721.0,215.9" fill="#f1c40f" opacity="0.7"/>
<line x1="948.4" y1="249.6" x2="870.3" y2="266.1" stroke="#a0785a" stroke-width="1.8" opacity="0.7"/>
<polygon points="870.3,266.1 876.2,260.7 877.9,268.6" fill="#a0785a" opacity="0.7"/>
<line x1="773.4" y1="196.8" x2="734.1" y2="184.7" stroke="#2ecc71" stroke-width="1.8" opacity="0.7"/>
<polygon points="734.1,184.7 741.9,182.9 739.5,190.6" fill="#2ecc71" opacity="0.7"/>
<line x1="975.0" y1="331.2" x2="975.0" y2="242.2" stroke="#95a5a6" stroke-width="1.8" opacity="0.7"/>
<polygon points="975.0,242.2 979.0,249.1 971.0,249.1" fill="#95a5a6" opacity="0.7"/>
<defs><radialGradient id="grad_obj_0" cx="35%" cy="35%"><stop offset="0%" stop-color="white" stop-opacity="0.4"/><stop offset="100%" stop-color="#a0785a" stop-opacity="0"/></radialGradient></defs>

<rect x="773.1" y="103.5" width="30.6" height="30.6" rx="3" ry="3" fill="#a0785a" stroke="#8b6545" stroke-width="2.0" opacity="1.0"/>
<text x="788.4" y="95.8" text-anchor="middle" font-size="10" fill="#333" opacity="1.0">obj_0</text>
<defs><radialGradient id="grad_obj_1" cx="35%" cy="35%"><stop offset="0%" stop-color="white" stop-opacity="0.4"/><stop offset="100%" stop-color="#9b59b6" stop-opacity="0"/></radialGradient></defs>

<rect x="925.2" y="144.0" width="27.0" height="39.6" rx="13.5" ry="4.7" fill="#9b59b6" stroke="#8e44ad" stroke-width="2.0" opacity="1.0"/>
<text x="938.7" y="140.8" text-anchor="middle" font-size="10" fill="#333" opacity="1.0">obj_1</text>

<rect x="709.7" y="309.9" width="30.6" height="30.6" rx="3" ry="3" fill="#f1c40f" stroke="#d4ac0f" stroke-width="2.0" opacity="0.85"/>
<text x="725.0" y="302.2" text-anchor="middle" font-size="10" fill="#333" opacity="1.0">obj_2</text>

<rect x="934.9" y="229.8" width="27.0" height="39.6" rx="13.5" ry="4.7" fill="#a0785a" stroke="#8b6545" stroke-width="2.0" opacity="0.85"/>
<text x="948.4" y="226.6" text-anchor="middle" font-size="10" fill="#333" opacity="1.0">obj_3</text>

<circle cx="773.4" cy="196.8" r="18" fill="#2ecc71" stroke="#27ae60" stroke-width="2.0" opacity="0.85"/>
<text x="773.4" y="173.8" text-anchor="middle" font-size="10" fill="#333" opacity="1.0">obj_4</text>

<rect x="961.5" y="311.4" width="27.0" height="39.6" rx="13.5" ry="4.7" fill="#95a5a6" stroke="#7f8c8d" stroke-width="2.0" opacity="0.85"/>
<text x="975.0" y="308.2" text-anchor="middle" font-size="10" fill="#333" opacity="1.0">obj_5</text>

<rect x="712.3" y="168.6" width="30.6" height="30.6" rx="3" ry="3" fill="#a0785a" stroke="#8b6545" stroke-width="1.0" stroke-dasharray="4,3" opacity="0.35"/>
<text x="727.6" y="160.9" text-anchor="middle" font-size="9" fill="#333" opacity="0.6499999999999999"></text>

<rect x="856.7" y="246.3" width="27.0" height="39.6" rx="13.5" ry="4.7" fill="#9b59b6" stroke="#8e44ad" stroke-width="1.0" stroke-dasharray="4,3" opacity="0.35"/>
<text x="870.2" y="243.1" text-anchor="middle" font-size="9" fill="#333" opacity="0.6499999999999999"></text>

<rect x="709.7" y="193.7" width="30.6" height="30.6" rx="3" ry="3" fill="#f1c40f" stroke="#d4ac0f" stroke-width="1.0" stroke-dasharray="4,3" opacity="0.2975"/>
<text x="725.0" y="186.0" text-anchor="middle" font-size="9" fill="#333" opacity="0.5974999999999999"></text>

<rect x="856.8" y="246.3" width="27.0" height="39.6" rx="13.5" ry="4.7" fill="#a0785a" stroke="#8b6545" stroke-width="1.0" stroke-dasharray="4,3" opacity="0.2975"/>
<text x="870.3" y="243.1" text-anchor="middle" font-size="9" fill="#333" opacity="0.5974999999999999"></text>

<circle cx="734.1" cy="184.7" r="18" fill="#2ecc71" stroke="#27ae60" stroke-width="1.0" stroke-dasharray="4,3" opacity="0.2975"/>
<text x="734.1" y="161.7" text-anchor="middle" font-size="9" fill="#333" opacity="0.5974999999999999"></text>

<rect x="961.5" y="222.4" width="27.0" height="39.6" rx="13.5" ry="4.7" fill="#95a5a6" stroke="#7f8c8d" stroke-width="1.0" stroke-dasharray="4,3" opacity="0.2975"/>
<text x="975.0" y="219.2" text-anchor="middle" font-size="9" fill="#333" opacity="0.5974999999999999"></text>
<circle cx="940" cy="75" r="5" fill="#95a5a6" stroke="#333" stroke-width="1"/><text x="950" y="79" font-size="9" fill="#555">GT</text><circle cx="940" cy="91" r="5" fill="#95a5a6" stroke="#333" stroke-width="1" stroke-dasharray="3,2" opacity="0.5"/><text x="950" y="95" font-size="9" fill="#555">Recon</text><line x1="934" y1="107" x2="946" y2="107" stroke="#e74c3c" stroke-width="1.5"/><text x="950" y="111" font-size="9" fill="#555">Distortion</text>
</svg>
