<svg xmlns="http://www.w3.org/2000/svg" xmlns:xlink="http://www.w3.org/1999/xlink" width="1030" height="415" viewBox="0 0 1030 415" style="font-family: 'Helvetica Neue', Arial, sans-serif;">
<rect width="1030" height="415" fill="#fafafa"/>

<text x="515" y="22" text-anchor="middle" font-size="14" font-weight="bold" fill="#2c3e50">Scene: n06_000001 | qwen--qwen3-vl-235b-a22b-thinking</text>
<text x="515" y="42" text-anchor="middle" font-size="10" fill="#7f8c8d">CSR_QRR=0.692  |  CSR_TRR=0.592  |  NRMS=0.1997  |  τ=0.562  |  K=5</text>
<line x1="20.0" y1="65.0" x2="20.0" y2="385.0" stroke="#ecf0f1" stroke-width="0.5"/>
<line x1="20.0" y1="65.0" x2="340.0" y2="65.0" stroke="#ecf0f1" stroke-width="0.5"/>
<line x1="84.0" y1="65.0" x2="84.0" y2="385.0" stroke="#ecf0f1" stroke-width="0.5"/>
<line x1="20.0" y1="129.0" x2="340.0" y2="129.0" stroke="#ecf0f1" stroke-width="0.5"/>
<line x1="148.0" y1="65.0" x2="148.0" y2="385.0" stroke="#ecf0f1" stroke-width="0.5"/>
<line x1="20.0" y1="193.0" x2="340.0" y2="193.0" stroke="#ecf0f1" stroke-width="0.5"/>
<line x1="212.0" y1="65.0" x2="212.0" y2="385.0" stroke="#ecf0f1" stroke-width="0.5"/>
<line x1="20.0" y1="257.0" x2="340.0" y2="257.0" stroke="#ecf0f1" stroke-width="0.5"/>
<line x1="276.0" y1="65.0" x2="276.0" y2="385.0" stroke="#ecf0f1" stroke-width="0.5"/>
<line x1="20.0" y1="321.0" x2="340.0" y2="321.0" stroke="#ecf0f1" stroke-width="0.5"/>
<line x1="340.0" y1="65.0" x2="340.0" y2="385.0" stroke="#ecf0f1" stroke-width="0.5"/>
<line x1="20.0" y1="385.0" x2="340.0" y2="385.0" stroke="#ecf0f1" stroke-width="0.5"/>
<rect x="20.0" y="65.0" width="320.0" height="320.0" fill="none" stroke="#ddd" stroke-width="1"/>
<text x="180" y="60" text-anchor="middle" font-size="12" font-weight="bold" fill="#2c3e50">Ground Truth</text>

<rect x="39.7" y="252.4" width="30.6" height="30.6" rx="3" ry="3" fill="#e74c3c" stroke="#c0392b" stroke-width="2.0" opacity="0.85"/>
<text x="55.0" y="244.7" text-anchor="middle" font-size="10" fill="#333" opacity="1.0">obj_0</text>
<defs><radialGradient id="grad_obj_1" cx="35%" cy="35%"><stop offset="0%" stop-color="white" stop-opacity="0.4"/><stop offset="100%" stop-color="#1abc9c" stop-opacity="0"/></radialGradient></defs>

<rect x="201.2" y="321.3" width="20.4" height="20.4" rx="3" ry="3" fill="#1abc9c" stroke="#16a085" stroke-width="2.0" opacity="1.0"/>
<text x="211.4" y="314.5" text-anchor="middle" font-size="10" fill="#333" opacity="1.0">obj_1</text>

<circle cx="223.2" cy="146.7" r="18" fill="#f1c40f" stroke="#d4ac0f" stroke-width="2.0" opacity="0.85"/>
<text x="223.2" y="123.7" text-anchor="middle" font-size="10" fill="#333" opacity="1.0">obj_2</text>

<rect x="59.2" y="134.2" width="18.0" height="26.4" rx="9.0" ry="3.1" fill="#95a5a6" stroke="#7f8c8d" stroke-width="2.0" opacity="0.85"/>
<text x="68.2" y="130.4" text-anchor="middle" font-size="10" fill="#333" opacity="1.0">obj_3</text>
<defs><radialGradient id="grad_obj_4" cx="35%" cy="35%"><stop offset="0%" stop-color="white" stop-opacity="0.4"/><stop offset="100%" stop-color="#9b59b6" stop-opacity="0"/></radialGradient></defs>

<rect x="291.5" y="98.7" width="27.0" height="39.6" rx="13.5" ry="4.7" fill="#9b59b6" stroke="#8e44ad" stroke-width="2.0" opacity="1.0"/>
<text x="305.0" y="95.5" text-anchor="middle" font-size="10" fill="#333" opacity="1.0">obj_4</text>
<defs><radialGradient id="grad_obj_5" cx="35%" cy="35%"><stop offset="0%" stop-color="white" stop-opacity="0.4"/><stop offset="100%" stop-color="#e74c3c" stop-opacity="0"/></radialGradient></defs>

<rect x="222.6" y="250.9" width="27.0" height="39.6" rx="13.5" ry="4.7" fill="#e74c3c" stroke="#c0392b" stroke-width="2.0" opacity="1.0"/>
<text x="236.1" y="247.7" text-anchor="middle" font-size="10" fill="#333" opacity="1.0">obj_5</text>
<line x1="355.0" y1="65.0" x2="355.0" y2="385.0" stroke="#ecf0f1" stroke-width="0.5"/>
<line x1="355.0" y1="65.0" x2="675.0" y2="65.0" stroke="#ecf0f1" stroke-width="0.5"/>
<line x1="419.0" y1="65.0" x2="419.0" y2="385.0" stroke="#ecf0f1" stroke-width="0.5"/>
<line x1="355.0" y1="129.0" x2="675.0" y2="129.0" stroke="#ecf0f1" stroke-width="0.5"/>
<line x1="483.0" y1="65.0" x2="483.0" y2="385.0" stroke="#ecf0f1" stroke-width="0.5"/>
<line x1="355.0" y1="193.0" x2="675.0" y2="193.0" stroke="#ecf0f1" stroke-width="0.5"/>
<line x1="547.0" y1="65.0" x2="547.0" y2="385.0" stroke="#ecf0f1" stroke-width="0.5"/>
<line x1="355.0" y1="257.0" x2="675.0" y2="257.0" stroke="#ecf0f1" stroke-width="0.5"/>
<line x1="611.0" y1="65.0" x2="611.0" y2="385.0" stroke="#ecf0f1" stroke-width="0.5"/>
<line x1="355.0" y1="321.0" x2="675.0" y2="321.0" stroke="#ecf0f1" stroke-width="0.5"/>
<line x1="675.0" y1="65.0" x2="675.0" y2="385.0" stroke="#ecf0f1" stroke-width="0.5"/>
<line x1="355.0" y1="385.0" x2="675.0" y2="385.0" stroke="#ecf0f1" stroke-width="0.5"/>
<rect x="355.0" y="65.0" width="320.0" height="320.0" fill="none" stroke="#ddd" stroke-width="1"/>
<text x="515" y="60" text-anchor="middle" font-size="12" font-weight="bold" fill="#2c3e50">Reconstructed</text>

<rect x="400.9" y="201.5" width="30.6" height="30.6" rx="3" ry="3" fill="#e74c3c" stroke="#c0392b" stroke-width="2.0" opacity="0.85"/>
<text x="416.2" y="193.8" text-anchor="middle" font-size="10" fill="#333" opacity="1.0">obj_0</text>
<defs><radialGradient id="grad_obj_1" cx="35%" cy="35%"><stop offset="0%" stop-color="white" stop-opacity="0.4"/><stop offset="100%" stop-color="#1abc9c" stop-opacity="0"/></radialGradient></defs>

<rect x="595.2" y="331.4" width="20.4" height="20.4" rx="3" ry="3" fill="#1abc9c" stroke="#16a085" stroke-width="2.0" opacity="1.0"/>
<text x="605.4" y="324.6" text-anchor="middle" font-size="10" fill="#333" opacity="1.0">obj_1</text>

<circle cx="530.2" cy="217.6" r="18" fill="#f1c40f" stroke="#d4ac0f" stroke-width="2.0" opacity="0.85"/>
<text x="530.2" y="194.6" text-anchor="middle" font-size="10" fill="#333" opacity="1.0">obj_2</text>

<rect x="381.0" y="126.3" width="18.0" height="26.4" rx="9.0" ry="3.1" fill="#95a5a6" stroke="#7f8c8d" stroke-width="2.0" opacity="0.85"/>
<text x="390.0" y="122.5" text-anchor="middle" font-size="10" fill="#333" opacity="1.0">obj_3</text>
<defs><radialGradient id="grad_obj_4" cx="35%" cy="35%"><stop offset="0%" stop-color="white" stop-opacity="0.4"/><stop offset="100%" stop-color="#9b59b6" stop-opacity="0"/></radialGradient></defs>

<rect x="626.5" y="88.6" width="27.0" height="39.6" rx="13.5" ry="4.7" fill="#9b59b6" stroke="#8e44ad" stroke-width="2.0" opacity="1.0"/>
<text x="640.0" y="85.4" text-anchor="middle" font-size="10" fill="#333" opacity="1.0">obj_4</text>
<defs><radialGradient id="grad_obj_5" cx="35%" cy="35%"><stop offset="0%" stop-color="white" stop-opacity="0.4"/><stop offset="100%" stop-color="#e74c3c" stop-opacity="0"/></radialGradient></defs>

<rect x="591.9" y="321.7" width="27.0" height="39.6" rx="13.5" ry="4.7" fill="#e74c3c" stroke="#c0392b" stroke-width="2.0" opacity="1.0"/>
<text x="605.4" y="318.5" text-anchor="middle" font-size="10" fill="#333" opacity="1.0">obj_5</text>
<line x1="690.0" y1="65.0" x2="690.0" y2="385.0" stroke="#ecf0f1" stroke-width="0.5"/>
<line x1="690.0" y1="65.0" x2="1010.0" y2="65.0" stroke="#ecf0f1" stroke-width="0.5"/>
<line x1="754.0" y1="65.0" x2="754.0" y2="385.0" stroke="#ecf0f1" stroke-width="0.5"/>
<line x1="690.0" y1="129.0" x2="1010.0" y2="129.0" stroke="#ecf0f1" stroke-width="0.5"/>
<line x1="818.0" y1="65.0" x2="818.0" y2="385.0" stroke="#ecf0f1" stroke-width="0.5"/>
<line x1="690.0" y1="193.0" x2="1010.0" y2="193.0" stroke="#ecf0f1" stroke-width="0.5"/>
<line x1="882.0" y1="65.0" x2="882.0" y2="385.0" stroke="#ecf0f1" stroke-width="0.5"/>
<line x1="690.0" y1="257.0" x2="1010.0" y2="257.0" stroke="#ecf0f1" stroke-width="0.5"/>
<line x1="946.0" y1="65.0" x2="946.0" y2="385.0" stroke="#ecf0f1" stroke-width="0.5"/>
<line x1="690.0" y1="321.0" x2="1010.0" y2="321.0" stroke="#ecf0f1" stroke-width="0.5"/>
<line x1="1010.0" y1="65.0" x2="1010.0" y2="385.0" stroke="#ecf0f1" stroke-width="0.5"/>
<line x1="690.0" y1="385.0" x2="1010.0" y2="385.0" stroke="#ecf0f1" stroke-width="0.5"/>
<rect x="690.0" y="65.0" width="320.0" height="320.0" fill="none" stroke="#ddd" stroke-width="1"/>
<text x="850" y="60" text-anchor="middle" font-size="12" font-weight="bold" fill="#2c3e50">Overlay (NRMS=0.200)</text>
<line x1="725.0" y1="267.7" x2="751.2" y2="216.8" stroke="#e74c3c" stroke-width="1.8" opacity="0.7"/>
<polygon points="751.2,216.8 751.5,224.8 744.4,221.2" fill="#e74c3c" opacity="0.7"/>
<line x1="881.4" y1="331.5" x2="940.4" y2="341.6" stroke="#1abc9c" stroke-width="1.8" opacity="0.7"/>
<polygon points="940.4,341.6 932.9,344.4 934.3,336.5" fill="#1abc9c" opacity="0.7"/>
<line x1="893.2" y1="146.7" x2="865.2" y2="217.6" stroke="#f1c40f" stroke-width="1.8" opacity="0.7"/>
<polygon points="865.2,217.6 864.0,209.6 871.5,212.6" fill="#f1c40f" opacity="0.7"/>
<line x1="738.2" y1="147.4" x2="725.0" y2="139.5" stroke="#95a5a6" stroke-width="1.8" opacity="0.7"/>
<polygon points="725.0,139.5 729.6,139.6 727.2,143.5" fill="#95a5a6" opacity="0.7"/>
<line x1="975.0" y1="118.5" x2="975.0" y2="108.4" stroke="#9b59b6" stroke-width="1.8" opacity="0.7"/>
<polygon points="975.0,108.4 976.5,111.0 973.5,111.0" fill="#9b59b6" opacity="0.7"/>
<line x1="906.1" y1="270.7" x2="940.4" y2="341.5" stroke="#e74c3c" stroke-width="1.8" opacity="0.7"/>
<polygon points="940.4,341.5 933.8,337.0 940.9,333.5" fill="#e74c3c" opacity="0.7"/>

<rect x="709.7" y="252.4" width="30.6" height="30.6" rx="3" ry="3" fill="#e74c3c" stroke="#c0392b" stroke-width="2.0" opacity="0.85"/>
<text x="725.0" y="244.7" text-anchor="middle" font-size="10" fill="#333" opacity="1.0">obj_0</text>
<defs><radialGradient id="grad_obj_1" cx="35%" cy="35%"><stop offset="0%" stop-color="white" stop-opacity="0.4"/><stop offset="100%" stop-color="#1abc9c" stop-opacity="0"/></radialGradient></defs>

<rect x="871.2" y="321.3" width="20.4" height="20.4" rx="3" ry="3" fill="#1abc9c" stroke="#16a085" stroke-width="2.0" opacity="1.0"/>
<text x="881.4" y="314.5" text-anchor="middle" font-size="10" fill="#333" opacity="1.0">obj_1</text>

<circle cx="893.2" cy="146.7" r="18" fill="#f1c40f" stroke="#d4ac0f" stroke-width="2.0" opacity="0.85"/>
<text x="893.2" y="123.7" text-anchor="middle" font-size="10" fill="#333" opacity="1.0">obj_2</text>

<rect x="729.2" y="134.2" width="18.0" height="26.4" rx="9.0" ry="3.1" fill="#95a5a6" stroke="#7f8c8d" stroke-width="2.0" opacity="0.85"/>
<text x="738.2" y="130.4" text-anchor="middle" font-size="10" fill="#333" opacity="1.0">obj_3</text>
<defs><radialGradient id="grad_obj_4" cx="35%" cy="35%"><stop offset="0%" stop-color="white" stop-opacity="0.4"/><stop offset="100%" stop-color="#9b59b6" stop-opacity="0"/></radialGradient></defs>

<rect x="961.5" y="98.7" width="27.0" height="39.6" rx="13.5" ry="4.7" fill="#9b59b6" stroke="#8e44ad" stroke-width="2.0" opacity="1.0"/>
<text x="975.0" y="95.5" text-anchor="middle" font-size="10" fill="#333" opacity="1.0">obj_4</text>
<defs><radialGradient id="grad_obj_5" cx="35%" cy="35%"><stop offset="0%" stop-color="white" stop-opacity="0.4"/><stop offset="100%" stop-color="#e74c3c" stop-opacity="0"/></radialGradient></defs>

<rect x="892.6" y="250.9" width="27.0" height="39.6" rx="13.5" ry="4.7" fill="#e74c3c" stroke="#c0392b" stroke-width="2.0" opacity="1.0"/>
<text x="906.1" y="247.7" text-anchor="middle" font-size="10" fill="#333" opacity="1.0">obj_5</text>

<rect x="735.9" y="201.5" width="30.6" height="30.6" rx="3" ry="3" fill="#e74c3c" stroke="#c0392b" stroke-width="1.0" stroke-dasharray="4,3" opacity="0.2975"/>
<text x="751.2" y="193.8" text-anchor="middle" font-size="9" fill="#333" opacity="0.5974999999999999"></text>

<rect x="930.2" y="331.4" width="20.4" height="20.4" rx="3" ry="3" fill="#1abc9c" stroke="#16a085" stroke-width="1.0" stroke-dasharray="4,3" opacity="0.35"/>
<text x="940.4" y="324.6" text-anchor="middle" font-size="9" fill="#333" opacity="0.6499999999999999"></text>

<circle cx="865.2" cy="217.6" r="18" fill="#f1c40f" stroke="#d4ac0f" stroke-width="1.0" stroke-dasharray="4,3" opacity="0.2975"/>
<text x="865.2" y="194.6" text-anchor="middle" font-size="9" fill="#333" opacity="0.5974999999999999"></text>

<rect x="716.0" y="126.3" width="18.0" height="26.4" rx="9.0" ry="3.1" fill="#95a5a6" stroke="#7f8c8d" stroke-width="1.0" stroke-dasharray="4,3" opacity="0.2975"/>
<text x="725.0" y="122.5" text-anchor="middle" font-size="9" fill="#333" opacity="0.5974999999999999"></text>

<rect x="961.5" y="88.6" width="27.0" height="39.6" rx="13.5" ry="4.7" fill="#9b59b6" stroke="#8e44ad" stroke-width="1.0" stroke-dasharray="4,3" opacity="0.35"/>
<text x="975.0" y="85.4" text-anchor="middle" font-size="9" fill="#333" opacity="0.6499999999999999"></text>

<rect x="926.9" y="321.7" width="27.0" height="39.6" rx="13.5" ry="4.7" fill="#e74c3c" stroke="#c0392b" stroke-width="1.0" stroke-dasharray="4,3" opacity="0.35"/>
<text x="940.4" y="318.5" text-anchor="middle" font-size="9" fill="#333" opacity="0.6499999999999999"></text>
<circle cx="940" cy="75" r="5" fill="#95a5a6" stroke="#333" stroke-width="1"/><text x="950" y="79" font-size="9" fill="#555">GT</text><circle cx="940" cy="91" r="5" fill="#95a5a6" stroke="#333" stroke-width="1" stroke-dasharray="3,2" opacity="0.5"/><text x="950" y="95" font-size="9" fill="#555">Recon</text><line x1="934" y1="107" x2="946" y2="107" stroke="#e74c3c" stroke-width="1.5"/><text x="950" y="111" font-size="9" fill="#555">Distortion</text>
</svg>
