<svg xmlns="http://www.w3.org/2000/svg" xmlns:xlink="http://www.w3.org/1999/xlink" width="1030" height="415" viewBox="0 0 1030 415" style="font-family: 'Helvetica Neue', Arial, sans-serif;">
<rect width="1030" height="415" fill="#fafafa"/>

<text x="515" y="22" text-anchor="middle" font-size="14" font-weight="bold" fill="#2c3e50">Scene: n07_000003 | qwen--qwen3-vl-235b-a22b-thinking</text>
<text x="515" y="42" text-anchor="middle" font-size="10" fill="#7f8c8d">CSR_QRR=0.367  |  CSR_TRR=0.181  |  NRMS=0.5987  |  τ=-0.010  |  K=9</text>
<line x1="20.0" y1="65.0" x2="20.0" y2="385.0" stroke="#ecf0f1" stroke-width="0.5"/>
<line x1="20.0" y1="65.0" x2="340.0" y2="65.0" stroke="#ecf0f1" stroke-width="0.5"/>
<line x1="84.0" y1="65.0" x2="84.0" y2="385.0" stroke="#ecf0f1" stroke-width="0.5"/>
<line x1="20.0" y1="129.0" x2="340.0" y2="129.0" stroke="#ecf0f1" stroke-width="0.5"/>
<line x1="148.0" y1="65.0" x2="148.0" y2="385.0" stroke="#ecf0f1" stroke-width="0.5"/>
<line x1="20.0" y1="193.0" x2="340.0" y2="193.0" stroke="#ecf0f1" stroke-width="0.5"/>
<line x1="212.0" y1="65.0" x2="212.0" y2="385.0" stroke="#ecf0f1" stroke-width="0.5"/>
<line x1="20.0" y1="257.0" x2="340.0" y2="257.0" stroke="#ecf0f1" stroke-width="0.5"/>
<line x1="276.0" y1="65.0" x2="276.0" y2="385.0" stroke="#ecf0f1" stroke-width="0.5"/>
<line x1="20.0" y1="321.0" x2="340.0" y2="321.0" stroke="#ecf0f1" stroke-width="0.5"/>
<line x1="340.0" y1="65.0" x2="340.0" y2="385.0" stroke="#ecf0f1" stroke-width="0.5"/>
<line x1="20.0" y1="385.0" x2="340.0" y2="385.0" stroke="#ecf0f1" stroke-width="0.5"/>
<rect x="20.0" y="65.0" width="320.0" height="320.0" fill="none" stroke="#ddd" stroke-width="1"/>
<text x="180" y="60" text-anchor="middle" font-size="12" font-weight="bold" fill="#2c3e50">Ground Truth</text>

<circle cx="180.2" cy="176.1" r="12" fill="#a0785a" stroke="#8b6545" stroke-width="2.0" opacity="0.85"/>
<text x="180.2" y="159.1" text-anchor="middle" font-size="10" fill="#333" opacity="1.0">obj_0</text>
<defs><radialGradient id="grad_obj_1" cx="35%" cy="35%"><stop offset="0%" stop-color="white" stop-opacity="0.4"/><stop offset="100%" stop-color="#9b59b6" stop-opacity="0"/></radialGradient></defs>

<rect x="59.8" y="116.0" width="27.0" height="39.6" rx="13.5" ry="4.7" fill="#9b59b6" stroke="#8e44ad" stroke-width="2.0" opacity="1.0"/>
<text x="73.3" y="112.8" text-anchor="middle" font-size="10" fill="#333" opacity="1.0">obj_1</text>
<defs><radialGradient id="grad_obj_2" cx="35%" cy="35%"><stop offset="0%" stop-color="white" stop-opacity="0.4"/><stop offset="100%" stop-color="#95a5a6" stop-opacity="0"/></radialGradient></defs>

<rect x="277.7" y="238.0" width="18.0" height="26.4" rx="9.0" ry="3.1" fill="#95a5a6" stroke="#7f8c8d" stroke-width="2.0" opacity="1.0"/>
<text x="286.7" y="234.2" text-anchor="middle" font-size="10" fill="#333" opacity="1.0">obj_2</text>

<rect x="89.1" y="333.1" width="18.0" height="26.4" rx="9.0" ry="3.1" fill="#9b59b6" stroke="#8e44ad" stroke-width="2.0" opacity="0.85"/>
<text x="98.1" y="329.3" text-anchor="middle" font-size="10" fill="#333" opacity="1.0">obj_3</text>
<defs><radialGradient id="grad_obj_4" cx="35%" cy="35%"><stop offset="0%" stop-color="white" stop-opacity="0.4"/><stop offset="100%" stop-color="#2ecc71" stop-opacity="0"/></radialGradient></defs>

<circle cx="239.9" cy="350.0" r="12" fill="#2ecc71" stroke="#27ae60" stroke-width="2.0" opacity="1.0"/>
<circle cx="239.9" cy="350.0" r="12" fill="url(#grad_obj_4)" opacity="1.0"/>
<text x="239.9" y="333.0" text-anchor="middle" font-size="10" fill="#333" opacity="1.0">obj_4</text>

<rect x="166.3" y="304.1" width="30.6" height="30.6" rx="3" ry="3" fill="#e74c3c" stroke="#c0392b" stroke-width="2.0" opacity="0.85"/>
<text x="181.6" y="296.4" text-anchor="middle" font-size="10" fill="#333" opacity="1.0">obj_5</text>
<defs><radialGradient id="grad_obj_6" cx="35%" cy="35%"><stop offset="0%" stop-color="white" stop-opacity="0.4"/><stop offset="100%" stop-color="#9b59b6" stop-opacity="0"/></radialGradient></defs>

<rect x="210.3" y="89.8" width="20.4" height="20.4" rx="3" ry="3" fill="#9b59b6" stroke="#8e44ad" stroke-width="2.0" opacity="1.0"/>
<text x="220.5" y="83.0" text-anchor="middle" font-size="10" fill="#333" opacity="1.0">obj_6</text>
<line x1="355.0" y1="65.0" x2="355.0" y2="385.0" stroke="#ecf0f1" stroke-width="0.5"/>
<line x1="355.0" y1="65.0" x2="675.0" y2="65.0" stroke="#ecf0f1" stroke-width="0.5"/>
<line x1="419.0" y1="65.0" x2="419.0" y2="385.0" stroke="#ecf0f1" stroke-width="0.5"/>
<line x1="355.0" y1="129.0" x2="675.0" y2="129.0" stroke="#ecf0f1" stroke-width="0.5"/>
<line x1="483.0" y1="65.0" x2="483.0" y2="385.0" stroke="#ecf0f1" stroke-width="0.5"/>
<line x1="355.0" y1="193.0" x2="675.0" y2="193.0" stroke="#ecf0f1" stroke-width="0.5"/>
<line x1="547.0" y1="65.0" x2="547.0" y2="385.0" stroke="#ecf0f1" stroke-width="0.5"/>
<line x1="355.0" y1="257.0" x2="675.0" y2="257.0" stroke="#ecf0f1" stroke-width="0.5"/>
<line x1="611.0" y1="65.0" x2="611.0" y2="385.0" stroke="#ecf0f1" stroke-width="0.5"/>
<line x1="355.0" y1="321.0" x2="675.0" y2="321.0" stroke="#ecf0f1" stroke-width="0.5"/>
<line x1="675.0" y1="65.0" x2="675.0" y2="385.0" stroke="#ecf0f1" stroke-width="0.5"/>
<line x1="355.0" y1="385.0" x2="675.0" y2="385.0" stroke="#ecf0f1" stroke-width="0.5"/>
<rect x="355.0" y="65.0" width="320.0" height="320.0" fill="none" stroke="#ddd" stroke-width="1"/>
<text x="515" y="60" text-anchor="middle" font-size="12" font-weight="bold" fill="#2c3e50">Reconstructed</text>

<circle cx="404.5" cy="283.2" r="12" fill="#a0785a" stroke="#8b6545" stroke-width="2.0" opacity="0.85"/>
<text x="404.5" y="266.2" text-anchor="middle" font-size="10" fill="#333" opacity="1.0">obj_0</text>
<defs><radialGradient id="grad_obj_1" cx="35%" cy="35%"><stop offset="0%" stop-color="white" stop-opacity="0.4"/><stop offset="100%" stop-color="#9b59b6" stop-opacity="0"/></radialGradient></defs>

<rect x="376.5" y="233.9" width="27.0" height="39.6" rx="13.5" ry="4.7" fill="#9b59b6" stroke="#8e44ad" stroke-width="2.0" opacity="1.0"/>
<text x="390.0" y="230.7" text-anchor="middle" font-size="10" fill="#333" opacity="1.0">obj_1</text>
<defs><radialGradient id="grad_obj_2" cx="35%" cy="35%"><stop offset="0%" stop-color="white" stop-opacity="0.4"/><stop offset="100%" stop-color="#95a5a6" stop-opacity="0"/></radialGradient></defs>

<rect x="611.1" y="139.3" width="18.0" height="26.4" rx="9.0" ry="3.1" fill="#95a5a6" stroke="#7f8c8d" stroke-width="2.0" opacity="1.0"/>
<text x="620.1" y="135.5" text-anchor="middle" font-size="10" fill="#333" opacity="1.0">obj_2</text>

<rect x="613.4" y="150.5" width="18.0" height="26.4" rx="9.0" ry="3.1" fill="#9b59b6" stroke="#8e44ad" stroke-width="2.0" opacity="0.85"/>
<text x="622.4" y="146.7" text-anchor="middle" font-size="10" fill="#333" opacity="1.0">obj_3</text>
<defs><radialGradient id="grad_obj_4" cx="35%" cy="35%"><stop offset="0%" stop-color="white" stop-opacity="0.4"/><stop offset="100%" stop-color="#2ecc71" stop-opacity="0"/></radialGradient></defs>

<circle cx="421.7" cy="297.5" r="12" fill="#2ecc71" stroke="#27ae60" stroke-width="2.0" opacity="1.0"/>
<circle cx="421.7" cy="297.5" r="12" fill="url(#grad_obj_4)" opacity="1.0"/>
<text x="421.7" y="280.5" text-anchor="middle" font-size="10" fill="#333" opacity="1.0">obj_4</text>

<rect x="391.8" y="268.9" width="30.6" height="30.6" rx="3" ry="3" fill="#e74c3c" stroke="#c0392b" stroke-width="2.0" opacity="0.85"/>
<text x="407.1" y="261.2" text-anchor="middle" font-size="10" fill="#333" opacity="1.0">obj_5</text>
<defs><radialGradient id="grad_obj_6" cx="35%" cy="35%"><stop offset="0%" stop-color="white" stop-opacity="0.4"/><stop offset="100%" stop-color="#9b59b6" stop-opacity="0"/></radialGradient></defs>

<rect x="629.8" y="159.2" width="20.4" height="20.4" rx="3" ry="3" fill="#9b59b6" stroke="#8e44ad" stroke-width="2.0" opacity="1.0"/>
<text x="640.0" y="152.4" text-anchor="middle" font-size="10" fill="#333" opacity="1.0">obj_6</text>
<line x1="690.0" y1="65.0" x2="690.0" y2="385.0" stroke="#ecf0f1" stroke-width="0.5"/>
<line x1="690.0" y1="65.0" x2="1010.0" y2="65.0" stroke="#ecf0f1" stroke-width="0.5"/>
<line x1="754.0" y1="65.0" x2="754.0" y2="385.0" stroke="#ecf0f1" stroke-width="0.5"/>
<line x1="690.0" y1="129.0" x2="1010.0" y2="129.0" stroke="#ecf0f1" stroke-width="0.5"/>
<line x1="818.0" y1="65.0" x2="818.0" y2="385.0" stroke="#ecf0f1" stroke-width="0.5"/>
<line x1="690.0" y1="193.0" x2="1010.0" y2="193.0" stroke="#ecf0f1" stroke-width="0.5"/>
<line x1="882.0" y1="65.0" x2="882.0" y2="385.0" stroke="#ecf0f1" stroke-width="0.5"/>
<line x1="690.0" y1="257.0" x2="1010.0" y2="257.0" stroke="#ecf0f1" stroke-width="0.5"/>
<line x1="946.0" y1="65.0" x2="946.0" y2="385.0" stroke="#ecf0f1" stroke-width="0.5"/>
<line x1="690.0" y1="321.0" x2="1010.0" y2="321.0" stroke="#ecf0f1" stroke-width="0.5"/>
<line x1="1010.0" y1="65.0" x2="1010.0" y2="385.0" stroke="#ecf0f1" stroke-width="0.5"/>
<line x1="690.0" y1="385.0" x2="1010.0" y2="385.0" stroke="#ecf0f1" stroke-width="0.5"/>
<rect x="690.0" y="65.0" width="320.0" height="320.0" fill="none" stroke="#ddd" stroke-width="1"/>
<text x="850" y="60" text-anchor="middle" font-size="12" font-weight="bold" fill="#2c3e50">Overlay (NRMS=0.599)</text>
<line x1="850.2" y1="176.1" x2="739.5" y2="283.2" stroke="#a0785a" stroke-width="1.8" opacity="0.7"/>
<polygon points="739.5,283.2 741.7,275.5 747.2,281.2" fill="#a0785a" opacity="0.7"/>
<line x1="743.3" y1="135.8" x2="725.0" y2="253.7" stroke="#9b59b6" stroke-width="1.8" opacity="0.7"/>
<polygon points="725.0,253.7 722.1,246.3 730.0,247.5" fill="#9b59b6" opacity="0.7"/>
<line x1="956.7" y1="251.2" x2="955.1" y2="152.5" stroke="#95a5a6" stroke-width="1.8" opacity="0.7"/>
<polygon points="955.1,152.5 959.3,159.4 951.3,159.5" fill="#95a5a6" opacity="0.7"/>
<line x1="768.1" y1="346.3" x2="957.4" y2="163.7" stroke="#9b59b6" stroke-width="1.8" opacity="0.7"/>
<polygon points="957.4,163.7 955.2,171.4 949.6,165.7" fill="#9b59b6" opacity="0.7"/>
<line x1="909.9" y1="350.0" x2="756.7" y2="297.5" stroke="#2ecc71" stroke-width="1.8" opacity="0.7"/>
<polygon points="756.7,297.5 764.5,296.0 761.9,303.5" fill="#2ecc71" opacity="0.7"/>
<line x1="851.6" y1="319.4" x2="742.1" y2="284.2" stroke="#e74c3c" stroke-width="1.8" opacity="0.7"/>
<polygon points="742.1,284.2 749.9,282.5 747.4,290.1" fill="#e74c3c" opacity="0.7"/>
<line x1="890.5" y1="100.0" x2="975.0" y2="169.4" stroke="#9b59b6" stroke-width="1.8" opacity="0.7"/>
<polygon points="975.0,169.4 967.1,168.1 972.2,161.9" fill="#9b59b6" opacity="0.7"/>

<circle cx="850.2" cy="176.1" r="12" fill="#a0785a" stroke="#8b6545" stroke-width="2.0" opacity="0.85"/>
<text x="850.2" y="159.1" text-anchor="middle" font-size="10" fill="#333" opacity="1.0">obj_0</text>
<defs><radialGradient id="grad_obj_1" cx="35%" cy="35%"><stop offset="0%" stop-color="white" stop-opacity="0.4"/><stop offset="100%" stop-color="#9b59b6" stop-opacity="0"/></radialGradient></defs>

<rect x="729.8" y="116.0" width="27.0" height="39.6" rx="13.5" ry="4.7" fill="#9b59b6" stroke="#8e44ad" stroke-width="2.0" opacity="1.0"/>
<text x="743.3" y="112.8" text-anchor="middle" font-size="10" fill="#333" opacity="1.0">obj_1</text>
<defs><radialGradient id="grad_obj_2" cx="35%" cy="35%"><stop offset="0%" stop-color="white" stop-opacity="0.4"/><stop offset="100%" stop-color="#95a5a6" stop-opacity="0"/></radialGradient></defs>

<rect x="947.7" y="238.0" width="18.0" height="26.4" rx="9.0" ry="3.1" fill="#95a5a6" stroke="#7f8c8d" stroke-width="2.0" opacity="1.0"/>
<text x="956.7" y="234.2" text-anchor="middle" font-size="10" fill="#333" opacity="1.0">obj_2</text>

<rect x="759.1" y="333.1" width="18.0" height="26.4" rx="9.0" ry="3.1" fill="#9b59b6" stroke="#8e44ad" stroke-width="2.0" opacity="0.85"/>
<text x="768.1" y="329.3" text-anchor="middle" font-size="10" fill="#333" opacity="1.0">obj_3</text>
<defs><radialGradient id="grad_obj_4" cx="35%" cy="35%"><stop offset="0%" stop-color="white" stop-opacity="0.4"/><stop offset="100%" stop-color="#2ecc71" stop-opacity="0"/></radialGradient></defs>

<circle cx="909.9" cy="350.0" r="12" fill="#2ecc71" stroke="#27ae60" stroke-width="2.0" opacity="1.0"/>
<circle cx="909.9" cy="350.0" r="12" fill="url(#grad_obj_4)" opacity="1.0"/>
<text x="909.9" y="333.0" text-anchor="middle" font-size="10" fill="#333" opacity="1.0">obj_4</text>

<rect x="836.3" y="304.1" width="30.6" height="30.6" rx="3" ry="3" fill="#e74c3c" stroke="#c0392b" stroke-width="2.0" opacity="0.85"/>
<text x="851.6" y="296.4" text-anchor="middle" font-size="10" fill="#333" opacity="1.0">obj_5</text>
<defs><radialGradient id="grad_obj_6" cx="35%" cy="35%"><stop offset="0%" stop-color="white" stop-opacity="0.4"/><stop offset="100%" stop-color="#9b59b6" stop-opacity="0"/></radialGradient></defs>

<rect x="880.3" y="89.8" width="20.4" height="20.4" rx="3" ry="3" fill="#9b59b6" stroke="#8e44ad" stroke-width="2.0" opacity="1.0"/>
<text x="890.5" y="83.0" text-anchor="middle" font-size="10" fill="#333" opacity="1.0">obj_6</text>

<circle cx="739.5" cy="283.2" r="12" fill="#a0785a" stroke="#8b6545" stroke-width="1.0" stroke-dasharray="4,3" opacity="0.2975"/>
<text x="739.5" y="266.2" text-anchor="middle" font-size="9" fill="#333" opacity="0.5974999999999999"></text>

<rect x="711.5" y="233.9" width="27.0" height="39.6" rx="13.5" ry="4.7" fill="#9b59b6" stroke="#8e44ad" stroke-width="1.0" stroke-dasharray="4,3" opacity="0.35"/>
<text x="725.0" y="230.7" text-anchor="middle" font-size="9" fill="#333" opacity="0.6499999999999999"></text>

<rect x="946.1" y="139.3" width="18.0" height="26.4" rx="9.0" ry="3.1" fill="#95a5a6" stroke="#7f8c8d" stroke-width="1.0" stroke-dasharray="4,3" opacity="0.35"/>
<text x="955.1" y="135.5" text-anchor="middle" font-size="9" fill="#333" opacity="0.6499999999999999"></text>

<rect x="948.4" y="150.5" width="18.0" height="26.4" rx="9.0" ry="3.1" fill="#9b59b6" stroke="#8e44ad" stroke-width="1.0" stroke-dasharray="4,3" opacity="0.2975"/>
<text x="957.4" y="146.7" text-anchor="middle" font-size="9" fill="#333" opacity="0.5974999999999999"></text>

<circle cx="756.7" cy="297.5" r="12" fill="#2ecc71" stroke="#27ae60" stroke-width="1.0" stroke-dasharray="4,3" opacity="0.35"/>
<text x="756.7" y="280.5" text-anchor="middle" font-size="9" fill="#333" opacity="0.6499999999999999"></text>

<rect x="726.8" y="268.9" width="30.6" height="30.6" rx="3" ry="3" fill="#e74c3c" stroke="#c0392b" stroke-width="1.0" stroke-dasharray="4,3" opacity="0.2975"/>
<text x="742.1" y="261.2" text-anchor="middle" font-size="9" fill="#333" opacity="0.5974999999999999"></text>

<rect x="964.8" y="159.2" width="20.4" height="20.4" rx="3" ry="3" fill="#9b59b6" stroke="#8e44ad" stroke-width="1.0" stroke-dasharray="4,3" opacity="0.35"/>
<text x="975.0" y="152.4" text-anchor="middle" font-size="9" fill="#333" opacity="0.6499999999999999"></text>
<circle cx="940" cy="75" r="5" fill="#95a5a6" stroke="#333" stroke-width="1"/><text x="950" y="79" font-size="9" fill="#555">GT</text><circle cx="940" cy="91" r="5" fill="#95a5a6" stroke="#333" stroke-width="1" stroke-dasharray="3,2" opacity="0.5"/><text x="950" y="95" font-size="9" fill="#555">Recon</text><line x1="934" y1="107" x2="946" y2="107" stroke="#e74c3c" stroke-width="1.5"/><text x="950" y="111" font-size="9" fill="#555">Distortion</text>
</svg>
