<svg xmlns="http://www.w3.org/2000/svg" xmlns:xlink="http://www.w3.org/1999/xlink" width="1030" height="415" viewBox="0 0 1030 415" style="font-family: 'Helvetica Neue', Arial, sans-serif;">
<rect width="1030" height="415" fill="#fafafa"/>

<text x="515" y="22" text-anchor="middle" font-size="14" font-weight="bold" fill="#2c3e50">Scene: n05_000090 | doubao-seed-2_0-pro</text>
<text x="515" y="42" text-anchor="middle" font-size="10" fill="#7f8c8d">CSR_QRR=0.568  |  CSR_TRR=0.100  |  NRMS=0.4204  |  τ=0.200  |  K=7</text>
<line x1="20.0" y1="65.0" x2="20.0" y2="385.0" stroke="#ecf0f1" stroke-width="0.5"/>
<line x1="20.0" y1="65.0" x2="340.0" y2="65.0" stroke="#ecf0f1" stroke-width="0.5"/>
<line x1="84.0" y1="65.0" x2="84.0" y2="385.0" stroke="#ecf0f1" stroke-width="0.5"/>
<line x1="20.0" y1="129.0" x2="340.0" y2="129.0" stroke="#ecf0f1" stroke-width="0.5"/>
<line x1="148.0" y1="65.0" x2="148.0" y2="385.0" stroke="#ecf0f1" stroke-width="0.5"/>
<line x1="20.0" y1="193.0" x2="340.0" y2="193.0" stroke="#ecf0f1" stroke-width="0.5"/>
<line x1="212.0" y1="65.0" x2="212.0" y2="385.0" stroke="#ecf0f1" stroke-width="0.5"/>
<line x1="20.0" y1="257.0" x2="340.0" y2="257.0" stroke="#ecf0f1" stroke-width="0.5"/>
<line x1="276.0" y1="65.0" x2="276.0" y2="385.0" stroke="#ecf0f1" stroke-width="0.5"/>
<line x1="20.0" y1="321.0" x2="340.0" y2="321.0" stroke="#ecf0f1" stroke-width="0.5"/>
<line x1="340.0" y1="65.0" x2="340.0" y2="385.0" stroke="#ecf0f1" stroke-width="0.5"/>
<line x1="20.0" y1="385.0" x2="340.0" y2="385.0" stroke="#ecf0f1" stroke-width="0.5"/>
<rect x="20.0" y="65.0" width="320.0" height="320.0" fill="none" stroke="#ddd" stroke-width="1"/>
<text x="180" y="60" text-anchor="middle" font-size="12" font-weight="bold" fill="#2c3e50">Ground Truth</text>
<defs><radialGradient id="grad_obj_0" cx="35%" cy="35%"><stop offset="0%" stop-color="white" stop-opacity="0.4"/><stop offset="100%" stop-color="#2ecc71" stop-opacity="0"/></radialGradient></defs>

<rect x="46.0" y="224.1" width="18.0" height="26.4" rx="9.0" ry="3.1" fill="#2ecc71" stroke="#27ae60" stroke-width="2.0" opacity="1.0"/>
<text x="55.0" y="220.3" text-anchor="middle" font-size="10" fill="#333" opacity="1.0">obj_0</text>

<rect x="289.7" y="153.5" width="30.6" height="30.6" rx="3" ry="3" fill="#f1c40f" stroke="#d4ac0f" stroke-width="2.0" opacity="0.85"/>
<text x="305.0" y="145.8" text-anchor="middle" font-size="10" fill="#333" opacity="1.0">obj_1</text>
<defs><radialGradient id="grad_obj_2" cx="35%" cy="35%"><stop offset="0%" stop-color="white" stop-opacity="0.4"/><stop offset="100%" stop-color="#e74c3c" stop-opacity="0"/></radialGradient></defs>

<rect x="69.4" y="328.8" width="18.0" height="26.4" rx="9.0" ry="3.1" fill="#e74c3c" stroke="#c0392b" stroke-width="2.0" opacity="1.0"/>
<text x="78.4" y="325.0" text-anchor="middle" font-size="10" fill="#333" opacity="1.0">obj_2</text>
<defs><radialGradient id="grad_obj_3" cx="35%" cy="35%"><stop offset="0%" stop-color="white" stop-opacity="0.4"/><stop offset="100%" stop-color="#3498db" stop-opacity="0"/></radialGradient></defs>

<rect x="82.1" y="94.8" width="18.0" height="26.4" rx="9.0" ry="3.1" fill="#3498db" stroke="#2980b9" stroke-width="2.0" opacity="1.0"/>
<text x="91.1" y="91.0" text-anchor="middle" font-size="10" fill="#333" opacity="1.0">obj_3</text>

<rect x="99.9" y="207.5" width="20.4" height="20.4" rx="3" ry="3" fill="#9b59b6" stroke="#8e44ad" stroke-width="2.0" opacity="0.85"/>
<text x="110.1" y="200.7" text-anchor="middle" font-size="10" fill="#333" opacity="1.0">obj_4</text>
<line x1="355.0" y1="65.0" x2="355.0" y2="385.0" stroke="#ecf0f1" stroke-width="0.5"/>
<line x1="355.0" y1="65.0" x2="675.0" y2="65.0" stroke="#ecf0f1" stroke-width="0.5"/>
<line x1="419.0" y1="65.0" x2="419.0" y2="385.0" stroke="#ecf0f1" stroke-width="0.5"/>
<line x1="355.0" y1="129.0" x2="675.0" y2="129.0" stroke="#ecf0f1" stroke-width="0.5"/>
<line x1="483.0" y1="65.0" x2="483.0" y2="385.0" stroke="#ecf0f1" stroke-width="0.5"/>
<line x1="355.0" y1="193.0" x2="675.0" y2="193.0" stroke="#ecf0f1" stroke-width="0.5"/>
<line x1="547.0" y1="65.0" x2="547.0" y2="385.0" stroke="#ecf0f1" stroke-width="0.5"/>
<line x1="355.0" y1="257.0" x2="675.0" y2="257.0" stroke="#ecf0f1" stroke-width="0.5"/>
<line x1="611.0" y1="65.0" x2="611.0" y2="385.0" stroke="#ecf0f1" stroke-width="0.5"/>
<line x1="355.0" y1="321.0" x2="675.0" y2="321.0" stroke="#ecf0f1" stroke-width="0.5"/>
<line x1="675.0" y1="65.0" x2="675.0" y2="385.0" stroke="#ecf0f1" stroke-width="0.5"/>
<line x1="355.0" y1="385.0" x2="675.0" y2="385.0" stroke="#ecf0f1" stroke-width="0.5"/>
<rect x="355.0" y="65.0" width="320.0" height="320.0" fill="none" stroke="#ddd" stroke-width="1"/>
<text x="515" y="60" text-anchor="middle" font-size="12" font-weight="bold" fill="#2c3e50">Reconstructed</text>
<defs><radialGradient id="grad_obj_0" cx="35%" cy="35%"><stop offset="0%" stop-color="white" stop-opacity="0.4"/><stop offset="100%" stop-color="#2ecc71" stop-opacity="0"/></radialGradient></defs>

<rect x="389.4" y="135.3" width="18.0" height="26.4" rx="9.0" ry="3.1" fill="#2ecc71" stroke="#27ae60" stroke-width="2.0" opacity="1.0"/>
<text x="398.4" y="131.5" text-anchor="middle" font-size="10" fill="#333" opacity="1.0">obj_0</text>

<rect x="624.7" y="259.4" width="30.6" height="30.6" rx="3" ry="3" fill="#f1c40f" stroke="#d4ac0f" stroke-width="2.0" opacity="0.85"/>
<text x="640.0" y="251.7" text-anchor="middle" font-size="10" fill="#333" opacity="1.0">obj_1</text>
<defs><radialGradient id="grad_obj_2" cx="35%" cy="35%"><stop offset="0%" stop-color="white" stop-opacity="0.4"/><stop offset="100%" stop-color="#e74c3c" stop-opacity="0"/></radialGradient></defs>

<rect x="572.6" y="277.9" width="18.0" height="26.4" rx="9.0" ry="3.1" fill="#e74c3c" stroke="#c0392b" stroke-width="2.0" opacity="1.0"/>
<text x="581.6" y="274.1" text-anchor="middle" font-size="10" fill="#333" opacity="1.0">obj_2</text>
<defs><radialGradient id="grad_obj_3" cx="35%" cy="35%"><stop offset="0%" stop-color="white" stop-opacity="0.4"/><stop offset="100%" stop-color="#3498db" stop-opacity="0"/></radialGradient></defs>

<rect x="386.7" y="138.2" width="18.0" height="26.4" rx="9.0" ry="3.1" fill="#3498db" stroke="#2980b9" stroke-width="2.0" opacity="1.0"/>
<text x="395.7" y="134.4" text-anchor="middle" font-size="10" fill="#333" opacity="1.0">obj_3</text>

<rect x="379.8" y="291.3" width="20.4" height="20.4" rx="3" ry="3" fill="#9b59b6" stroke="#8e44ad" stroke-width="2.0" opacity="0.85"/>
<text x="390.0" y="284.5" text-anchor="middle" font-size="10" fill="#333" opacity="1.0">obj_4</text>
<line x1="690.0" y1="65.0" x2="690.0" y2="385.0" stroke="#ecf0f1" stroke-width="0.5"/>
<line x1="690.0" y1="65.0" x2="1010.0" y2="65.0" stroke="#ecf0f1" stroke-width="0.5"/>
<line x1="754.0" y1="65.0" x2="754.0" y2="385.0" stroke="#ecf0f1" stroke-width="0.5"/>
<line x1="690.0" y1="129.0" x2="1010.0" y2="129.0" stroke="#ecf0f1" stroke-width="0.5"/>
<line x1="818.0" y1="65.0" x2="818.0" y2="385.0" stroke="#ecf0f1" stroke-width="0.5"/>
<line x1="690.0" y1="193.0" x2="1010.0" y2="193.0" stroke="#ecf0f1" stroke-width="0.5"/>
<line x1="882.0" y1="65.0" x2="882.0" y2="385.0" stroke="#ecf0f1" stroke-width="0.5"/>
<line x1="690.0" y1="257.0" x2="1010.0" y2="257.0" stroke="#ecf0f1" stroke-width="0.5"/>
<line x1="946.0" y1="65.0" x2="946.0" y2="385.0" stroke="#ecf0f1" stroke-width="0.5"/>
<line x1="690.0" y1="321.0" x2="1010.0" y2="321.0" stroke="#ecf0f1" stroke-width="0.5"/>
<line x1="1010.0" y1="65.0" x2="1010.0" y2="385.0" stroke="#ecf0f1" stroke-width="0.5"/>
<line x1="690.0" y1="385.0" x2="1010.0" y2="385.0" stroke="#ecf0f1" stroke-width="0.5"/>
<rect x="690.0" y="65.0" width="320.0" height="320.0" fill="none" stroke="#ddd" stroke-width="1"/>
<text x="850" y="60" text-anchor="middle" font-size="12" font-weight="bold" fill="#2c3e50">Overlay (NRMS=0.420)</text>
<line x1="725.0" y1="237.3" x2="733.4" y2="148.5" stroke="#2ecc71" stroke-width="1.8" opacity="0.7"/>
<polygon points="733.4,148.5 736.7,155.8 728.7,155.0" fill="#2ecc71" opacity="0.7"/>
<line x1="975.0" y1="168.8" x2="975.0" y2="274.7" stroke="#f1c40f" stroke-width="1.8" opacity="0.7"/>
<polygon points="975.0,274.7 971.0,267.8 979.0,267.8" fill="#f1c40f" opacity="0.7"/>
<line x1="748.4" y1="342.0" x2="916.6" y2="291.1" stroke="#e74c3c" stroke-width="1.8" opacity="0.7"/>
<polygon points="916.6,291.1 911.1,297.0 908.8,289.3" fill="#e74c3c" opacity="0.7"/>
<line x1="761.1" y1="108.0" x2="730.7" y2="151.4" stroke="#3498db" stroke-width="1.8" opacity="0.7"/>
<polygon points="730.7,151.4 731.4,143.4 738.0,148.0" fill="#3498db" opacity="0.7"/>
<line x1="780.1" y1="217.7" x2="725.0" y2="301.5" stroke="#9b59b6" stroke-width="1.8" opacity="0.7"/>
<polygon points="725.0,301.5 725.5,293.5 732.2,297.9" fill="#9b59b6" opacity="0.7"/>
<defs><radialGradient id="grad_obj_0" cx="35%" cy="35%"><stop offset="0%" stop-color="white" stop-opacity="0.4"/><stop offset="100%" stop-color="#2ecc71" stop-opacity="0"/></radialGradient></defs>

<rect x="716.0" y="224.1" width="18.0" height="26.4" rx="9.0" ry="3.1" fill="#2ecc71" stroke="#27ae60" stroke-width="2.0" opacity="1.0"/>
<text x="725.0" y="220.3" text-anchor="middle" font-size="10" fill="#333" opacity="1.0">obj_0</text>

<rect x="959.7" y="153.5" width="30.6" height="30.6" rx="3" ry="3" fill="#f1c40f" stroke="#d4ac0f" stroke-width="2.0" opacity="0.85"/>
<text x="975.0" y="145.8" text-anchor="middle" font-size="10" fill="#333" opacity="1.0">obj_1</text>
<defs><radialGradient id="grad_obj_2" cx="35%" cy="35%"><stop offset="0%" stop-color="white" stop-opacity="0.4"/><stop offset="100%" stop-color="#e74c3c" stop-opacity="0"/></radialGradient></defs>

<rect x="739.4" y="328.8" width="18.0" height="26.4" rx="9.0" ry="3.1" fill="#e74c3c" stroke="#c0392b" stroke-width="2.0" opacity="1.0"/>
<text x="748.4" y="325.0" text-anchor="middle" font-size="10" fill="#333" opacity="1.0">obj_2</text>
<defs><radialGradient id="grad_obj_3" cx="35%" cy="35%"><stop offset="0%" stop-color="white" stop-opacity="0.4"/><stop offset="100%" stop-color="#3498db" stop-opacity="0"/></radialGradient></defs>

<rect x="752.1" y="94.8" width="18.0" height="26.4" rx="9.0" ry="3.1" fill="#3498db" stroke="#2980b9" stroke-width="2.0" opacity="1.0"/>
<text x="761.1" y="91.0" text-anchor="middle" font-size="10" fill="#333" opacity="1.0">obj_3</text>

<rect x="769.9" y="207.5" width="20.4" height="20.4" rx="3" ry="3" fill="#9b59b6" stroke="#8e44ad" stroke-width="2.0" opacity="0.85"/>
<text x="780.1" y="200.7" text-anchor="middle" font-size="10" fill="#333" opacity="1.0">obj_4</text>

<rect x="724.4" y="135.3" width="18.0" height="26.4" rx="9.0" ry="3.1" fill="#2ecc71" stroke="#27ae60" stroke-width="1.0" stroke-dasharray="4,3" opacity="0.35"/>
<text x="733.4" y="131.5" text-anchor="middle" font-size="9" fill="#333" opacity="0.6499999999999999"></text>

<rect x="959.7" y="259.4" width="30.6" height="30.6" rx="3" ry="3" fill="#f1c40f" stroke="#d4ac0f" stroke-width="1.0" stroke-dasharray="4,3" opacity="0.2975"/>
<text x="975.0" y="251.7" text-anchor="middle" font-size="9" fill="#333" opacity="0.5974999999999999"></text>

<rect x="907.6" y="277.9" width="18.0" height="26.4" rx="9.0" ry="3.1" fill="#e74c3c" stroke="#c0392b" stroke-width="1.0" stroke-dasharray="4,3" opacity="0.35"/>
<text x="916.6" y="274.1" text-anchor="middle" font-size="9" fill="#333" opacity="0.6499999999999999"></text>

<rect x="721.7" y="138.2" width="18.0" height="26.4" rx="9.0" ry="3.1" fill="#3498db" stroke="#2980b9" stroke-width="1.0" stroke-dasharray="4,3" opacity="0.35"/>
<text x="730.7" y="134.4" text-anchor="middle" font-size="9" fill="#333" opacity="0.6499999999999999"></text>

<rect x="714.8" y="291.3" width="20.4" height="20.4" rx="3" ry="3" fill="#9b59b6" stroke="#8e44ad" stroke-width="1.0" stroke-dasharray="4,3" opacity="0.2975"/>
<text x="725.0" y="284.5" text-anchor="middle" font-size="9" fill="#333" opacity="0.5974999999999999"></text>
<circle cx="940" cy="75" r="5" fill="#95a5a6" stroke="#333" stroke-width="1"/><text x="950" y="79" font-size="9" fill="#555">GT</text><circle cx="940" cy="91" r="5" fill="#95a5a6" stroke="#333" stroke-width="1" stroke-dasharray="3,2" opacity="0.5"/><text x="950" y="95" font-size="9" fill="#555">Recon</text><line x1="934" y1="107" x2="946" y2="107" stroke="#e74c3c" stroke-width="1.5"/><text x="950" y="111" font-size="9" fill="#555">Distortion</text>
</svg>
