<svg xmlns="http://www.w3.org/2000/svg" xmlns:xlink="http://www.w3.org/1999/xlink" width="1030" height="415" viewBox="0 0 1030 415" style="font-family: 'Helvetica Neue', Arial, sans-serif;">
<rect width="1030" height="415" fill="#fafafa"/>

<text x="515" y="22" text-anchor="middle" font-size="14" font-weight="bold" fill="#2c3e50">Scene: n04_000098 | gemini-3_1-pro-preview_multi_view</text>
<text x="515" y="42" text-anchor="middle" font-size="10" fill="#7f8c8d">CSR_QRR=0.533  |  CSR_TRR=0.833  |  NRMS=0.6473  |  τ=0.733  |  K=1</text>
<line x1="20.0" y1="65.0" x2="20.0" y2="385.0" stroke="#ecf0f1" stroke-width="0.5"/>
<line x1="20.0" y1="65.0" x2="340.0" y2="65.0" stroke="#ecf0f1" stroke-width="0.5"/>
<line x1="84.0" y1="65.0" x2="84.0" y2="385.0" stroke="#ecf0f1" stroke-width="0.5"/>
<line x1="20.0" y1="129.0" x2="340.0" y2="129.0" stroke="#ecf0f1" stroke-width="0.5"/>
<line x1="148.0" y1="65.0" x2="148.0" y2="385.0" stroke="#ecf0f1" stroke-width="0.5"/>
<line x1="20.0" y1="193.0" x2="340.0" y2="193.0" stroke="#ecf0f1" stroke-width="0.5"/>
<line x1="212.0" y1="65.0" x2="212.0" y2="385.0" stroke="#ecf0f1" stroke-width="0.5"/>
<line x1="20.0" y1="257.0" x2="340.0" y2="257.0" stroke="#ecf0f1" stroke-width="0.5"/>
<line x1="276.0" y1="65.0" x2="276.0" y2="385.0" stroke="#ecf0f1" stroke-width="0.5"/>
<line x1="20.0" y1="321.0" x2="340.0" y2="321.0" stroke="#ecf0f1" stroke-width="0.5"/>
<line x1="340.0" y1="65.0" x2="340.0" y2="385.0" stroke="#ecf0f1" stroke-width="0.5"/>
<line x1="20.0" y1="385.0" x2="340.0" y2="385.0" stroke="#ecf0f1" stroke-width="0.5"/>
<rect x="20.0" y="65.0" width="320.0" height="320.0" fill="none" stroke="#ddd" stroke-width="1"/>
<text x="180" y="60" text-anchor="middle" font-size="12" font-weight="bold" fill="#2c3e50">Ground Truth</text>

<rect x="146.7" y="89.8" width="20.4" height="20.4" rx="3" ry="3" fill="#e74c3c" stroke="#c0392b" stroke-width="2.0" opacity="0.85"/>
<text x="156.9" y="83.0" text-anchor="middle" font-size="10" fill="#333" opacity="1.0">obj_0</text>

<rect x="242.0" y="330.2" width="27.0" height="39.6" rx="13.5" ry="4.7" fill="#1abc9c" stroke="#16a085" stroke-width="2.0" opacity="0.85"/>
<text x="255.5" y="327.0" text-anchor="middle" font-size="10" fill="#333" opacity="1.0">obj_1</text>
<defs><radialGradient id="grad_obj_2" cx="35%" cy="35%"><stop offset="0%" stop-color="white" stop-opacity="0.4"/><stop offset="100%" stop-color="#95a5a6" stop-opacity="0"/></radialGradient></defs>

<rect x="258.9" y="107.0" width="27.0" height="39.6" rx="13.5" ry="4.7" fill="#95a5a6" stroke="#7f8c8d" stroke-width="2.0" opacity="1.0"/>
<text x="272.4" y="103.8" text-anchor="middle" font-size="10" fill="#333" opacity="1.0">obj_2</text>
<defs><radialGradient id="grad_obj_3" cx="35%" cy="35%"><stop offset="0%" stop-color="white" stop-opacity="0.4"/><stop offset="100%" stop-color="#3498db" stop-opacity="0"/></radialGradient></defs>

<circle cx="87.6" cy="258.2" r="18" fill="#3498db" stroke="#2980b9" stroke-width="2.0" opacity="1.0"/>
<circle cx="87.6" cy="258.2" r="18" fill="url(#grad_obj_3)" opacity="1.0"/>
<text x="87.6" y="235.2" text-anchor="middle" font-size="10" fill="#333" opacity="1.0">obj_3</text>
<line x1="355.0" y1="65.0" x2="355.0" y2="385.0" stroke="#ecf0f1" stroke-width="0.5"/>
<line x1="355.0" y1="65.0" x2="675.0" y2="65.0" stroke="#ecf0f1" stroke-width="0.5"/>
<line x1="419.0" y1="65.0" x2="419.0" y2="385.0" stroke="#ecf0f1" stroke-width="0.5"/>
<line x1="355.0" y1="129.0" x2="675.0" y2="129.0" stroke="#ecf0f1" stroke-width="0.5"/>
<line x1="483.0" y1="65.0" x2="483.0" y2="385.0" stroke="#ecf0f1" stroke-width="0.5"/>
<line x1="355.0" y1="193.0" x2="675.0" y2="193.0" stroke="#ecf0f1" stroke-width="0.5"/>
<line x1="547.0" y1="65.0" x2="547.0" y2="385.0" stroke="#ecf0f1" stroke-width="0.5"/>
<line x1="355.0" y1="257.0" x2="675.0" y2="257.0" stroke="#ecf0f1" stroke-width="0.5"/>
<line x1="611.0" y1="65.0" x2="611.0" y2="385.0" stroke="#ecf0f1" stroke-width="0.5"/>
<line x1="355.0" y1="321.0" x2="675.0" y2="321.0" stroke="#ecf0f1" stroke-width="0.5"/>
<line x1="675.0" y1="65.0" x2="675.0" y2="385.0" stroke="#ecf0f1" stroke-width="0.5"/>
<line x1="355.0" y1="385.0" x2="675.0" y2="385.0" stroke="#ecf0f1" stroke-width="0.5"/>
<rect x="355.0" y="65.0" width="320.0" height="320.0" fill="none" stroke="#ddd" stroke-width="1"/>
<text x="515" y="60" text-anchor="middle" font-size="12" font-weight="bold" fill="#2c3e50">Reconstructed</text>

<rect x="476.8" y="89.8" width="20.4" height="20.4" rx="3" ry="3" fill="#e74c3c" stroke="#c0392b" stroke-width="2.0" opacity="0.85"/>
<text x="487.0" y="83.0" text-anchor="middle" font-size="10" fill="#333" opacity="1.0">obj_0</text>

<rect x="502.6" y="330.2" width="27.0" height="39.6" rx="13.5" ry="4.7" fill="#1abc9c" stroke="#16a085" stroke-width="2.0" opacity="0.85"/>
<text x="516.1" y="327.0" text-anchor="middle" font-size="10" fill="#333" opacity="1.0">obj_1</text>
<defs><radialGradient id="grad_obj_2" cx="35%" cy="35%"><stop offset="0%" stop-color="white" stop-opacity="0.4"/><stop offset="100%" stop-color="#95a5a6" stop-opacity="0"/></radialGradient></defs>

<rect x="396.6" y="212.9" width="27.0" height="39.6" rx="13.5" ry="4.7" fill="#95a5a6" stroke="#7f8c8d" stroke-width="2.0" opacity="1.0"/>
<text x="410.1" y="209.7" text-anchor="middle" font-size="10" fill="#333" opacity="1.0">obj_2</text>
<defs><radialGradient id="grad_obj_3" cx="35%" cy="35%"><stop offset="0%" stop-color="white" stop-opacity="0.4"/><stop offset="100%" stop-color="#3498db" stop-opacity="0"/></radialGradient></defs>

<circle cx="619.9" cy="186.8" r="18" fill="#3498db" stroke="#2980b9" stroke-width="2.0" opacity="1.0"/>
<circle cx="619.9" cy="186.8" r="18" fill="url(#grad_obj_3)" opacity="1.0"/>
<text x="619.9" y="163.8" text-anchor="middle" font-size="10" fill="#333" opacity="1.0">obj_3</text>
<line x1="690.0" y1="65.0" x2="690.0" y2="385.0" stroke="#ecf0f1" stroke-width="0.5"/>
<line x1="690.0" y1="65.0" x2="1010.0" y2="65.0" stroke="#ecf0f1" stroke-width="0.5"/>
<line x1="754.0" y1="65.0" x2="754.0" y2="385.0" stroke="#ecf0f1" stroke-width="0.5"/>
<line x1="690.0" y1="129.0" x2="1010.0" y2="129.0" stroke="#ecf0f1" stroke-width="0.5"/>
<line x1="818.0" y1="65.0" x2="818.0" y2="385.0" stroke="#ecf0f1" stroke-width="0.5"/>
<line x1="690.0" y1="193.0" x2="1010.0" y2="193.0" stroke="#ecf0f1" stroke-width="0.5"/>
<line x1="882.0" y1="65.0" x2="882.0" y2="385.0" stroke="#ecf0f1" stroke-width="0.5"/>
<line x1="690.0" y1="257.0" x2="1010.0" y2="257.0" stroke="#ecf0f1" stroke-width="0.5"/>
<line x1="946.0" y1="65.0" x2="946.0" y2="385.0" stroke="#ecf0f1" stroke-width="0.5"/>
<line x1="690.0" y1="321.0" x2="1010.0" y2="321.0" stroke="#ecf0f1" stroke-width="0.5"/>
<line x1="1010.0" y1="65.0" x2="1010.0" y2="385.0" stroke="#ecf0f1" stroke-width="0.5"/>
<line x1="690.0" y1="385.0" x2="1010.0" y2="385.0" stroke="#ecf0f1" stroke-width="0.5"/>
<rect x="690.0" y="65.0" width="320.0" height="320.0" fill="none" stroke="#ddd" stroke-width="1"/>
<text x="850" y="60" text-anchor="middle" font-size="12" font-weight="bold" fill="#2c3e50">Overlay (NRMS=0.647)</text>
<line x1="826.9" y1="100.0" x2="822.0" y2="100.0" stroke="#e74c3c" stroke-width="1.8" opacity="0.7"/>
<polygon points="822.0,100.0 823.3,99.3 823.3,100.7" fill="#e74c3c" opacity="0.7"/>
<line x1="925.5" y1="350.0" x2="851.1" y2="350.0" stroke="#1abc9c" stroke-width="1.8" opacity="0.7"/>
<polygon points="851.1,350.0 858.0,346.0 858.0,354.0" fill="#1abc9c" opacity="0.7"/>
<line x1="942.4" y1="126.8" x2="745.1" y2="232.7" stroke="#95a5a6" stroke-width="1.8" opacity="0.7"/>
<polygon points="745.1,232.7 749.3,225.9 753.1,233.0" fill="#95a5a6" opacity="0.7"/>
<line x1="757.6" y1="258.2" x2="954.9" y2="186.8" stroke="#3498db" stroke-width="1.8" opacity="0.7"/>
<polygon points="954.9,186.8 949.7,192.9 947.0,185.4" fill="#3498db" opacity="0.7"/>

<rect x="816.7" y="89.8" width="20.4" height="20.4" rx="3" ry="3" fill="#e74c3c" stroke="#c0392b" stroke-width="2.0" opacity="0.85"/>
<text x="826.9" y="83.0" text-anchor="middle" font-size="10" fill="#333" opacity="1.0">obj_0</text>

<rect x="912.0" y="330.2" width="27.0" height="39.6" rx="13.5" ry="4.7" fill="#1abc9c" stroke="#16a085" stroke-width="2.0" opacity="0.85"/>
<text x="925.5" y="327.0" text-anchor="middle" font-size="10" fill="#333" opacity="1.0">obj_1</text>
<defs><radialGradient id="grad_obj_2" cx="35%" cy="35%"><stop offset="0%" stop-color="white" stop-opacity="0.4"/><stop offset="100%" stop-color="#95a5a6" stop-opacity="0"/></radialGradient></defs>

<rect x="928.9" y="107.0" width="27.0" height="39.6" rx="13.5" ry="4.7" fill="#95a5a6" stroke="#7f8c8d" stroke-width="2.0" opacity="1.0"/>
<text x="942.4" y="103.8" text-anchor="middle" font-size="10" fill="#333" opacity="1.0">obj_2</text>
<defs><radialGradient id="grad_obj_3" cx="35%" cy="35%"><stop offset="0%" stop-color="white" stop-opacity="0.4"/><stop offset="100%" stop-color="#3498db" stop-opacity="0"/></radialGradient></defs>

<circle cx="757.6" cy="258.2" r="18" fill="#3498db" stroke="#2980b9" stroke-width="2.0" opacity="1.0"/>
<circle cx="757.6" cy="258.2" r="18" fill="url(#grad_obj_3)" opacity="1.0"/>
<text x="757.6" y="235.2" text-anchor="middle" font-size="10" fill="#333" opacity="1.0">obj_3</text>

<rect x="811.8" y="89.8" width="20.4" height="20.4" rx="3" ry="3" fill="#e74c3c" stroke="#c0392b" stroke-width="1.0" stroke-dasharray="4,3" opacity="0.2975"/>
<text x="822.0" y="83.0" text-anchor="middle" font-size="9" fill="#333" opacity="0.5974999999999999"></text>

<rect x="837.6" y="330.2" width="27.0" height="39.6" rx="13.5" ry="4.7" fill="#1abc9c" stroke="#16a085" stroke-width="1.0" stroke-dasharray="4,3" opacity="0.2975"/>
<text x="851.1" y="327.0" text-anchor="middle" font-size="9" fill="#333" opacity="0.5974999999999999"></text>

<rect x="731.6" y="212.9" width="27.0" height="39.6" rx="13.5" ry="4.7" fill="#95a5a6" stroke="#7f8c8d" stroke-width="1.0" stroke-dasharray="4,3" opacity="0.35"/>
<text x="745.1" y="209.7" text-anchor="middle" font-size="9" fill="#333" opacity="0.6499999999999999"></text>

<circle cx="954.9" cy="186.8" r="18" fill="#3498db" stroke="#2980b9" stroke-width="1.0" stroke-dasharray="4,3" opacity="0.35"/>
<text x="954.9" y="163.8" text-anchor="middle" font-size="9" fill="#333" opacity="0.6499999999999999"></text>
<circle cx="940" cy="75" r="5" fill="#95a5a6" stroke="#333" stroke-width="1"/><text x="950" y="79" font-size="9" fill="#555">GT</text><circle cx="940" cy="91" r="5" fill="#95a5a6" stroke="#333" stroke-width="1" stroke-dasharray="3,2" opacity="0.5"/><text x="950" y="95" font-size="9" fill="#555">Recon</text><line x1="934" y1="107" x2="946" y2="107" stroke="#e74c3c" stroke-width="1.5"/><text x="950" y="111" font-size="9" fill="#555">Distortion</text>
</svg>
