<svg xmlns="http://www.w3.org/2000/svg" xmlns:xlink="http://www.w3.org/1999/xlink" width="1030" height="415" viewBox="0 0 1030 415" style="font-family: 'Helvetica Neue', Arial, sans-serif;">
<rect width="1030" height="415" fill="#fafafa"/>

<text x="515" y="22" text-anchor="middle" font-size="14" font-weight="bold" fill="#2c3e50">Scene: n04_000083 | gemini-3_1-pro-preview</text>
<text x="515" y="42" text-anchor="middle" font-size="10" fill="#7f8c8d">CSR_QRR=0.800  |  CSR_TRR=0.542  |  NRMS=0.1083  |  τ=0.867  |  K=1</text>
<line x1="20.0" y1="65.0" x2="20.0" y2="385.0" stroke="#ecf0f1" stroke-width="0.5"/>
<line x1="20.0" y1="65.0" x2="340.0" y2="65.0" stroke="#ecf0f1" stroke-width="0.5"/>
<line x1="84.0" y1="65.0" x2="84.0" y2="385.0" stroke="#ecf0f1" stroke-width="0.5"/>
<line x1="20.0" y1="129.0" x2="340.0" y2="129.0" stroke="#ecf0f1" stroke-width="0.5"/>
<line x1="148.0" y1="65.0" x2="148.0" y2="385.0" stroke="#ecf0f1" stroke-width="0.5"/>
<line x1="20.0" y1="193.0" x2="340.0" y2="193.0" stroke="#ecf0f1" stroke-width="0.5"/>
<line x1="212.0" y1="65.0" x2="212.0" y2="385.0" stroke="#ecf0f1" stroke-width="0.5"/>
<line x1="20.0" y1="257.0" x2="340.0" y2="257.0" stroke="#ecf0f1" stroke-width="0.5"/>
<line x1="276.0" y1="65.0" x2="276.0" y2="385.0" stroke="#ecf0f1" stroke-width="0.5"/>
<line x1="20.0" y1="321.0" x2="340.0" y2="321.0" stroke="#ecf0f1" stroke-width="0.5"/>
<line x1="340.0" y1="65.0" x2="340.0" y2="385.0" stroke="#ecf0f1" stroke-width="0.5"/>
<line x1="20.0" y1="385.0" x2="340.0" y2="385.0" stroke="#ecf0f1" stroke-width="0.5"/>
<rect x="20.0" y="65.0" width="320.0" height="320.0" fill="none" stroke="#ddd" stroke-width="1"/>
<text x="180" y="60" text-anchor="middle" font-size="12" font-weight="bold" fill="#2c3e50">Ground Truth</text>

<rect x="41.5" y="281.2" width="27.0" height="39.6" rx="13.5" ry="4.7" fill="#9b59b6" stroke="#8e44ad" stroke-width="2.0" opacity="0.85"/>
<text x="55.0" y="278.0" text-anchor="middle" font-size="10" fill="#333" opacity="1.0">obj_0</text>

<rect x="80.7" y="215.9" width="20.4" height="20.4" rx="3" ry="3" fill="#e74c3c" stroke="#c0392b" stroke-width="2.0" opacity="0.85"/>
<text x="90.9" y="209.1" text-anchor="middle" font-size="10" fill="#333" opacity="1.0">obj_1</text>
<defs><radialGradient id="grad_obj_2" cx="35%" cy="35%"><stop offset="0%" stop-color="white" stop-opacity="0.4"/><stop offset="100%" stop-color="#3498db" stop-opacity="0"/></radialGradient></defs>

<rect x="289.7" y="133.7" width="30.6" height="30.6" rx="3" ry="3" fill="#3498db" stroke="#2980b9" stroke-width="2.0" opacity="1.0"/>
<text x="305.0" y="126.0" text-anchor="middle" font-size="10" fill="#333" opacity="1.0">obj_2</text>

<circle cx="293.6" cy="247.1" r="18" fill="#3498db" stroke="#2980b9" stroke-width="2.0" opacity="0.85"/>
<text x="293.6" y="224.1" text-anchor="middle" font-size="10" fill="#333" opacity="1.0">obj_3</text>
<line x1="355.0" y1="65.0" x2="355.0" y2="385.0" stroke="#ecf0f1" stroke-width="0.5"/>
<line x1="355.0" y1="65.0" x2="675.0" y2="65.0" stroke="#ecf0f1" stroke-width="0.5"/>
<line x1="419.0" y1="65.0" x2="419.0" y2="385.0" stroke="#ecf0f1" stroke-width="0.5"/>
<line x1="355.0" y1="129.0" x2="675.0" y2="129.0" stroke="#ecf0f1" stroke-width="0.5"/>
<line x1="483.0" y1="65.0" x2="483.0" y2="385.0" stroke="#ecf0f1" stroke-width="0.5"/>
<line x1="355.0" y1="193.0" x2="675.0" y2="193.0" stroke="#ecf0f1" stroke-width="0.5"/>
<line x1="547.0" y1="65.0" x2="547.0" y2="385.0" stroke="#ecf0f1" stroke-width="0.5"/>
<line x1="355.0" y1="257.0" x2="675.0" y2="257.0" stroke="#ecf0f1" stroke-width="0.5"/>
<line x1="611.0" y1="65.0" x2="611.0" y2="385.0" stroke="#ecf0f1" stroke-width="0.5"/>
<line x1="355.0" y1="321.0" x2="675.0" y2="321.0" stroke="#ecf0f1" stroke-width="0.5"/>
<line x1="675.0" y1="65.0" x2="675.0" y2="385.0" stroke="#ecf0f1" stroke-width="0.5"/>
<line x1="355.0" y1="385.0" x2="675.0" y2="385.0" stroke="#ecf0f1" stroke-width="0.5"/>
<rect x="355.0" y="65.0" width="320.0" height="320.0" fill="none" stroke="#ddd" stroke-width="1"/>
<text x="515" y="60" text-anchor="middle" font-size="12" font-weight="bold" fill="#2c3e50">Reconstructed</text>

<rect x="376.5" y="242.3" width="27.0" height="39.6" rx="13.5" ry="4.7" fill="#9b59b6" stroke="#8e44ad" stroke-width="2.0" opacity="0.85"/>
<text x="390.0" y="239.1" text-anchor="middle" font-size="10" fill="#333" opacity="1.0">obj_0</text>

<rect x="441.3" y="293.9" width="20.4" height="20.4" rx="3" ry="3" fill="#e74c3c" stroke="#c0392b" stroke-width="2.0" opacity="0.85"/>
<text x="451.5" y="287.1" text-anchor="middle" font-size="10" fill="#333" opacity="1.0">obj_1</text>
<defs><radialGradient id="grad_obj_2" cx="35%" cy="35%"><stop offset="0%" stop-color="white" stop-opacity="0.4"/><stop offset="100%" stop-color="#3498db" stop-opacity="0"/></radialGradient></defs>

<rect x="624.7" y="230.7" width="30.6" height="30.6" rx="3" ry="3" fill="#3498db" stroke="#2980b9" stroke-width="2.0" opacity="1.0"/>
<text x="640.0" y="223.0" text-anchor="middle" font-size="10" fill="#333" opacity="1.0">obj_2</text>

<circle cx="534.3" cy="145.9" r="18" fill="#3498db" stroke="#2980b9" stroke-width="2.0" opacity="0.85"/>
<text x="534.3" y="122.9" text-anchor="middle" font-size="10" fill="#333" opacity="1.0">obj_3</text>
<line x1="690.0" y1="65.0" x2="690.0" y2="385.0" stroke="#ecf0f1" stroke-width="0.5"/>
<line x1="690.0" y1="65.0" x2="1010.0" y2="65.0" stroke="#ecf0f1" stroke-width="0.5"/>
<line x1="754.0" y1="65.0" x2="754.0" y2="385.0" stroke="#ecf0f1" stroke-width="0.5"/>
<line x1="690.0" y1="129.0" x2="1010.0" y2="129.0" stroke="#ecf0f1" stroke-width="0.5"/>
<line x1="818.0" y1="65.0" x2="818.0" y2="385.0" stroke="#ecf0f1" stroke-width="0.5"/>
<line x1="690.0" y1="193.0" x2="1010.0" y2="193.0" stroke="#ecf0f1" stroke-width="0.5"/>
<line x1="882.0" y1="65.0" x2="882.0" y2="385.0" stroke="#ecf0f1" stroke-width="0.5"/>
<line x1="690.0" y1="257.0" x2="1010.0" y2="257.0" stroke="#ecf0f1" stroke-width="0.5"/>
<line x1="946.0" y1="65.0" x2="946.0" y2="385.0" stroke="#ecf0f1" stroke-width="0.5"/>
<line x1="690.0" y1="321.0" x2="1010.0" y2="321.0" stroke="#ecf0f1" stroke-width="0.5"/>
<line x1="1010.0" y1="65.0" x2="1010.0" y2="385.0" stroke="#ecf0f1" stroke-width="0.5"/>
<line x1="690.0" y1="385.0" x2="1010.0" y2="385.0" stroke="#ecf0f1" stroke-width="0.5"/>
<rect x="690.0" y="65.0" width="320.0" height="320.0" fill="none" stroke="#ddd" stroke-width="1"/>
<text x="850" y="60" text-anchor="middle" font-size="12" font-weight="bold" fill="#2c3e50">Overlay (NRMS=0.396)</text>
<line x1="725.0" y1="301.0" x2="725.0" y2="262.1" stroke="#9b59b6" stroke-width="1.8" opacity="0.7"/>
<polygon points="725.0,262.1 729.0,269.1 721.0,269.1" fill="#9b59b6" opacity="0.7"/>
<line x1="760.9" y1="226.1" x2="786.5" y2="304.1" stroke="#e74c3c" stroke-width="1.8" opacity="0.7"/>
<polygon points="786.5,304.1 780.6,298.7 788.2,296.2" fill="#e74c3c" opacity="0.7"/>
<line x1="975.0" y1="149.0" x2="975.0" y2="246.0" stroke="#3498db" stroke-width="1.8" opacity="0.7"/>
<polygon points="975.0,246.0 971.0,239.0 979.0,239.0" fill="#3498db" opacity="0.7"/>
<line x1="963.6" y1="247.1" x2="869.3" y2="145.9" stroke="#3498db" stroke-width="1.8" opacity="0.7"/>
<polygon points="869.3,145.9 876.9,148.3 871.1,153.7" fill="#3498db" opacity="0.7"/>

<rect x="711.5" y="281.2" width="27.0" height="39.6" rx="13.5" ry="4.7" fill="#9b59b6" stroke="#8e44ad" stroke-width="2.0" opacity="0.85"/>
<text x="725.0" y="278.0" text-anchor="middle" font-size="10" fill="#333" opacity="1.0">obj_0</text>

<rect x="750.7" y="215.9" width="20.4" height="20.4" rx="3" ry="3" fill="#e74c3c" stroke="#c0392b" stroke-width="2.0" opacity="0.85"/>
<text x="760.9" y="209.1" text-anchor="middle" font-size="10" fill="#333" opacity="1.0">obj_1</text>
<defs><radialGradient id="grad_obj_2" cx="35%" cy="35%"><stop offset="0%" stop-color="white" stop-opacity="0.4"/><stop offset="100%" stop-color="#3498db" stop-opacity="0"/></radialGradient></defs>

<rect x="959.7" y="133.7" width="30.6" height="30.6" rx="3" ry="3" fill="#3498db" stroke="#2980b9" stroke-width="2.0" opacity="1.0"/>
<text x="975.0" y="126.0" text-anchor="middle" font-size="10" fill="#333" opacity="1.0">obj_2</text>

<circle cx="963.6" cy="247.1" r="18" fill="#3498db" stroke="#2980b9" stroke-width="2.0" opacity="0.85"/>
<text x="963.6" y="224.1" text-anchor="middle" font-size="10" fill="#333" opacity="1.0">obj_3</text>

<rect x="711.5" y="242.3" width="27.0" height="39.6" rx="13.5" ry="4.7" fill="#9b59b6" stroke="#8e44ad" stroke-width="1.0" stroke-dasharray="4,3" opacity="0.2975"/>
<text x="725.0" y="239.1" text-anchor="middle" font-size="9" fill="#333" opacity="0.5974999999999999"></text>

<rect x="776.3" y="293.9" width="20.4" height="20.4" rx="3" ry="3" fill="#e74c3c" stroke="#c0392b" stroke-width="1.0" stroke-dasharray="4,3" opacity="0.2975"/>
<text x="786.5" y="287.1" text-anchor="middle" font-size="9" fill="#333" opacity="0.5974999999999999"></text>

<rect x="959.7" y="230.7" width="30.6" height="30.6" rx="3" ry="3" fill="#3498db" stroke="#2980b9" stroke-width="1.0" stroke-dasharray="4,3" opacity="0.35"/>
<text x="975.0" y="223.0" text-anchor="middle" font-size="9" fill="#333" opacity="0.6499999999999999"></text>

<circle cx="869.3" cy="145.9" r="18" fill="#3498db" stroke="#2980b9" stroke-width="1.0" stroke-dasharray="4,3" opacity="0.2975"/>
<text x="869.3" y="122.9" text-anchor="middle" font-size="9" fill="#333" opacity="0.5974999999999999"></text>
<circle cx="940" cy="75" r="5" fill="#95a5a6" stroke="#333" stroke-width="1"/><text x="950" y="79" font-size="9" fill="#555">GT</text><circle cx="940" cy="91" r="5" fill="#95a5a6" stroke="#333" stroke-width="1" stroke-dasharray="3,2" opacity="0.5"/><text x="950" y="95" font-size="9" fill="#555">Recon</text><line x1="934" y1="107" x2="946" y2="107" stroke="#e74c3c" stroke-width="1.5"/><text x="950" y="111" font-size="9" fill="#555">Distortion</text>
</svg>
