<svg xmlns="http://www.w3.org/2000/svg" xmlns:xlink="http://www.w3.org/1999/xlink" width="1030" height="415" viewBox="0 0 1030 415" style="font-family: 'Helvetica Neue', Arial, sans-serif;">
<rect width="1030" height="415" fill="#fafafa"/>

<text x="515" y="22" text-anchor="middle" font-size="14" font-weight="bold" fill="#2c3e50">Scene: n05_000095 | gemini-3_1-pro-preview</text>
<text x="515" y="42" text-anchor="middle" font-size="10" fill="#7f8c8d">CSR_QRR=0.864  |  CSR_TRR=1.000  |  NRMS=0.0926  |  τ=0.822  |  K=1</text>
<line x1="20.0" y1="65.0" x2="20.0" y2="385.0" stroke="#ecf0f1" stroke-width="0.5"/>
<line x1="20.0" y1="65.0" x2="340.0" y2="65.0" stroke="#ecf0f1" stroke-width="0.5"/>
<line x1="84.0" y1="65.0" x2="84.0" y2="385.0" stroke="#ecf0f1" stroke-width="0.5"/>
<line x1="20.0" y1="129.0" x2="340.0" y2="129.0" stroke="#ecf0f1" stroke-width="0.5"/>
<line x1="148.0" y1="65.0" x2="148.0" y2="385.0" stroke="#ecf0f1" stroke-width="0.5"/>
<line x1="20.0" y1="193.0" x2="340.0" y2="193.0" stroke="#ecf0f1" stroke-width="0.5"/>
<line x1="212.0" y1="65.0" x2="212.0" y2="385.0" stroke="#ecf0f1" stroke-width="0.5"/>
<line x1="20.0" y1="257.0" x2="340.0" y2="257.0" stroke="#ecf0f1" stroke-width="0.5"/>
<line x1="276.0" y1="65.0" x2="276.0" y2="385.0" stroke="#ecf0f1" stroke-width="0.5"/>
<line x1="20.0" y1="321.0" x2="340.0" y2="321.0" stroke="#ecf0f1" stroke-width="0.5"/>
<line x1="340.0" y1="65.0" x2="340.0" y2="385.0" stroke="#ecf0f1" stroke-width="0.5"/>
<line x1="20.0" y1="385.0" x2="340.0" y2="385.0" stroke="#ecf0f1" stroke-width="0.5"/>
<rect x="20.0" y="65.0" width="320.0" height="320.0" fill="none" stroke="#ddd" stroke-width="1"/>
<text x="180" y="60" text-anchor="middle" font-size="12" font-weight="bold" fill="#2c3e50">Ground Truth</text>

<rect x="158.6" y="214.8" width="27.0" height="39.6" rx="13.5" ry="4.7" fill="#1abc9c" stroke="#16a085" stroke-width="2.0" opacity="0.85"/>
<text x="172.1" y="211.6" text-anchor="middle" font-size="10" fill="#333" opacity="1.0">obj_0</text>

<rect x="123.9" y="80.2" width="27.0" height="39.6" rx="13.5" ry="4.7" fill="#95a5a6" stroke="#7f8c8d" stroke-width="2.0" opacity="0.85"/>
<text x="137.4" y="77.0" text-anchor="middle" font-size="10" fill="#333" opacity="1.0">obj_1</text>

<circle cx="103.8" cy="350.0" r="18" fill="#2ecc71" stroke="#27ae60" stroke-width="2.0" opacity="0.85"/>
<text x="103.8" y="327.0" text-anchor="middle" font-size="10" fill="#333" opacity="1.0">obj_2</text>

<circle cx="288.9" cy="308.4" r="18" fill="#95a5a6" stroke="#7f8c8d" stroke-width="2.0" opacity="0.85"/>
<text x="288.9" y="285.4" text-anchor="middle" font-size="10" fill="#333" opacity="1.0">obj_3</text>
<defs><radialGradient id="grad_obj_4" cx="35%" cy="35%"><stop offset="0%" stop-color="white" stop-opacity="0.4"/><stop offset="100%" stop-color="#e74c3c" stop-opacity="0"/></radialGradient></defs>

<rect x="62.1" y="232.3" width="18.0" height="26.4" rx="9.0" ry="3.1" fill="#e74c3c" stroke="#c0392b" stroke-width="2.0" opacity="1.0"/>
<text x="71.1" y="228.5" text-anchor="middle" font-size="10" fill="#333" opacity="1.0">obj_4</text>
<line x1="355.0" y1="65.0" x2="355.0" y2="385.0" stroke="#ecf0f1" stroke-width="0.5"/>
<line x1="355.0" y1="65.0" x2="675.0" y2="65.0" stroke="#ecf0f1" stroke-width="0.5"/>
<line x1="419.0" y1="65.0" x2="419.0" y2="385.0" stroke="#ecf0f1" stroke-width="0.5"/>
<line x1="355.0" y1="129.0" x2="675.0" y2="129.0" stroke="#ecf0f1" stroke-width="0.5"/>
<line x1="483.0" y1="65.0" x2="483.0" y2="385.0" stroke="#ecf0f1" stroke-width="0.5"/>
<line x1="355.0" y1="193.0" x2="675.0" y2="193.0" stroke="#ecf0f1" stroke-width="0.5"/>
<line x1="547.0" y1="65.0" x2="547.0" y2="385.0" stroke="#ecf0f1" stroke-width="0.5"/>
<line x1="355.0" y1="257.0" x2="675.0" y2="257.0" stroke="#ecf0f1" stroke-width="0.5"/>
<line x1="611.0" y1="65.0" x2="611.0" y2="385.0" stroke="#ecf0f1" stroke-width="0.5"/>
<line x1="355.0" y1="321.0" x2="675.0" y2="321.0" stroke="#ecf0f1" stroke-width="0.5"/>
<line x1="675.0" y1="65.0" x2="675.0" y2="385.0" stroke="#ecf0f1" stroke-width="0.5"/>
<line x1="355.0" y1="385.0" x2="675.0" y2="385.0" stroke="#ecf0f1" stroke-width="0.5"/>
<rect x="355.0" y="65.0" width="320.0" height="320.0" fill="none" stroke="#ddd" stroke-width="1"/>
<text x="515" y="60" text-anchor="middle" font-size="12" font-weight="bold" fill="#2c3e50">Reconstructed</text>

<rect x="454.0" y="246.9" width="27.0" height="39.6" rx="13.5" ry="4.7" fill="#1abc9c" stroke="#16a085" stroke-width="2.0" opacity="0.85"/>
<text x="467.5" y="243.7" text-anchor="middle" font-size="10" fill="#333" opacity="1.0">obj_0</text>

<rect x="440.4" y="80.2" width="27.0" height="39.6" rx="13.5" ry="4.7" fill="#95a5a6" stroke="#7f8c8d" stroke-width="2.0" opacity="0.85"/>
<text x="453.9" y="77.0" text-anchor="middle" font-size="10" fill="#333" opacity="1.0">obj_1</text>

<circle cx="447.6" cy="347.4" r="18" fill="#2ecc71" stroke="#27ae60" stroke-width="2.0" opacity="0.85"/>
<text x="447.6" y="324.4" text-anchor="middle" font-size="10" fill="#333" opacity="1.0">obj_2</text>

<circle cx="633.4" cy="350.0" r="18" fill="#95a5a6" stroke="#7f8c8d" stroke-width="2.0" opacity="0.85"/>
<text x="633.4" y="327.0" text-anchor="middle" font-size="10" fill="#333" opacity="1.0">obj_3</text>
<defs><radialGradient id="grad_obj_4" cx="35%" cy="35%"><stop offset="0%" stop-color="white" stop-opacity="0.4"/><stop offset="100%" stop-color="#e74c3c" stop-opacity="0"/></radialGradient></defs>

<rect x="387.6" y="250.6" width="18.0" height="26.4" rx="9.0" ry="3.1" fill="#e74c3c" stroke="#c0392b" stroke-width="2.0" opacity="1.0"/>
<text x="396.6" y="246.8" text-anchor="middle" font-size="10" fill="#333" opacity="1.0">obj_4</text>
<line x1="690.0" y1="65.0" x2="690.0" y2="385.0" stroke="#ecf0f1" stroke-width="0.5"/>
<line x1="690.0" y1="65.0" x2="1010.0" y2="65.0" stroke="#ecf0f1" stroke-width="0.5"/>
<line x1="754.0" y1="65.0" x2="754.0" y2="385.0" stroke="#ecf0f1" stroke-width="0.5"/>
<line x1="690.0" y1="129.0" x2="1010.0" y2="129.0" stroke="#ecf0f1" stroke-width="0.5"/>
<line x1="818.0" y1="65.0" x2="818.0" y2="385.0" stroke="#ecf0f1" stroke-width="0.5"/>
<line x1="690.0" y1="193.0" x2="1010.0" y2="193.0" stroke="#ecf0f1" stroke-width="0.5"/>
<line x1="882.0" y1="65.0" x2="882.0" y2="385.0" stroke="#ecf0f1" stroke-width="0.5"/>
<line x1="690.0" y1="257.0" x2="1010.0" y2="257.0" stroke="#ecf0f1" stroke-width="0.5"/>
<line x1="946.0" y1="65.0" x2="946.0" y2="385.0" stroke="#ecf0f1" stroke-width="0.5"/>
<line x1="690.0" y1="321.0" x2="1010.0" y2="321.0" stroke="#ecf0f1" stroke-width="0.5"/>
<line x1="1010.0" y1="65.0" x2="1010.0" y2="385.0" stroke="#ecf0f1" stroke-width="0.5"/>
<line x1="690.0" y1="385.0" x2="1010.0" y2="385.0" stroke="#ecf0f1" stroke-width="0.5"/>
<rect x="690.0" y="65.0" width="320.0" height="320.0" fill="none" stroke="#ddd" stroke-width="1"/>
<text x="850" y="60" text-anchor="middle" font-size="12" font-weight="bold" fill="#2c3e50">Overlay (NRMS=0.093)</text>
<line x1="842.1" y1="234.6" x2="802.5" y2="266.7" stroke="#1abc9c" stroke-width="1.8" opacity="0.7"/>
<polygon points="802.5,266.7 805.4,259.2 810.4,265.4" fill="#1abc9c" opacity="0.7"/>
<line x1="807.4" y1="100.0" x2="788.9" y2="100.0" stroke="#95a5a6" stroke-width="1.8" opacity="0.7"/>
<polygon points="788.9,100.0 793.7,97.2 793.7,102.8" fill="#95a5a6" opacity="0.7"/>
<line x1="773.8" y1="350.0" x2="782.6" y2="347.4" stroke="#2ecc71" stroke-width="1.8" opacity="0.7"/>
<polygon points="782.6,347.4 780.7,349.4 779.9,346.8" fill="#2ecc71" opacity="0.7"/>
<line x1="958.9" y1="308.4" x2="968.4" y2="350.0" stroke="#95a5a6" stroke-width="1.8" opacity="0.7"/>
<polygon points="968.4,350.0 962.9,344.1 970.7,342.4" fill="#95a5a6" opacity="0.7"/>
<line x1="741.1" y1="245.5" x2="731.6" y2="263.8" stroke="#e74c3c" stroke-width="1.8" opacity="0.7"/>
<polygon points="731.6,263.8 731.3,257.6 736.8,260.4" fill="#e74c3c" opacity="0.7"/>

<rect x="828.6" y="214.8" width="27.0" height="39.6" rx="13.5" ry="4.7" fill="#1abc9c" stroke="#16a085" stroke-width="2.0" opacity="0.85"/>
<text x="842.1" y="211.6" text-anchor="middle" font-size="10" fill="#333" opacity="1.0">obj_0</text>

<rect x="793.9" y="80.2" width="27.0" height="39.6" rx="13.5" ry="4.7" fill="#95a5a6" stroke="#7f8c8d" stroke-width="2.0" opacity="0.85"/>
<text x="807.4" y="77.0" text-anchor="middle" font-size="10" fill="#333" opacity="1.0">obj_1</text>

<circle cx="773.8" cy="350.0" r="18" fill="#2ecc71" stroke="#27ae60" stroke-width="2.0" opacity="0.85"/>
<text x="773.8" y="327.0" text-anchor="middle" font-size="10" fill="#333" opacity="1.0">obj_2</text>

<circle cx="958.9" cy="308.4" r="18" fill="#95a5a6" stroke="#7f8c8d" stroke-width="2.0" opacity="0.85"/>
<text x="958.9" y="285.4" text-anchor="middle" font-size="10" fill="#333" opacity="1.0">obj_3</text>
<defs><radialGradient id="grad_obj_4" cx="35%" cy="35%"><stop offset="0%" stop-color="white" stop-opacity="0.4"/><stop offset="100%" stop-color="#e74c3c" stop-opacity="0"/></radialGradient></defs>

<rect x="732.1" y="232.3" width="18.0" height="26.4" rx="9.0" ry="3.1" fill="#e74c3c" stroke="#c0392b" stroke-width="2.0" opacity="1.0"/>
<text x="741.1" y="228.5" text-anchor="middle" font-size="10" fill="#333" opacity="1.0">obj_4</text>

<rect x="789.0" y="246.9" width="27.0" height="39.6" rx="13.5" ry="4.7" fill="#1abc9c" stroke="#16a085" stroke-width="1.0" stroke-dasharray="4,3" opacity="0.2975"/>
<text x="802.5" y="243.7" text-anchor="middle" font-size="9" fill="#333" opacity="0.5974999999999999"></text>

<rect x="775.4" y="80.2" width="27.0" height="39.6" rx="13.5" ry="4.7" fill="#95a5a6" stroke="#7f8c8d" stroke-width="1.0" stroke-dasharray="4,3" opacity="0.2975"/>
<text x="788.9" y="77.0" text-anchor="middle" font-size="9" fill="#333" opacity="0.5974999999999999"></text>

<circle cx="782.6" cy="347.4" r="18" fill="#2ecc71" stroke="#27ae60" stroke-width="1.0" stroke-dasharray="4,3" opacity="0.2975"/>
<text x="782.6" y="324.4" text-anchor="middle" font-size="9" fill="#333" opacity="0.5974999999999999"></text>

<circle cx="968.4" cy="350.0" r="18" fill="#95a5a6" stroke="#7f8c8d" stroke-width="1.0" stroke-dasharray="4,3" opacity="0.2975"/>
<text x="968.4" y="327.0" text-anchor="middle" font-size="9" fill="#333" opacity="0.5974999999999999"></text>

<rect x="722.6" y="250.6" width="18.0" height="26.4" rx="9.0" ry="3.1" fill="#e74c3c" stroke="#c0392b" stroke-width="1.0" stroke-dasharray="4,3" opacity="0.35"/>
<text x="731.6" y="246.8" text-anchor="middle" font-size="9" fill="#333" opacity="0.6499999999999999"></text>
<circle cx="940" cy="75" r="5" fill="#95a5a6" stroke="#333" stroke-width="1"/><text x="950" y="79" font-size="9" fill="#555">GT</text><circle cx="940" cy="91" r="5" fill="#95a5a6" stroke="#333" stroke-width="1" stroke-dasharray="3,2" opacity="0.5"/><text x="950" y="95" font-size="9" fill="#555">Recon</text><line x1="934" y1="107" x2="946" y2="107" stroke="#e74c3c" stroke-width="1.5"/><text x="950" y="111" font-size="9" fill="#555">Distortion</text>
</svg>
