<svg xmlns="http://www.w3.org/2000/svg" xmlns:xlink="http://www.w3.org/1999/xlink" width="1030" height="415" viewBox="0 0 1030 415" style="font-family: 'Helvetica Neue', Arial, sans-serif;">
<rect width="1030" height="415" fill="#fafafa"/>

<text x="515" y="22" text-anchor="middle" font-size="14" font-weight="bold" fill="#2c3e50">Scene: n06_000099 | gemini-3_1-pro-preview</text>
<text x="515" y="42" text-anchor="middle" font-size="10" fill="#7f8c8d">CSR_QRR=0.851  |  CSR_TRR=0.917  |  NRMS=0.6325  |  τ=0.771  |  K=1</text>
<line x1="20.0" y1="65.0" x2="20.0" y2="385.0" stroke="#ecf0f1" stroke-width="0.5"/>
<line x1="20.0" y1="65.0" x2="340.0" y2="65.0" stroke="#ecf0f1" stroke-width="0.5"/>
<line x1="84.0" y1="65.0" x2="84.0" y2="385.0" stroke="#ecf0f1" stroke-width="0.5"/>
<line x1="20.0" y1="129.0" x2="340.0" y2="129.0" stroke="#ecf0f1" stroke-width="0.5"/>
<line x1="148.0" y1="65.0" x2="148.0" y2="385.0" stroke="#ecf0f1" stroke-width="0.5"/>
<line x1="20.0" y1="193.0" x2="340.0" y2="193.0" stroke="#ecf0f1" stroke-width="0.5"/>
<line x1="212.0" y1="65.0" x2="212.0" y2="385.0" stroke="#ecf0f1" stroke-width="0.5"/>
<line x1="20.0" y1="257.0" x2="340.0" y2="257.0" stroke="#ecf0f1" stroke-width="0.5"/>
<line x1="276.0" y1="65.0" x2="276.0" y2="385.0" stroke="#ecf0f1" stroke-width="0.5"/>
<line x1="20.0" y1="321.0" x2="340.0" y2="321.0" stroke="#ecf0f1" stroke-width="0.5"/>
<line x1="340.0" y1="65.0" x2="340.0" y2="385.0" stroke="#ecf0f1" stroke-width="0.5"/>
<line x1="20.0" y1="385.0" x2="340.0" y2="385.0" stroke="#ecf0f1" stroke-width="0.5"/>
<rect x="20.0" y="65.0" width="320.0" height="320.0" fill="none" stroke="#ddd" stroke-width="1"/>
<text x="180" y="60" text-anchor="middle" font-size="12" font-weight="bold" fill="#2c3e50">Ground Truth</text>

<circle cx="305.0" cy="182.8" r="12" fill="#e74c3c" stroke="#c0392b" stroke-width="2.0" opacity="0.85"/>
<text x="305.0" y="165.8" text-anchor="middle" font-size="10" fill="#333" opacity="1.0">obj_0</text>

<rect x="81.9" y="231.0" width="18.0" height="26.4" rx="9.0" ry="3.1" fill="#3498db" stroke="#2980b9" stroke-width="2.0" opacity="0.85"/>
<text x="90.9" y="227.2" text-anchor="middle" font-size="10" fill="#333" opacity="1.0">obj_1</text>
<defs><radialGradient id="grad_obj_2" cx="35%" cy="35%"><stop offset="0%" stop-color="white" stop-opacity="0.4"/><stop offset="100%" stop-color="#e74c3c" stop-opacity="0"/></radialGradient></defs>

<rect x="272.6" y="261.8" width="27.0" height="39.6" rx="13.5" ry="4.7" fill="#e74c3c" stroke="#c0392b" stroke-width="2.0" opacity="1.0"/>
<text x="286.1" y="258.6" text-anchor="middle" font-size="10" fill="#333" opacity="1.0">obj_2</text>
<defs><radialGradient id="grad_obj_3" cx="35%" cy="35%"><stop offset="0%" stop-color="white" stop-opacity="0.4"/><stop offset="100%" stop-color="#2ecc71" stop-opacity="0"/></radialGradient></defs>

<circle cx="174.7" cy="110.8" r="18" fill="#2ecc71" stroke="#27ae60" stroke-width="2.0" opacity="1.0"/>
<circle cx="174.7" cy="110.8" r="18" fill="url(#grad_obj_3)" opacity="1.0"/>
<text x="174.7" y="87.8" text-anchor="middle" font-size="10" fill="#333" opacity="1.0">obj_3</text>
<defs><radialGradient id="grad_obj_4" cx="35%" cy="35%"><stop offset="0%" stop-color="white" stop-opacity="0.4"/><stop offset="100%" stop-color="#f1c40f" stop-opacity="0"/></radialGradient></defs>

<circle cx="55.0" cy="113.6" r="18" fill="#f1c40f" stroke="#d4ac0f" stroke-width="2.0" opacity="1.0"/>
<circle cx="55.0" cy="113.6" r="18" fill="url(#grad_obj_4)" opacity="1.0"/>
<text x="55.0" y="90.6" text-anchor="middle" font-size="10" fill="#333" opacity="1.0">obj_4</text>

<circle cx="74.8" cy="339.2" r="18" fill="#95a5a6" stroke="#7f8c8d" stroke-width="2.0" opacity="0.85"/>
<text x="74.8" y="316.2" text-anchor="middle" font-size="10" fill="#333" opacity="1.0">obj_5</text>
<line x1="355.0" y1="65.0" x2="355.0" y2="385.0" stroke="#ecf0f1" stroke-width="0.5"/>
<line x1="355.0" y1="65.0" x2="675.0" y2="65.0" stroke="#ecf0f1" stroke-width="0.5"/>
<line x1="419.0" y1="65.0" x2="419.0" y2="385.0" stroke="#ecf0f1" stroke-width="0.5"/>
<line x1="355.0" y1="129.0" x2="675.0" y2="129.0" stroke="#ecf0f1" stroke-width="0.5"/>
<line x1="483.0" y1="65.0" x2="483.0" y2="385.0" stroke="#ecf0f1" stroke-width="0.5"/>
<line x1="355.0" y1="193.0" x2="675.0" y2="193.0" stroke="#ecf0f1" stroke-width="0.5"/>
<line x1="547.0" y1="65.0" x2="547.0" y2="385.0" stroke="#ecf0f1" stroke-width="0.5"/>
<line x1="355.0" y1="257.0" x2="675.0" y2="257.0" stroke="#ecf0f1" stroke-width="0.5"/>
<line x1="611.0" y1="65.0" x2="611.0" y2="385.0" stroke="#ecf0f1" stroke-width="0.5"/>
<line x1="355.0" y1="321.0" x2="675.0" y2="321.0" stroke="#ecf0f1" stroke-width="0.5"/>
<line x1="675.0" y1="65.0" x2="675.0" y2="385.0" stroke="#ecf0f1" stroke-width="0.5"/>
<line x1="355.0" y1="385.0" x2="675.0" y2="385.0" stroke="#ecf0f1" stroke-width="0.5"/>
<rect x="355.0" y="65.0" width="320.0" height="320.0" fill="none" stroke="#ddd" stroke-width="1"/>
<text x="515" y="60" text-anchor="middle" font-size="12" font-weight="bold" fill="#2c3e50">Reconstructed</text>

<circle cx="593.5" cy="311.9" r="12" fill="#e74c3c" stroke="#c0392b" stroke-width="2.0" opacity="0.85"/>
<text x="593.5" y="294.9" text-anchor="middle" font-size="10" fill="#333" opacity="1.0">obj_0</text>

<rect x="489.6" y="169.1" width="18.0" height="26.4" rx="9.0" ry="3.1" fill="#3498db" stroke="#2980b9" stroke-width="2.0" opacity="0.85"/>
<text x="498.6" y="165.3" text-anchor="middle" font-size="10" fill="#333" opacity="1.0">obj_1</text>
<defs><radialGradient id="grad_obj_2" cx="35%" cy="35%"><stop offset="0%" stop-color="white" stop-opacity="0.4"/><stop offset="100%" stop-color="#e74c3c" stop-opacity="0"/></radialGradient></defs>

<rect x="626.5" y="228.6" width="27.0" height="39.6" rx="13.5" ry="4.7" fill="#e74c3c" stroke="#c0392b" stroke-width="2.0" opacity="1.0"/>
<text x="640.0" y="225.4" text-anchor="middle" font-size="10" fill="#333" opacity="1.0">obj_2</text>
<defs><radialGradient id="grad_obj_3" cx="35%" cy="35%"><stop offset="0%" stop-color="white" stop-opacity="0.4"/><stop offset="100%" stop-color="#2ecc71" stop-opacity="0"/></radialGradient></defs>

<circle cx="455.2" cy="268.3" r="18" fill="#2ecc71" stroke="#27ae60" stroke-width="2.0" opacity="1.0"/>
<circle cx="455.2" cy="268.3" r="18" fill="url(#grad_obj_3)" opacity="1.0"/>
<text x="455.2" y="245.3" text-anchor="middle" font-size="10" fill="#333" opacity="1.0">obj_3</text>
<defs><radialGradient id="grad_obj_4" cx="35%" cy="35%"><stop offset="0%" stop-color="white" stop-opacity="0.4"/><stop offset="100%" stop-color="#f1c40f" stop-opacity="0"/></radialGradient></defs>

<circle cx="390.0" cy="206.7" r="18" fill="#f1c40f" stroke="#d4ac0f" stroke-width="2.0" opacity="1.0"/>
<circle cx="390.0" cy="206.7" r="18" fill="url(#grad_obj_4)" opacity="1.0"/>
<text x="390.0" y="183.7" text-anchor="middle" font-size="10" fill="#333" opacity="1.0">obj_4</text>

<circle cx="548.0" cy="138.1" r="18" fill="#95a5a6" stroke="#7f8c8d" stroke-width="2.0" opacity="0.85"/>
<text x="548.0" y="115.1" text-anchor="middle" font-size="10" fill="#333" opacity="1.0">obj_5</text>
<line x1="690.0" y1="65.0" x2="690.0" y2="385.0" stroke="#ecf0f1" stroke-width="0.5"/>
<line x1="690.0" y1="65.0" x2="1010.0" y2="65.0" stroke="#ecf0f1" stroke-width="0.5"/>
<line x1="754.0" y1="65.0" x2="754.0" y2="385.0" stroke="#ecf0f1" stroke-width="0.5"/>
<line x1="690.0" y1="129.0" x2="1010.0" y2="129.0" stroke="#ecf0f1" stroke-width="0.5"/>
<line x1="818.0" y1="65.0" x2="818.0" y2="385.0" stroke="#ecf0f1" stroke-width="0.5"/>
<line x1="690.0" y1="193.0" x2="1010.0" y2="193.0" stroke="#ecf0f1" stroke-width="0.5"/>
<line x1="882.0" y1="65.0" x2="882.0" y2="385.0" stroke="#ecf0f1" stroke-width="0.5"/>
<line x1="690.0" y1="257.0" x2="1010.0" y2="257.0" stroke="#ecf0f1" stroke-width="0.5"/>
<line x1="946.0" y1="65.0" x2="946.0" y2="385.0" stroke="#ecf0f1" stroke-width="0.5"/>
<line x1="690.0" y1="321.0" x2="1010.0" y2="321.0" stroke="#ecf0f1" stroke-width="0.5"/>
<line x1="1010.0" y1="65.0" x2="1010.0" y2="385.0" stroke="#ecf0f1" stroke-width="0.5"/>
<line x1="690.0" y1="385.0" x2="1010.0" y2="385.0" stroke="#ecf0f1" stroke-width="0.5"/>
<rect x="690.0" y="65.0" width="320.0" height="320.0" fill="none" stroke="#ddd" stroke-width="1"/>
<text x="850" y="60" text-anchor="middle" font-size="12" font-weight="bold" fill="#2c3e50">Overlay (NRMS=0.633)</text>
<line x1="975.0" y1="182.8" x2="928.5" y2="311.9" stroke="#e74c3c" stroke-width="1.8" opacity="0.7"/>
<polygon points="928.5,311.9 927.1,304.0 934.6,306.7" fill="#e74c3c" opacity="0.7"/>
<line x1="760.9" y1="244.2" x2="833.6" y2="182.3" stroke="#3498db" stroke-width="1.8" opacity="0.7"/>
<polygon points="833.6,182.3 831.0,189.8 825.8,183.7" fill="#3498db" opacity="0.7"/>
<line x1="956.1" y1="281.6" x2="975.0" y2="248.4" stroke="#e74c3c" stroke-width="1.8" opacity="0.7"/>
<polygon points="975.0,248.4 975.0,256.4 968.1,252.4" fill="#e74c3c" opacity="0.7"/>
<line x1="844.7" y1="110.8" x2="790.2" y2="268.3" stroke="#2ecc71" stroke-width="1.8" opacity="0.7"/>
<polygon points="790.2,268.3 788.7,260.4 796.2,263.1" fill="#2ecc71" opacity="0.7"/>
<line x1="725.0" y1="113.6" x2="725.0" y2="206.7" stroke="#f1c40f" stroke-width="1.8" opacity="0.7"/>
<polygon points="725.0,206.7 721.0,199.8 729.0,199.8" fill="#f1c40f" opacity="0.7"/>
<line x1="744.8" y1="339.2" x2="883.0" y2="138.1" stroke="#95a5a6" stroke-width="1.8" opacity="0.7"/>
<polygon points="883.0,138.1 882.4,146.1 875.8,141.6" fill="#95a5a6" opacity="0.7"/>

<circle cx="975.0" cy="182.8" r="12" fill="#e74c3c" stroke="#c0392b" stroke-width="2.0" opacity="0.85"/>
<text x="975.0" y="165.8" text-anchor="middle" font-size="10" fill="#333" opacity="1.0">obj_0</text>

<rect x="751.9" y="231.0" width="18.0" height="26.4" rx="9.0" ry="3.1" fill="#3498db" stroke="#2980b9" stroke-width="2.0" opacity="0.85"/>
<text x="760.9" y="227.2" text-anchor="middle" font-size="10" fill="#333" opacity="1.0">obj_1</text>
<defs><radialGradient id="grad_obj_2" cx="35%" cy="35%"><stop offset="0%" stop-color="white" stop-opacity="0.4"/><stop offset="100%" stop-color="#e74c3c" stop-opacity="0"/></radialGradient></defs>

<rect x="942.6" y="261.8" width="27.0" height="39.6" rx="13.5" ry="4.7" fill="#e74c3c" stroke="#c0392b" stroke-width="2.0" opacity="1.0"/>
<text x="956.1" y="258.6" text-anchor="middle" font-size="10" fill="#333" opacity="1.0">obj_2</text>
<defs><radialGradient id="grad_obj_3" cx="35%" cy="35%"><stop offset="0%" stop-color="white" stop-opacity="0.4"/><stop offset="100%" stop-color="#2ecc71" stop-opacity="0"/></radialGradient></defs>

<circle cx="844.7" cy="110.8" r="18" fill="#2ecc71" stroke="#27ae60" stroke-width="2.0" opacity="1.0"/>
<circle cx="844.7" cy="110.8" r="18" fill="url(#grad_obj_3)" opacity="1.0"/>
<text x="844.7" y="87.8" text-anchor="middle" font-size="10" fill="#333" opacity="1.0">obj_3</text>
<defs><radialGradient id="grad_obj_4" cx="35%" cy="35%"><stop offset="0%" stop-color="white" stop-opacity="0.4"/><stop offset="100%" stop-color="#f1c40f" stop-opacity="0"/></radialGradient></defs>

<circle cx="725.0" cy="113.6" r="18" fill="#f1c40f" stroke="#d4ac0f" stroke-width="2.0" opacity="1.0"/>
<circle cx="725.0" cy="113.6" r="18" fill="url(#grad_obj_4)" opacity="1.0"/>
<text x="725.0" y="90.6" text-anchor="middle" font-size="10" fill="#333" opacity="1.0">obj_4</text>

<circle cx="744.8" cy="339.2" r="18" fill="#95a5a6" stroke="#7f8c8d" stroke-width="2.0" opacity="0.85"/>
<text x="744.8" y="316.2" text-anchor="middle" font-size="10" fill="#333" opacity="1.0">obj_5</text>

<circle cx="928.5" cy="311.9" r="12" fill="#e74c3c" stroke="#c0392b" stroke-width="1.0" stroke-dasharray="4,3" opacity="0.2975"/>
<text x="928.5" y="294.9" text-anchor="middle" font-size="9" fill="#333" opacity="0.5974999999999999"></text>

<rect x="824.6" y="169.1" width="18.0" height="26.4" rx="9.0" ry="3.1" fill="#3498db" stroke="#2980b9" stroke-width="1.0" stroke-dasharray="4,3" opacity="0.2975"/>
<text x="833.6" y="165.3" text-anchor="middle" font-size="9" fill="#333" opacity="0.5974999999999999"></text>

<rect x="961.5" y="228.6" width="27.0" height="39.6" rx="13.5" ry="4.7" fill="#e74c3c" stroke="#c0392b" stroke-width="1.0" stroke-dasharray="4,3" opacity="0.35"/>
<text x="975.0" y="225.4" text-anchor="middle" font-size="9" fill="#333" opacity="0.6499999999999999"></text>

<circle cx="790.2" cy="268.3" r="18" fill="#2ecc71" stroke="#27ae60" stroke-width="1.0" stroke-dasharray="4,3" opacity="0.35"/>
<text x="790.2" y="245.3" text-anchor="middle" font-size="9" fill="#333" opacity="0.6499999999999999"></text>

<circle cx="725.0" cy="206.7" r="18" fill="#f1c40f" stroke="#d4ac0f" stroke-width="1.0" stroke-dasharray="4,3" opacity="0.35"/>
<text x="725.0" y="183.7" text-anchor="middle" font-size="9" fill="#333" opacity="0.6499999999999999"></text>

<circle cx="883.0" cy="138.1" r="18" fill="#95a5a6" stroke="#7f8c8d" stroke-width="1.0" stroke-dasharray="4,3" opacity="0.2975"/>
<text x="883.0" y="115.1" text-anchor="middle" font-size="9" fill="#333" opacity="0.5974999999999999"></text>
<circle cx="940" cy="75" r="5" fill="#95a5a6" stroke="#333" stroke-width="1"/><text x="950" y="79" font-size="9" fill="#555">GT</text><circle cx="940" cy="91" r="5" fill="#95a5a6" stroke="#333" stroke-width="1" stroke-dasharray="3,2" opacity="0.5"/><text x="950" y="95" font-size="9" fill="#555">Recon</text><line x1="934" y1="107" x2="946" y2="107" stroke="#e74c3c" stroke-width="1.5"/><text x="950" y="111" font-size="9" fill="#555">Distortion</text>
</svg>
