<svg xmlns="http://www.w3.org/2000/svg" xmlns:xlink="http://www.w3.org/1999/xlink" width="1030" height="415" viewBox="0 0 1030 415" style="font-family: 'Helvetica Neue', Arial, sans-serif;">
<rect width="1030" height="415" fill="#fafafa"/>

<text x="515" y="22" text-anchor="middle" font-size="14" font-weight="bold" fill="#2c3e50">Scene: n06_000099 | gemini-3_1-pro-preview</text>
<text x="515" y="42" text-anchor="middle" font-size="10" fill="#7f8c8d">CSR_QRR=0.921  |  CSR_TRR=1.000  |  NRMS=0.0846  |  τ=0.848  |  K=1</text>
<line x1="20.0" y1="65.0" x2="20.0" y2="385.0" stroke="#ecf0f1" stroke-width="0.5"/>
<line x1="20.0" y1="65.0" x2="340.0" y2="65.0" stroke="#ecf0f1" stroke-width="0.5"/>
<line x1="84.0" y1="65.0" x2="84.0" y2="385.0" stroke="#ecf0f1" stroke-width="0.5"/>
<line x1="20.0" y1="129.0" x2="340.0" y2="129.0" stroke="#ecf0f1" stroke-width="0.5"/>
<line x1="148.0" y1="65.0" x2="148.0" y2="385.0" stroke="#ecf0f1" stroke-width="0.5"/>
<line x1="20.0" y1="193.0" x2="340.0" y2="193.0" stroke="#ecf0f1" stroke-width="0.5"/>
<line x1="212.0" y1="65.0" x2="212.0" y2="385.0" stroke="#ecf0f1" stroke-width="0.5"/>
<line x1="20.0" y1="257.0" x2="340.0" y2="257.0" stroke="#ecf0f1" stroke-width="0.5"/>
<line x1="276.0" y1="65.0" x2="276.0" y2="385.0" stroke="#ecf0f1" stroke-width="0.5"/>
<line x1="20.0" y1="321.0" x2="340.0" y2="321.0" stroke="#ecf0f1" stroke-width="0.5"/>
<line x1="340.0" y1="65.0" x2="340.0" y2="385.0" stroke="#ecf0f1" stroke-width="0.5"/>
<line x1="20.0" y1="385.0" x2="340.0" y2="385.0" stroke="#ecf0f1" stroke-width="0.5"/>
<rect x="20.0" y="65.0" width="320.0" height="320.0" fill="none" stroke="#ddd" stroke-width="1"/>
<text x="180" y="60" text-anchor="middle" font-size="12" font-weight="bold" fill="#2c3e50">Ground Truth</text>

<circle cx="305.0" cy="182.8" r="12" fill="#e74c3c" stroke="#c0392b" stroke-width="2.0" opacity="0.85"/>
<text x="305.0" y="165.8" text-anchor="middle" font-size="10" fill="#333" opacity="1.0">obj_0</text>

<rect x="81.9" y="231.0" width="18.0" height="26.4" rx="9.0" ry="3.1" fill="#3498db" stroke="#2980b9" stroke-width="2.0" opacity="0.85"/>
<text x="90.9" y="227.2" text-anchor="middle" font-size="10" fill="#333" opacity="1.0">obj_1</text>
<defs><radialGradient id="grad_obj_2" cx="35%" cy="35%"><stop offset="0%" stop-color="white" stop-opacity="0.4"/><stop offset="100%" stop-color="#e74c3c" stop-opacity="0"/></radialGradient></defs>

<rect x="272.6" y="261.8" width="27.0" height="39.6" rx="13.5" ry="4.7" fill="#e74c3c" stroke="#c0392b" stroke-width="2.0" opacity="1.0"/>
<text x="286.1" y="258.6" text-anchor="middle" font-size="10" fill="#333" opacity="1.0">obj_2</text>
<defs><radialGradient id="grad_obj_3" cx="35%" cy="35%"><stop offset="0%" stop-color="white" stop-opacity="0.4"/><stop offset="100%" stop-color="#2ecc71" stop-opacity="0"/></radialGradient></defs>

<circle cx="174.7" cy="110.8" r="18" fill="#2ecc71" stroke="#27ae60" stroke-width="2.0" opacity="1.0"/>
<circle cx="174.7" cy="110.8" r="18" fill="url(#grad_obj_3)" opacity="1.0"/>
<text x="174.7" y="87.8" text-anchor="middle" font-size="10" fill="#333" opacity="1.0">obj_3</text>
<defs><radialGradient id="grad_obj_4" cx="35%" cy="35%"><stop offset="0%" stop-color="white" stop-opacity="0.4"/><stop offset="100%" stop-color="#f1c40f" stop-opacity="0"/></radialGradient></defs>

<circle cx="55.0" cy="113.6" r="18" fill="#f1c40f" stroke="#d4ac0f" stroke-width="2.0" opacity="1.0"/>
<circle cx="55.0" cy="113.6" r="18" fill="url(#grad_obj_4)" opacity="1.0"/>
<text x="55.0" y="90.6" text-anchor="middle" font-size="10" fill="#333" opacity="1.0">obj_4</text>

<circle cx="74.8" cy="339.2" r="18" fill="#95a5a6" stroke="#7f8c8d" stroke-width="2.0" opacity="0.85"/>
<text x="74.8" y="316.2" text-anchor="middle" font-size="10" fill="#333" opacity="1.0">obj_5</text>
<line x1="355.0" y1="65.0" x2="355.0" y2="385.0" stroke="#ecf0f1" stroke-width="0.5"/>
<line x1="355.0" y1="65.0" x2="675.0" y2="65.0" stroke="#ecf0f1" stroke-width="0.5"/>
<line x1="419.0" y1="65.0" x2="419.0" y2="385.0" stroke="#ecf0f1" stroke-width="0.5"/>
<line x1="355.0" y1="129.0" x2="675.0" y2="129.0" stroke="#ecf0f1" stroke-width="0.5"/>
<line x1="483.0" y1="65.0" x2="483.0" y2="385.0" stroke="#ecf0f1" stroke-width="0.5"/>
<line x1="355.0" y1="193.0" x2="675.0" y2="193.0" stroke="#ecf0f1" stroke-width="0.5"/>
<line x1="547.0" y1="65.0" x2="547.0" y2="385.0" stroke="#ecf0f1" stroke-width="0.5"/>
<line x1="355.0" y1="257.0" x2="675.0" y2="257.0" stroke="#ecf0f1" stroke-width="0.5"/>
<line x1="611.0" y1="65.0" x2="611.0" y2="385.0" stroke="#ecf0f1" stroke-width="0.5"/>
<line x1="355.0" y1="321.0" x2="675.0" y2="321.0" stroke="#ecf0f1" stroke-width="0.5"/>
<line x1="675.0" y1="65.0" x2="675.0" y2="385.0" stroke="#ecf0f1" stroke-width="0.5"/>
<line x1="355.0" y1="385.0" x2="675.0" y2="385.0" stroke="#ecf0f1" stroke-width="0.5"/>
<rect x="355.0" y="65.0" width="320.0" height="320.0" fill="none" stroke="#ddd" stroke-width="1"/>
<text x="515" y="60" text-anchor="middle" font-size="12" font-weight="bold" fill="#2c3e50">Reconstructed</text>

<circle cx="640.0" cy="206.2" r="12" fill="#e74c3c" stroke="#c0392b" stroke-width="2.0" opacity="0.85"/>
<text x="640.0" y="189.2" text-anchor="middle" font-size="10" fill="#333" opacity="1.0">obj_0</text>

<rect x="434.0" y="238.2" width="18.0" height="26.4" rx="9.0" ry="3.1" fill="#3498db" stroke="#2980b9" stroke-width="2.0" opacity="0.85"/>
<text x="443.0" y="234.4" text-anchor="middle" font-size="10" fill="#333" opacity="1.0">obj_1</text>
<defs><radialGradient id="grad_obj_2" cx="35%" cy="35%"><stop offset="0%" stop-color="white" stop-opacity="0.4"/><stop offset="100%" stop-color="#e74c3c" stop-opacity="0"/></radialGradient></defs>

<rect x="589.8" y="283.8" width="27.0" height="39.6" rx="13.5" ry="4.7" fill="#e74c3c" stroke="#c0392b" stroke-width="2.0" opacity="1.0"/>
<text x="603.3" y="280.6" text-anchor="middle" font-size="10" fill="#333" opacity="1.0">obj_2</text>
<defs><radialGradient id="grad_obj_3" cx="35%" cy="35%"><stop offset="0%" stop-color="white" stop-opacity="0.4"/><stop offset="100%" stop-color="#2ecc71" stop-opacity="0"/></radialGradient></defs>

<circle cx="494.2" cy="138.4" r="18" fill="#2ecc71" stroke="#27ae60" stroke-width="2.0" opacity="1.0"/>
<circle cx="494.2" cy="138.4" r="18" fill="url(#grad_obj_3)" opacity="1.0"/>
<text x="494.2" y="115.4" text-anchor="middle" font-size="10" fill="#333" opacity="1.0">obj_3</text>
<defs><radialGradient id="grad_obj_4" cx="35%" cy="35%"><stop offset="0%" stop-color="white" stop-opacity="0.4"/><stop offset="100%" stop-color="#f1c40f" stop-opacity="0"/></radialGradient></defs>

<circle cx="390.0" cy="117.6" r="18" fill="#f1c40f" stroke="#d4ac0f" stroke-width="2.0" opacity="1.0"/>
<circle cx="390.0" cy="117.6" r="18" fill="url(#grad_obj_4)" opacity="1.0"/>
<text x="390.0" y="94.6" text-anchor="middle" font-size="10" fill="#333" opacity="1.0">obj_4</text>

<circle cx="449.1" cy="332.4" r="18" fill="#95a5a6" stroke="#7f8c8d" stroke-width="2.0" opacity="0.85"/>
<text x="449.1" y="309.4" text-anchor="middle" font-size="10" fill="#333" opacity="1.0">obj_5</text>
<line x1="690.0" y1="65.0" x2="690.0" y2="385.0" stroke="#ecf0f1" stroke-width="0.5"/>
<line x1="690.0" y1="65.0" x2="1010.0" y2="65.0" stroke="#ecf0f1" stroke-width="0.5"/>
<line x1="754.0" y1="65.0" x2="754.0" y2="385.0" stroke="#ecf0f1" stroke-width="0.5"/>
<line x1="690.0" y1="129.0" x2="1010.0" y2="129.0" stroke="#ecf0f1" stroke-width="0.5"/>
<line x1="818.0" y1="65.0" x2="818.0" y2="385.0" stroke="#ecf0f1" stroke-width="0.5"/>
<line x1="690.0" y1="193.0" x2="1010.0" y2="193.0" stroke="#ecf0f1" stroke-width="0.5"/>
<line x1="882.0" y1="65.0" x2="882.0" y2="385.0" stroke="#ecf0f1" stroke-width="0.5"/>
<line x1="690.0" y1="257.0" x2="1010.0" y2="257.0" stroke="#ecf0f1" stroke-width="0.5"/>
<line x1="946.0" y1="65.0" x2="946.0" y2="385.0" stroke="#ecf0f1" stroke-width="0.5"/>
<line x1="690.0" y1="321.0" x2="1010.0" y2="321.0" stroke="#ecf0f1" stroke-width="0.5"/>
<line x1="1010.0" y1="65.0" x2="1010.0" y2="385.0" stroke="#ecf0f1" stroke-width="0.5"/>
<line x1="690.0" y1="385.0" x2="1010.0" y2="385.0" stroke="#ecf0f1" stroke-width="0.5"/>
<rect x="690.0" y="65.0" width="320.0" height="320.0" fill="none" stroke="#ddd" stroke-width="1"/>
<text x="850" y="60" text-anchor="middle" font-size="12" font-weight="bold" fill="#2c3e50">Overlay (NRMS=0.085)</text>
<line x1="975.0" y1="182.8" x2="975.0" y2="206.2" stroke="#e74c3c" stroke-width="1.8" opacity="0.7"/>
<polygon points="975.0,206.2 971.5,200.1 978.5,200.1" fill="#e74c3c" opacity="0.7"/>
<line x1="760.9" y1="244.2" x2="778.0" y2="251.4" stroke="#3498db" stroke-width="1.8" opacity="0.7"/>
<polygon points="778.0,251.4 772.4,252.1 774.6,246.9" fill="#3498db" opacity="0.7"/>
<line x1="956.1" y1="281.6" x2="938.3" y2="303.6" stroke="#e74c3c" stroke-width="1.8" opacity="0.7"/>
<polygon points="938.3,303.6 939.5,295.7 945.7,300.7" fill="#e74c3c" opacity="0.7"/>
<line x1="844.7" y1="110.8" x2="829.2" y2="138.4" stroke="#2ecc71" stroke-width="1.8" opacity="0.7"/>
<polygon points="829.2,138.4 829.1,130.4 836.1,134.3" fill="#2ecc71" opacity="0.7"/>
<line x1="725.0" y1="113.6" x2="725.0" y2="117.6" stroke="#f1c40f" stroke-width="1.8" opacity="0.7"/>
<polygon points="725.0,117.6 724.4,116.5 725.6,116.5" fill="#f1c40f" opacity="0.7"/>
<line x1="744.8" y1="339.2" x2="784.1" y2="332.4" stroke="#95a5a6" stroke-width="1.8" opacity="0.7"/>
<polygon points="784.1,332.4 778.0,337.6 776.6,329.7" fill="#95a5a6" opacity="0.7"/>

<circle cx="975.0" cy="182.8" r="12" fill="#e74c3c" stroke="#c0392b" stroke-width="2.0" opacity="0.85"/>
<text x="975.0" y="165.8" text-anchor="middle" font-size="10" fill="#333" opacity="1.0">obj_0</text>

<rect x="751.9" y="231.0" width="18.0" height="26.4" rx="9.0" ry="3.1" fill="#3498db" stroke="#2980b9" stroke-width="2.0" opacity="0.85"/>
<text x="760.9" y="227.2" text-anchor="middle" font-size="10" fill="#333" opacity="1.0">obj_1</text>
<defs><radialGradient id="grad_obj_2" cx="35%" cy="35%"><stop offset="0%" stop-color="white" stop-opacity="0.4"/><stop offset="100%" stop-color="#e74c3c" stop-opacity="0"/></radialGradient></defs>

<rect x="942.6" y="261.8" width="27.0" height="39.6" rx="13.5" ry="4.7" fill="#e74c3c" stroke="#c0392b" stroke-width="2.0" opacity="1.0"/>
<text x="956.1" y="258.6" text-anchor="middle" font-size="10" fill="#333" opacity="1.0">obj_2</text>
<defs><radialGradient id="grad_obj_3" cx="35%" cy="35%"><stop offset="0%" stop-color="white" stop-opacity="0.4"/><stop offset="100%" stop-color="#2ecc71" stop-opacity="0"/></radialGradient></defs>

<circle cx="844.7" cy="110.8" r="18" fill="#2ecc71" stroke="#27ae60" stroke-width="2.0" opacity="1.0"/>
<circle cx="844.7" cy="110.8" r="18" fill="url(#grad_obj_3)" opacity="1.0"/>
<text x="844.7" y="87.8" text-anchor="middle" font-size="10" fill="#333" opacity="1.0">obj_3</text>
<defs><radialGradient id="grad_obj_4" cx="35%" cy="35%"><stop offset="0%" stop-color="white" stop-opacity="0.4"/><stop offset="100%" stop-color="#f1c40f" stop-opacity="0"/></radialGradient></defs>

<circle cx="725.0" cy="113.6" r="18" fill="#f1c40f" stroke="#d4ac0f" stroke-width="2.0" opacity="1.0"/>
<circle cx="725.0" cy="113.6" r="18" fill="url(#grad_obj_4)" opacity="1.0"/>
<text x="725.0" y="90.6" text-anchor="middle" font-size="10" fill="#333" opacity="1.0">obj_4</text>

<circle cx="744.8" cy="339.2" r="18" fill="#95a5a6" stroke="#7f8c8d" stroke-width="2.0" opacity="0.85"/>
<text x="744.8" y="316.2" text-anchor="middle" font-size="10" fill="#333" opacity="1.0">obj_5</text>

<circle cx="975.0" cy="206.2" r="12" fill="#e74c3c" stroke="#c0392b" stroke-width="1.0" stroke-dasharray="4,3" opacity="0.2975"/>
<text x="975.0" y="189.2" text-anchor="middle" font-size="9" fill="#333" opacity="0.5974999999999999"></text>

<rect x="769.0" y="238.2" width="18.0" height="26.4" rx="9.0" ry="3.1" fill="#3498db" stroke="#2980b9" stroke-width="1.0" stroke-dasharray="4,3" opacity="0.2975"/>
<text x="778.0" y="234.4" text-anchor="middle" font-size="9" fill="#333" opacity="0.5974999999999999"></text>

<rect x="924.8" y="283.8" width="27.0" height="39.6" rx="13.5" ry="4.7" fill="#e74c3c" stroke="#c0392b" stroke-width="1.0" stroke-dasharray="4,3" opacity="0.35"/>
<text x="938.3" y="280.6" text-anchor="middle" font-size="9" fill="#333" opacity="0.6499999999999999"></text>

<circle cx="829.2" cy="138.4" r="18" fill="#2ecc71" stroke="#27ae60" stroke-width="1.0" stroke-dasharray="4,3" opacity="0.35"/>
<text x="829.2" y="115.4" text-anchor="middle" font-size="9" fill="#333" opacity="0.6499999999999999"></text>

<circle cx="725.0" cy="117.6" r="18" fill="#f1c40f" stroke="#d4ac0f" stroke-width="1.0" stroke-dasharray="4,3" opacity="0.35"/>
<text x="725.0" y="94.6" text-anchor="middle" font-size="9" fill="#333" opacity="0.6499999999999999"></text>

<circle cx="784.1" cy="332.4" r="18" fill="#95a5a6" stroke="#7f8c8d" stroke-width="1.0" stroke-dasharray="4,3" opacity="0.2975"/>
<text x="784.1" y="309.4" text-anchor="middle" font-size="9" fill="#333" opacity="0.5974999999999999"></text>
<circle cx="940" cy="75" r="5" fill="#95a5a6" stroke="#333" stroke-width="1"/><text x="950" y="79" font-size="9" fill="#555">GT</text><circle cx="940" cy="91" r="5" fill="#95a5a6" stroke="#333" stroke-width="1" stroke-dasharray="3,2" opacity="0.5"/><text x="950" y="95" font-size="9" fill="#555">Recon</text><line x1="934" y1="107" x2="946" y2="107" stroke="#e74c3c" stroke-width="1.5"/><text x="950" y="111" font-size="9" fill="#555">Distortion</text>
</svg>
