<svg xmlns="http://www.w3.org/2000/svg" xmlns:xlink="http://www.w3.org/1999/xlink" width="1030" height="415" viewBox="0 0 1030 415" style="font-family: 'Helvetica Neue', Arial, sans-serif;">
<rect width="1030" height="415" fill="#fafafa"/>

<text x="515" y="22" text-anchor="middle" font-size="14" font-weight="bold" fill="#2c3e50">Scene: n05_000082 | gpt-5_4-0305-global_multi_view</text>
<text x="515" y="42" text-anchor="middle" font-size="10" fill="#7f8c8d">CSR_QRR=0.978  |  CSR_TRR=1.000  |  NRMS=0.0952  |  τ=0.911  |  K=3</text>
<line x1="20.0" y1="65.0" x2="20.0" y2="385.0" stroke="#ecf0f1" stroke-width="0.5"/>
<line x1="20.0" y1="65.0" x2="340.0" y2="65.0" stroke="#ecf0f1" stroke-width="0.5"/>
<line x1="84.0" y1="65.0" x2="84.0" y2="385.0" stroke="#ecf0f1" stroke-width="0.5"/>
<line x1="20.0" y1="129.0" x2="340.0" y2="129.0" stroke="#ecf0f1" stroke-width="0.5"/>
<line x1="148.0" y1="65.0" x2="148.0" y2="385.0" stroke="#ecf0f1" stroke-width="0.5"/>
<line x1="20.0" y1="193.0" x2="340.0" y2="193.0" stroke="#ecf0f1" stroke-width="0.5"/>
<line x1="212.0" y1="65.0" x2="212.0" y2="385.0" stroke="#ecf0f1" stroke-width="0.5"/>
<line x1="20.0" y1="257.0" x2="340.0" y2="257.0" stroke="#ecf0f1" stroke-width="0.5"/>
<line x1="276.0" y1="65.0" x2="276.0" y2="385.0" stroke="#ecf0f1" stroke-width="0.5"/>
<line x1="20.0" y1="321.0" x2="340.0" y2="321.0" stroke="#ecf0f1" stroke-width="0.5"/>
<line x1="340.0" y1="65.0" x2="340.0" y2="385.0" stroke="#ecf0f1" stroke-width="0.5"/>
<line x1="20.0" y1="385.0" x2="340.0" y2="385.0" stroke="#ecf0f1" stroke-width="0.5"/>
<rect x="20.0" y="65.0" width="320.0" height="320.0" fill="none" stroke="#ddd" stroke-width="1"/>
<text x="180" y="60" text-anchor="middle" font-size="12" font-weight="bold" fill="#2c3e50">Ground Truth</text>
<defs><radialGradient id="grad_obj_0" cx="35%" cy="35%"><stop offset="0%" stop-color="white" stop-opacity="0.4"/><stop offset="100%" stop-color="#e74c3c" stop-opacity="0"/></radialGradient></defs>

<rect x="290.1" y="330.2" width="27.0" height="39.6" rx="13.5" ry="4.7" fill="#e74c3c" stroke="#c0392b" stroke-width="2.0" opacity="1.0"/>
<text x="303.6" y="327.0" text-anchor="middle" font-size="10" fill="#333" opacity="1.0">obj_0</text>
<defs><radialGradient id="grad_obj_1" cx="35%" cy="35%"><stop offset="0%" stop-color="white" stop-opacity="0.4"/><stop offset="100%" stop-color="#3498db" stop-opacity="0"/></radialGradient></defs>

<rect x="232.2" y="84.7" width="30.6" height="30.6" rx="3" ry="3" fill="#3498db" stroke="#2980b9" stroke-width="2.0" opacity="1.0"/>
<text x="247.5" y="77.0" text-anchor="middle" font-size="10" fill="#333" opacity="1.0">obj_1</text>
<defs><radialGradient id="grad_obj_2" cx="35%" cy="35%"><stop offset="0%" stop-color="white" stop-opacity="0.4"/><stop offset="100%" stop-color="#2ecc71" stop-opacity="0"/></radialGradient></defs>

<circle cx="270.4" cy="231.6" r="18" fill="#2ecc71" stroke="#27ae60" stroke-width="2.0" opacity="1.0"/>
<circle cx="270.4" cy="231.6" r="18" fill="url(#grad_obj_2)" opacity="1.0"/>
<text x="270.4" y="208.6" text-anchor="middle" font-size="10" fill="#333" opacity="1.0">obj_2</text>
<defs><radialGradient id="grad_obj_3" cx="35%" cy="35%"><stop offset="0%" stop-color="white" stop-opacity="0.4"/><stop offset="100%" stop-color="#f1c40f" stop-opacity="0"/></radialGradient></defs>

<circle cx="56.4" cy="176.0" r="12" fill="#f1c40f" stroke="#d4ac0f" stroke-width="2.0" opacity="1.0"/>
<circle cx="56.4" cy="176.0" r="12" fill="url(#grad_obj_3)" opacity="1.0"/>
<text x="56.4" y="159.0" text-anchor="middle" font-size="10" fill="#333" opacity="1.0">obj_3</text>
<defs><radialGradient id="grad_obj_4" cx="35%" cy="35%"><stop offset="0%" stop-color="white" stop-opacity="0.4"/><stop offset="100%" stop-color="#a0785a" stop-opacity="0"/></radialGradient></defs>

<rect x="69.7" y="223.2" width="18.0" height="26.4" rx="9.0" ry="3.1" fill="#a0785a" stroke="#8b6545" stroke-width="2.0" opacity="1.0"/>
<text x="78.7" y="219.4" text-anchor="middle" font-size="10" fill="#333" opacity="1.0">obj_4</text>
<line x1="355.0" y1="65.0" x2="355.0" y2="385.0" stroke="#ecf0f1" stroke-width="0.5"/>
<line x1="355.0" y1="65.0" x2="675.0" y2="65.0" stroke="#ecf0f1" stroke-width="0.5"/>
<line x1="419.0" y1="65.0" x2="419.0" y2="385.0" stroke="#ecf0f1" stroke-width="0.5"/>
<line x1="355.0" y1="129.0" x2="675.0" y2="129.0" stroke="#ecf0f1" stroke-width="0.5"/>
<line x1="483.0" y1="65.0" x2="483.0" y2="385.0" stroke="#ecf0f1" stroke-width="0.5"/>
<line x1="355.0" y1="193.0" x2="675.0" y2="193.0" stroke="#ecf0f1" stroke-width="0.5"/>
<line x1="547.0" y1="65.0" x2="547.0" y2="385.0" stroke="#ecf0f1" stroke-width="0.5"/>
<line x1="355.0" y1="257.0" x2="675.0" y2="257.0" stroke="#ecf0f1" stroke-width="0.5"/>
<line x1="611.0" y1="65.0" x2="611.0" y2="385.0" stroke="#ecf0f1" stroke-width="0.5"/>
<line x1="355.0" y1="321.0" x2="675.0" y2="321.0" stroke="#ecf0f1" stroke-width="0.5"/>
<line x1="675.0" y1="65.0" x2="675.0" y2="385.0" stroke="#ecf0f1" stroke-width="0.5"/>
<line x1="355.0" y1="385.0" x2="675.0" y2="385.0" stroke="#ecf0f1" stroke-width="0.5"/>
<rect x="355.0" y="65.0" width="320.0" height="320.0" fill="none" stroke="#ddd" stroke-width="1"/>
<text x="515" y="60" text-anchor="middle" font-size="12" font-weight="bold" fill="#2c3e50">Reconstructed</text>
<defs><radialGradient id="grad_obj_0" cx="35%" cy="35%"><stop offset="0%" stop-color="white" stop-opacity="0.4"/><stop offset="100%" stop-color="#e74c3c" stop-opacity="0"/></radialGradient></defs>

<rect x="626.5" y="316.9" width="27.0" height="39.6" rx="13.5" ry="4.7" fill="#e74c3c" stroke="#c0392b" stroke-width="2.0" opacity="1.0"/>
<text x="640.0" y="313.7" text-anchor="middle" font-size="10" fill="#333" opacity="1.0">obj_0</text>
<defs><radialGradient id="grad_obj_1" cx="35%" cy="35%"><stop offset="0%" stop-color="white" stop-opacity="0.4"/><stop offset="100%" stop-color="#3498db" stop-opacity="0"/></radialGradient></defs>

<rect x="530.9" y="98.0" width="30.6" height="30.6" rx="3" ry="3" fill="#3498db" stroke="#2980b9" stroke-width="2.0" opacity="1.0"/>
<text x="546.2" y="90.3" text-anchor="middle" font-size="10" fill="#333" opacity="1.0">obj_1</text>
<defs><radialGradient id="grad_obj_2" cx="35%" cy="35%"><stop offset="0%" stop-color="white" stop-opacity="0.4"/><stop offset="100%" stop-color="#2ecc71" stop-opacity="0"/></radialGradient></defs>

<circle cx="556.7" cy="253.2" r="18" fill="#2ecc71" stroke="#27ae60" stroke-width="2.0" opacity="1.0"/>
<circle cx="556.7" cy="253.2" r="18" fill="url(#grad_obj_2)" opacity="1.0"/>
<text x="556.7" y="230.2" text-anchor="middle" font-size="10" fill="#333" opacity="1.0">obj_2</text>
<defs><radialGradient id="grad_obj_3" cx="35%" cy="35%"><stop offset="0%" stop-color="white" stop-opacity="0.4"/><stop offset="100%" stop-color="#f1c40f" stop-opacity="0"/></radialGradient></defs>

<circle cx="390.0" cy="163.7" r="12" fill="#f1c40f" stroke="#d4ac0f" stroke-width="2.0" opacity="1.0"/>
<circle cx="390.0" cy="163.7" r="12" fill="url(#grad_obj_3)" opacity="1.0"/>
<text x="390.0" y="146.7" text-anchor="middle" font-size="10" fill="#333" opacity="1.0">obj_3</text>
<defs><radialGradient id="grad_obj_4" cx="35%" cy="35%"><stop offset="0%" stop-color="white" stop-opacity="0.4"/><stop offset="100%" stop-color="#a0785a" stop-opacity="0"/></radialGradient></defs>

<rect x="385.6" y="214.6" width="18.0" height="26.4" rx="9.0" ry="3.1" fill="#a0785a" stroke="#8b6545" stroke-width="2.0" opacity="1.0"/>
<text x="394.6" y="210.8" text-anchor="middle" font-size="10" fill="#333" opacity="1.0">obj_4</text>
<line x1="690.0" y1="65.0" x2="690.0" y2="385.0" stroke="#ecf0f1" stroke-width="0.5"/>
<line x1="690.0" y1="65.0" x2="1010.0" y2="65.0" stroke="#ecf0f1" stroke-width="0.5"/>
<line x1="754.0" y1="65.0" x2="754.0" y2="385.0" stroke="#ecf0f1" stroke-width="0.5"/>
<line x1="690.0" y1="129.0" x2="1010.0" y2="129.0" stroke="#ecf0f1" stroke-width="0.5"/>
<line x1="818.0" y1="65.0" x2="818.0" y2="385.0" stroke="#ecf0f1" stroke-width="0.5"/>
<line x1="690.0" y1="193.0" x2="1010.0" y2="193.0" stroke="#ecf0f1" stroke-width="0.5"/>
<line x1="882.0" y1="65.0" x2="882.0" y2="385.0" stroke="#ecf0f1" stroke-width="0.5"/>
<line x1="690.0" y1="257.0" x2="1010.0" y2="257.0" stroke="#ecf0f1" stroke-width="0.5"/>
<line x1="946.0" y1="65.0" x2="946.0" y2="385.0" stroke="#ecf0f1" stroke-width="0.5"/>
<line x1="690.0" y1="321.0" x2="1010.0" y2="321.0" stroke="#ecf0f1" stroke-width="0.5"/>
<line x1="1010.0" y1="65.0" x2="1010.0" y2="385.0" stroke="#ecf0f1" stroke-width="0.5"/>
<line x1="690.0" y1="385.0" x2="1010.0" y2="385.0" stroke="#ecf0f1" stroke-width="0.5"/>
<rect x="690.0" y="65.0" width="320.0" height="320.0" fill="none" stroke="#ddd" stroke-width="1"/>
<text x="850" y="60" text-anchor="middle" font-size="12" font-weight="bold" fill="#2c3e50">Overlay (NRMS=0.095)</text>
<line x1="973.6" y1="350.0" x2="975.0" y2="336.7" stroke="#e74c3c" stroke-width="1.8" opacity="0.7"/>
<polygon points="975.0,336.7 976.6,340.4 972.6,339.9" fill="#e74c3c" opacity="0.7"/>
<line x1="917.5" y1="100.0" x2="881.2" y2="113.3" stroke="#3498db" stroke-width="1.8" opacity="0.7"/>
<polygon points="881.2,113.3 886.3,107.2 889.1,114.7" fill="#3498db" opacity="0.7"/>
<line x1="940.4" y1="231.6" x2="891.7" y2="253.2" stroke="#2ecc71" stroke-width="1.8" opacity="0.7"/>
<polygon points="891.7,253.2 896.4,246.7 899.7,254.1" fill="#2ecc71" opacity="0.7"/>
<line x1="726.4" y1="176.0" x2="725.0" y2="163.7" stroke="#f1c40f" stroke-width="1.8" opacity="0.7"/>
<polygon points="725.0,163.7 727.2,166.7 723.5,167.1" fill="#f1c40f" opacity="0.7"/>
<line x1="748.7" y1="236.4" x2="729.6" y2="227.8" stroke="#a0785a" stroke-width="1.8" opacity="0.7"/>
<polygon points="729.6,227.8 735.9,227.1 733.3,232.9" fill="#a0785a" opacity="0.7"/>
<defs><radialGradient id="grad_obj_0" cx="35%" cy="35%"><stop offset="0%" stop-color="white" stop-opacity="0.4"/><stop offset="100%" stop-color="#e74c3c" stop-opacity="0"/></radialGradient></defs>

<rect x="960.1" y="330.2" width="27.0" height="39.6" rx="13.5" ry="4.7" fill="#e74c3c" stroke="#c0392b" stroke-width="2.0" opacity="1.0"/>
<text x="973.6" y="327.0" text-anchor="middle" font-size="10" fill="#333" opacity="1.0">obj_0</text>
<defs><radialGradient id="grad_obj_1" cx="35%" cy="35%"><stop offset="0%" stop-color="white" stop-opacity="0.4"/><stop offset="100%" stop-color="#3498db" stop-opacity="0"/></radialGradient></defs>

<rect x="902.2" y="84.7" width="30.6" height="30.6" rx="3" ry="3" fill="#3498db" stroke="#2980b9" stroke-width="2.0" opacity="1.0"/>
<text x="917.5" y="77.0" text-anchor="middle" font-size="10" fill="#333" opacity="1.0">obj_1</text>
<defs><radialGradient id="grad_obj_2" cx="35%" cy="35%"><stop offset="0%" stop-color="white" stop-opacity="0.4"/><stop offset="100%" stop-color="#2ecc71" stop-opacity="0"/></radialGradient></defs>

<circle cx="940.4" cy="231.6" r="18" fill="#2ecc71" stroke="#27ae60" stroke-width="2.0" opacity="1.0"/>
<circle cx="940.4" cy="231.6" r="18" fill="url(#grad_obj_2)" opacity="1.0"/>
<text x="940.4" y="208.6" text-anchor="middle" font-size="10" fill="#333" opacity="1.0">obj_2</text>
<defs><radialGradient id="grad_obj_3" cx="35%" cy="35%"><stop offset="0%" stop-color="white" stop-opacity="0.4"/><stop offset="100%" stop-color="#f1c40f" stop-opacity="0"/></radialGradient></defs>

<circle cx="726.4" cy="176.0" r="12" fill="#f1c40f" stroke="#d4ac0f" stroke-width="2.0" opacity="1.0"/>
<circle cx="726.4" cy="176.0" r="12" fill="url(#grad_obj_3)" opacity="1.0"/>
<text x="726.4" y="159.0" text-anchor="middle" font-size="10" fill="#333" opacity="1.0">obj_3</text>
<defs><radialGradient id="grad_obj_4" cx="35%" cy="35%"><stop offset="0%" stop-color="white" stop-opacity="0.4"/><stop offset="100%" stop-color="#a0785a" stop-opacity="0"/></radialGradient></defs>

<rect x="739.7" y="223.2" width="18.0" height="26.4" rx="9.0" ry="3.1" fill="#a0785a" stroke="#8b6545" stroke-width="2.0" opacity="1.0"/>
<text x="748.7" y="219.4" text-anchor="middle" font-size="10" fill="#333" opacity="1.0">obj_4</text>

<rect x="961.5" y="316.9" width="27.0" height="39.6" rx="13.5" ry="4.7" fill="#e74c3c" stroke="#c0392b" stroke-width="1.0" stroke-dasharray="4,3" opacity="0.35"/>
<text x="975.0" y="313.7" text-anchor="middle" font-size="9" fill="#333" opacity="0.6499999999999999"></text>

<rect x="865.9" y="98.0" width="30.6" height="30.6" rx="3" ry="3" fill="#3498db" stroke="#2980b9" stroke-width="1.0" stroke-dasharray="4,3" opacity="0.35"/>
<text x="881.2" y="90.3" text-anchor="middle" font-size="9" fill="#333" opacity="0.6499999999999999"></text>

<circle cx="891.7" cy="253.2" r="18" fill="#2ecc71" stroke="#27ae60" stroke-width="1.0" stroke-dasharray="4,3" opacity="0.35"/>
<text x="891.7" y="230.2" text-anchor="middle" font-size="9" fill="#333" opacity="0.6499999999999999"></text>

<circle cx="725.0" cy="163.7" r="12" fill="#f1c40f" stroke="#d4ac0f" stroke-width="1.0" stroke-dasharray="4,3" opacity="0.35"/>
<text x="725.0" y="146.7" text-anchor="middle" font-size="9" fill="#333" opacity="0.6499999999999999"></text>

<rect x="720.6" y="214.6" width="18.0" height="26.4" rx="9.0" ry="3.1" fill="#a0785a" stroke="#8b6545" stroke-width="1.0" stroke-dasharray="4,3" opacity="0.35"/>
<text x="729.6" y="210.8" text-anchor="middle" font-size="9" fill="#333" opacity="0.6499999999999999"></text>
<circle cx="940" cy="75" r="5" fill="#95a5a6" stroke="#333" stroke-width="1"/><text x="950" y="79" font-size="9" fill="#555">GT</text><circle cx="940" cy="91" r="5" fill="#95a5a6" stroke="#333" stroke-width="1" stroke-dasharray="3,2" opacity="0.5"/><text x="950" y="95" font-size="9" fill="#555">Recon</text><line x1="934" y1="107" x2="946" y2="107" stroke="#e74c3c" stroke-width="1.5"/><text x="950" y="111" font-size="9" fill="#555">Distortion</text>
</svg>
