<svg xmlns="http://www.w3.org/2000/svg" xmlns:xlink="http://www.w3.org/1999/xlink" width="1030" height="415" viewBox="0 0 1030 415" style="font-family: 'Helvetica Neue', Arial, sans-serif;">
<rect width="1030" height="415" fill="#fafafa"/>

<text x="515" y="22" text-anchor="middle" font-size="14" font-weight="bold" fill="#2c3e50">Scene: n04_000092 | gpt-5_4-0305-global</text>
<text x="515" y="42" text-anchor="middle" font-size="10" fill="#7f8c8d">CSR_QRR=1.000  |  CSR_TRR=1.000  |  NRMS=0.2409  |  τ=0.733  |  K=1</text>
<line x1="20.0" y1="65.0" x2="20.0" y2="385.0" stroke="#ecf0f1" stroke-width="0.5"/>
<line x1="20.0" y1="65.0" x2="340.0" y2="65.0" stroke="#ecf0f1" stroke-width="0.5"/>
<line x1="84.0" y1="65.0" x2="84.0" y2="385.0" stroke="#ecf0f1" stroke-width="0.5"/>
<line x1="20.0" y1="129.0" x2="340.0" y2="129.0" stroke="#ecf0f1" stroke-width="0.5"/>
<line x1="148.0" y1="65.0" x2="148.0" y2="385.0" stroke="#ecf0f1" stroke-width="0.5"/>
<line x1="20.0" y1="193.0" x2="340.0" y2="193.0" stroke="#ecf0f1" stroke-width="0.5"/>
<line x1="212.0" y1="65.0" x2="212.0" y2="385.0" stroke="#ecf0f1" stroke-width="0.5"/>
<line x1="20.0" y1="257.0" x2="340.0" y2="257.0" stroke="#ecf0f1" stroke-width="0.5"/>
<line x1="276.0" y1="65.0" x2="276.0" y2="385.0" stroke="#ecf0f1" stroke-width="0.5"/>
<line x1="20.0" y1="321.0" x2="340.0" y2="321.0" stroke="#ecf0f1" stroke-width="0.5"/>
<line x1="340.0" y1="65.0" x2="340.0" y2="385.0" stroke="#ecf0f1" stroke-width="0.5"/>
<line x1="20.0" y1="385.0" x2="340.0" y2="385.0" stroke="#ecf0f1" stroke-width="0.5"/>
<rect x="20.0" y="65.0" width="320.0" height="320.0" fill="none" stroke="#ddd" stroke-width="1"/>
<text x="180" y="60" text-anchor="middle" font-size="12" font-weight="bold" fill="#2c3e50">Ground Truth</text>

<rect x="218.9" y="84.7" width="30.6" height="30.6" rx="3" ry="3" fill="#e74c3c" stroke="#c0392b" stroke-width="2.0" opacity="0.85"/>
<text x="234.2" y="77.0" text-anchor="middle" font-size="10" fill="#333" opacity="1.0">obj_0</text>
<defs><radialGradient id="grad_obj_1" cx="35%" cy="35%"><stop offset="0%" stop-color="white" stop-opacity="0.4"/><stop offset="100%" stop-color="#f1c40f" stop-opacity="0"/></radialGradient></defs>

<rect x="107.9" y="334.7" width="30.6" height="30.6" rx="3" ry="3" fill="#f1c40f" stroke="#d4ac0f" stroke-width="2.0" opacity="1.0"/>
<text x="123.2" y="327.0" text-anchor="middle" font-size="10" fill="#333" opacity="1.0">obj_1</text>
<defs><radialGradient id="grad_obj_2" cx="35%" cy="35%"><stop offset="0%" stop-color="white" stop-opacity="0.4"/><stop offset="100%" stop-color="#95a5a6" stop-opacity="0"/></radialGradient></defs>

<rect x="79.2" y="95.2" width="18.0" height="26.4" rx="9.0" ry="3.1" fill="#95a5a6" stroke="#7f8c8d" stroke-width="2.0" opacity="1.0"/>
<text x="88.2" y="91.4" text-anchor="middle" font-size="10" fill="#333" opacity="1.0">obj_2</text>

<circle cx="271.8" cy="346.9" r="12" fill="#9b59b6" stroke="#8e44ad" stroke-width="2.0" opacity="0.85"/>
<text x="271.8" y="329.9" text-anchor="middle" font-size="10" fill="#333" opacity="1.0">obj_3</text>
<line x1="355.0" y1="65.0" x2="355.0" y2="385.0" stroke="#ecf0f1" stroke-width="0.5"/>
<line x1="355.0" y1="65.0" x2="675.0" y2="65.0" stroke="#ecf0f1" stroke-width="0.5"/>
<line x1="419.0" y1="65.0" x2="419.0" y2="385.0" stroke="#ecf0f1" stroke-width="0.5"/>
<line x1="355.0" y1="129.0" x2="675.0" y2="129.0" stroke="#ecf0f1" stroke-width="0.5"/>
<line x1="483.0" y1="65.0" x2="483.0" y2="385.0" stroke="#ecf0f1" stroke-width="0.5"/>
<line x1="355.0" y1="193.0" x2="675.0" y2="193.0" stroke="#ecf0f1" stroke-width="0.5"/>
<line x1="547.0" y1="65.0" x2="547.0" y2="385.0" stroke="#ecf0f1" stroke-width="0.5"/>
<line x1="355.0" y1="257.0" x2="675.0" y2="257.0" stroke="#ecf0f1" stroke-width="0.5"/>
<line x1="611.0" y1="65.0" x2="611.0" y2="385.0" stroke="#ecf0f1" stroke-width="0.5"/>
<line x1="355.0" y1="321.0" x2="675.0" y2="321.0" stroke="#ecf0f1" stroke-width="0.5"/>
<line x1="675.0" y1="65.0" x2="675.0" y2="385.0" stroke="#ecf0f1" stroke-width="0.5"/>
<line x1="355.0" y1="385.0" x2="675.0" y2="385.0" stroke="#ecf0f1" stroke-width="0.5"/>
<rect x="355.0" y="65.0" width="320.0" height="320.0" fill="none" stroke="#ddd" stroke-width="1"/>
<text x="515" y="60" text-anchor="middle" font-size="12" font-weight="bold" fill="#2c3e50">Reconstructed</text>

<rect x="441.4" y="152.0" width="30.6" height="30.6" rx="3" ry="3" fill="#e74c3c" stroke="#c0392b" stroke-width="2.0" opacity="0.85"/>
<text x="456.7" y="144.3" text-anchor="middle" font-size="10" fill="#333" opacity="1.0">obj_0</text>
<defs><radialGradient id="grad_obj_1" cx="35%" cy="35%"><stop offset="0%" stop-color="white" stop-opacity="0.4"/><stop offset="100%" stop-color="#f1c40f" stop-opacity="0"/></radialGradient></defs>

<rect x="530.1" y="247.0" width="30.6" height="30.6" rx="3" ry="3" fill="#f1c40f" stroke="#d4ac0f" stroke-width="2.0" opacity="1.0"/>
<text x="545.4" y="239.3" text-anchor="middle" font-size="10" fill="#333" opacity="1.0">obj_1</text>
<defs><radialGradient id="grad_obj_2" cx="35%" cy="35%"><stop offset="0%" stop-color="white" stop-opacity="0.4"/><stop offset="100%" stop-color="#95a5a6" stop-opacity="0"/></radialGradient></defs>

<rect x="510.0" y="86.8" width="18.0" height="26.4" rx="9.0" ry="3.1" fill="#95a5a6" stroke="#7f8c8d" stroke-width="2.0" opacity="1.0"/>
<text x="519.0" y="83.0" text-anchor="middle" font-size="10" fill="#333" opacity="1.0">obj_2</text>

<circle cx="573.3" cy="350.0" r="12" fill="#9b59b6" stroke="#8e44ad" stroke-width="2.0" opacity="0.85"/>
<text x="573.3" y="333.0" text-anchor="middle" font-size="10" fill="#333" opacity="1.0">obj_3</text>
<line x1="690.0" y1="65.0" x2="690.0" y2="385.0" stroke="#ecf0f1" stroke-width="0.5"/>
<line x1="690.0" y1="65.0" x2="1010.0" y2="65.0" stroke="#ecf0f1" stroke-width="0.5"/>
<line x1="754.0" y1="65.0" x2="754.0" y2="385.0" stroke="#ecf0f1" stroke-width="0.5"/>
<line x1="690.0" y1="129.0" x2="1010.0" y2="129.0" stroke="#ecf0f1" stroke-width="0.5"/>
<line x1="818.0" y1="65.0" x2="818.0" y2="385.0" stroke="#ecf0f1" stroke-width="0.5"/>
<line x1="690.0" y1="193.0" x2="1010.0" y2="193.0" stroke="#ecf0f1" stroke-width="0.5"/>
<line x1="882.0" y1="65.0" x2="882.0" y2="385.0" stroke="#ecf0f1" stroke-width="0.5"/>
<line x1="690.0" y1="257.0" x2="1010.0" y2="257.0" stroke="#ecf0f1" stroke-width="0.5"/>
<line x1="946.0" y1="65.0" x2="946.0" y2="385.0" stroke="#ecf0f1" stroke-width="0.5"/>
<line x1="690.0" y1="321.0" x2="1010.0" y2="321.0" stroke="#ecf0f1" stroke-width="0.5"/>
<line x1="1010.0" y1="65.0" x2="1010.0" y2="385.0" stroke="#ecf0f1" stroke-width="0.5"/>
<line x1="690.0" y1="385.0" x2="1010.0" y2="385.0" stroke="#ecf0f1" stroke-width="0.5"/>
<rect x="690.0" y="65.0" width="320.0" height="320.0" fill="none" stroke="#ddd" stroke-width="1"/>
<text x="850" y="60" text-anchor="middle" font-size="12" font-weight="bold" fill="#2c3e50">Overlay (NRMS=0.446)</text>
<line x1="904.2" y1="100.0" x2="791.7" y2="167.3" stroke="#e74c3c" stroke-width="1.8" opacity="0.7"/>
<polygon points="791.7,167.3 795.6,160.3 799.7,167.2" fill="#e74c3c" opacity="0.7"/>
<line x1="793.2" y1="350.0" x2="880.4" y2="262.3" stroke="#f1c40f" stroke-width="1.8" opacity="0.7"/>
<polygon points="880.4,262.3 878.4,270.1 872.7,264.4" fill="#f1c40f" opacity="0.7"/>
<line x1="758.2" y1="108.4" x2="854.0" y2="100.0" stroke="#95a5a6" stroke-width="1.8" opacity="0.7"/>
<polygon points="854.0,100.0 847.4,104.6 846.7,96.6" fill="#95a5a6" opacity="0.7"/>
<line x1="941.8" y1="346.9" x2="908.3" y2="350.0" stroke="#9b59b6" stroke-width="1.8" opacity="0.7"/>
<polygon points="908.3,350.0 914.9,345.4 915.6,353.4" fill="#9b59b6" opacity="0.7"/>

<rect x="888.9" y="84.7" width="30.6" height="30.6" rx="3" ry="3" fill="#e74c3c" stroke="#c0392b" stroke-width="2.0" opacity="0.85"/>
<text x="904.2" y="77.0" text-anchor="middle" font-size="10" fill="#333" opacity="1.0">obj_0</text>
<defs><radialGradient id="grad_obj_1" cx="35%" cy="35%"><stop offset="0%" stop-color="white" stop-opacity="0.4"/><stop offset="100%" stop-color="#f1c40f" stop-opacity="0"/></radialGradient></defs>

<rect x="777.9" y="334.7" width="30.6" height="30.6" rx="3" ry="3" fill="#f1c40f" stroke="#d4ac0f" stroke-width="2.0" opacity="1.0"/>
<text x="793.2" y="327.0" text-anchor="middle" font-size="10" fill="#333" opacity="1.0">obj_1</text>
<defs><radialGradient id="grad_obj_2" cx="35%" cy="35%"><stop offset="0%" stop-color="white" stop-opacity="0.4"/><stop offset="100%" stop-color="#95a5a6" stop-opacity="0"/></radialGradient></defs>

<rect x="749.2" y="95.2" width="18.0" height="26.4" rx="9.0" ry="3.1" fill="#95a5a6" stroke="#7f8c8d" stroke-width="2.0" opacity="1.0"/>
<text x="758.2" y="91.4" text-anchor="middle" font-size="10" fill="#333" opacity="1.0">obj_2</text>

<circle cx="941.8" cy="346.9" r="12" fill="#9b59b6" stroke="#8e44ad" stroke-width="2.0" opacity="0.85"/>
<text x="941.8" y="329.9" text-anchor="middle" font-size="10" fill="#333" opacity="1.0">obj_3</text>

<rect x="776.4" y="152.0" width="30.6" height="30.6" rx="3" ry="3" fill="#e74c3c" stroke="#c0392b" stroke-width="1.0" stroke-dasharray="4,3" opacity="0.2975"/>
<text x="791.7" y="144.3" text-anchor="middle" font-size="9" fill="#333" opacity="0.5974999999999999"></text>

<rect x="865.1" y="247.0" width="30.6" height="30.6" rx="3" ry="3" fill="#f1c40f" stroke="#d4ac0f" stroke-width="1.0" stroke-dasharray="4,3" opacity="0.35"/>
<text x="880.4" y="239.3" text-anchor="middle" font-size="9" fill="#333" opacity="0.6499999999999999"></text>

<rect x="845.0" y="86.8" width="18.0" height="26.4" rx="9.0" ry="3.1" fill="#95a5a6" stroke="#7f8c8d" stroke-width="1.0" stroke-dasharray="4,3" opacity="0.35"/>
<text x="854.0" y="83.0" text-anchor="middle" font-size="9" fill="#333" opacity="0.6499999999999999"></text>

<circle cx="908.3" cy="350.0" r="12" fill="#9b59b6" stroke="#8e44ad" stroke-width="1.0" stroke-dasharray="4,3" opacity="0.2975"/>
<text x="908.3" y="333.0" text-anchor="middle" font-size="9" fill="#333" opacity="0.5974999999999999"></text>
<circle cx="940" cy="75" r="5" fill="#95a5a6" stroke="#333" stroke-width="1"/><text x="950" y="79" font-size="9" fill="#555">GT</text><circle cx="940" cy="91" r="5" fill="#95a5a6" stroke="#333" stroke-width="1" stroke-dasharray="3,2" opacity="0.5"/><text x="950" y="95" font-size="9" fill="#555">Recon</text><line x1="934" y1="107" x2="946" y2="107" stroke="#e74c3c" stroke-width="1.5"/><text x="950" y="111" font-size="9" fill="#555">Distortion</text>
</svg>
