<svg xmlns="http://www.w3.org/2000/svg" xmlns:xlink="http://www.w3.org/1999/xlink" width="1030" height="415" viewBox="0 0 1030 415" style="font-family: 'Helvetica Neue', Arial, sans-serif;">
<rect width="1030" height="415" fill="#fafafa"/>

<text x="515" y="22" text-anchor="middle" font-size="14" font-weight="bold" fill="#2c3e50">Scene: n04_000096 | doubao-seed-2_0-pro_multi_view</text>
<text x="515" y="42" text-anchor="middle" font-size="10" fill="#7f8c8d">CSR_QRR=0.667  |  CSR_TRR=0.458  |  NRMS=0.4791  |  τ=-0.200  |  K=8</text>
<line x1="20.0" y1="65.0" x2="20.0" y2="385.0" stroke="#ecf0f1" stroke-width="0.5"/>
<line x1="20.0" y1="65.0" x2="340.0" y2="65.0" stroke="#ecf0f1" stroke-width="0.5"/>
<line x1="84.0" y1="65.0" x2="84.0" y2="385.0" stroke="#ecf0f1" stroke-width="0.5"/>
<line x1="20.0" y1="129.0" x2="340.0" y2="129.0" stroke="#ecf0f1" stroke-width="0.5"/>
<line x1="148.0" y1="65.0" x2="148.0" y2="385.0" stroke="#ecf0f1" stroke-width="0.5"/>
<line x1="20.0" y1="193.0" x2="340.0" y2="193.0" stroke="#ecf0f1" stroke-width="0.5"/>
<line x1="212.0" y1="65.0" x2="212.0" y2="385.0" stroke="#ecf0f1" stroke-width="0.5"/>
<line x1="20.0" y1="257.0" x2="340.0" y2="257.0" stroke="#ecf0f1" stroke-width="0.5"/>
<line x1="276.0" y1="65.0" x2="276.0" y2="385.0" stroke="#ecf0f1" stroke-width="0.5"/>
<line x1="20.0" y1="321.0" x2="340.0" y2="321.0" stroke="#ecf0f1" stroke-width="0.5"/>
<line x1="340.0" y1="65.0" x2="340.0" y2="385.0" stroke="#ecf0f1" stroke-width="0.5"/>
<line x1="20.0" y1="385.0" x2="340.0" y2="385.0" stroke="#ecf0f1" stroke-width="0.5"/>
<rect x="20.0" y="65.0" width="320.0" height="320.0" fill="none" stroke="#ddd" stroke-width="1"/>
<text x="180" y="60" text-anchor="middle" font-size="12" font-weight="bold" fill="#2c3e50">Ground Truth</text>

<circle cx="214.7" cy="290.1" r="18" fill="#a0785a" stroke="#8b6545" stroke-width="2.0" opacity="0.85"/>
<text x="214.7" y="267.1" text-anchor="middle" font-size="10" fill="#333" opacity="1.0">obj_0</text>

<circle cx="112.4" cy="338.7" r="12" fill="#e74c3c" stroke="#c0392b" stroke-width="2.0" opacity="0.85"/>
<text x="112.4" y="321.7" text-anchor="middle" font-size="10" fill="#333" opacity="1.0">obj_1</text>

<circle cx="305.0" cy="111.3" r="12" fill="#95a5a6" stroke="#7f8c8d" stroke-width="2.0" opacity="0.85"/>
<text x="305.0" y="94.3" text-anchor="middle" font-size="10" fill="#333" opacity="1.0">obj_2</text>

<circle cx="55.0" cy="216.2" r="12" fill="#95a5a6" stroke="#7f8c8d" stroke-width="2.0" opacity="0.85"/>
<text x="55.0" y="199.2" text-anchor="middle" font-size="10" fill="#333" opacity="1.0">obj_3</text>
<line x1="355.0" y1="65.0" x2="355.0" y2="385.0" stroke="#ecf0f1" stroke-width="0.5"/>
<line x1="355.0" y1="65.0" x2="675.0" y2="65.0" stroke="#ecf0f1" stroke-width="0.5"/>
<line x1="419.0" y1="65.0" x2="419.0" y2="385.0" stroke="#ecf0f1" stroke-width="0.5"/>
<line x1="355.0" y1="129.0" x2="675.0" y2="129.0" stroke="#ecf0f1" stroke-width="0.5"/>
<line x1="483.0" y1="65.0" x2="483.0" y2="385.0" stroke="#ecf0f1" stroke-width="0.5"/>
<line x1="355.0" y1="193.0" x2="675.0" y2="193.0" stroke="#ecf0f1" stroke-width="0.5"/>
<line x1="547.0" y1="65.0" x2="547.0" y2="385.0" stroke="#ecf0f1" stroke-width="0.5"/>
<line x1="355.0" y1="257.0" x2="675.0" y2="257.0" stroke="#ecf0f1" stroke-width="0.5"/>
<line x1="611.0" y1="65.0" x2="611.0" y2="385.0" stroke="#ecf0f1" stroke-width="0.5"/>
<line x1="355.0" y1="321.0" x2="675.0" y2="321.0" stroke="#ecf0f1" stroke-width="0.5"/>
<line x1="675.0" y1="65.0" x2="675.0" y2="385.0" stroke="#ecf0f1" stroke-width="0.5"/>
<line x1="355.0" y1="385.0" x2="675.0" y2="385.0" stroke="#ecf0f1" stroke-width="0.5"/>
<rect x="355.0" y="65.0" width="320.0" height="320.0" fill="none" stroke="#ddd" stroke-width="1"/>
<text x="515" y="60" text-anchor="middle" font-size="12" font-weight="bold" fill="#2c3e50">Reconstructed</text>

<circle cx="640.0" cy="302.2" r="18" fill="#a0785a" stroke="#8b6545" stroke-width="2.0" opacity="0.85"/>
<text x="640.0" y="279.2" text-anchor="middle" font-size="10" fill="#333" opacity="1.0">obj_0</text>

<circle cx="637.1" cy="147.9" r="12" fill="#e74c3c" stroke="#c0392b" stroke-width="2.0" opacity="0.85"/>
<text x="637.1" y="130.9" text-anchor="middle" font-size="10" fill="#333" opacity="1.0">obj_1</text>

<circle cx="637.1" cy="147.8" r="12" fill="#95a5a6" stroke="#7f8c8d" stroke-width="2.0" opacity="0.85"/>
<text x="637.1" y="130.8" text-anchor="middle" font-size="10" fill="#333" opacity="1.0">obj_2</text>

<circle cx="390.0" cy="155.0" r="12" fill="#95a5a6" stroke="#7f8c8d" stroke-width="2.0" opacity="0.85"/>
<text x="390.0" y="138.0" text-anchor="middle" font-size="10" fill="#333" opacity="1.0">obj_3</text>
<line x1="690.0" y1="65.0" x2="690.0" y2="385.0" stroke="#ecf0f1" stroke-width="0.5"/>
<line x1="690.0" y1="65.0" x2="1010.0" y2="65.0" stroke="#ecf0f1" stroke-width="0.5"/>
<line x1="754.0" y1="65.0" x2="754.0" y2="385.0" stroke="#ecf0f1" stroke-width="0.5"/>
<line x1="690.0" y1="129.0" x2="1010.0" y2="129.0" stroke="#ecf0f1" stroke-width="0.5"/>
<line x1="818.0" y1="65.0" x2="818.0" y2="385.0" stroke="#ecf0f1" stroke-width="0.5"/>
<line x1="690.0" y1="193.0" x2="1010.0" y2="193.0" stroke="#ecf0f1" stroke-width="0.5"/>
<line x1="882.0" y1="65.0" x2="882.0" y2="385.0" stroke="#ecf0f1" stroke-width="0.5"/>
<line x1="690.0" y1="257.0" x2="1010.0" y2="257.0" stroke="#ecf0f1" stroke-width="0.5"/>
<line x1="946.0" y1="65.0" x2="946.0" y2="385.0" stroke="#ecf0f1" stroke-width="0.5"/>
<line x1="690.0" y1="321.0" x2="1010.0" y2="321.0" stroke="#ecf0f1" stroke-width="0.5"/>
<line x1="1010.0" y1="65.0" x2="1010.0" y2="385.0" stroke="#ecf0f1" stroke-width="0.5"/>
<line x1="690.0" y1="385.0" x2="1010.0" y2="385.0" stroke="#ecf0f1" stroke-width="0.5"/>
<rect x="690.0" y="65.0" width="320.0" height="320.0" fill="none" stroke="#ddd" stroke-width="1"/>
<text x="850" y="60" text-anchor="middle" font-size="12" font-weight="bold" fill="#2c3e50">Overlay (NRMS=0.479)</text>
<line x1="884.7" y1="290.1" x2="975.0" y2="302.2" stroke="#a0785a" stroke-width="1.8" opacity="0.7"/>
<polygon points="975.0,302.2 967.6,305.2 968.7,297.3" fill="#a0785a" opacity="0.7"/>
<line x1="782.4" y1="338.7" x2="972.1" y2="147.9" stroke="#e74c3c" stroke-width="1.8" opacity="0.7"/>
<polygon points="972.1,147.9 970.1,155.6 964.4,149.9" fill="#e74c3c" opacity="0.7"/>
<line x1="975.0" y1="111.3" x2="972.1" y2="147.8" stroke="#95a5a6" stroke-width="1.8" opacity="0.7"/>
<polygon points="972.1,147.8 968.7,140.6 976.6,141.3" fill="#95a5a6" opacity="0.7"/>
<line x1="725.0" y1="216.2" x2="725.0" y2="155.0" stroke="#95a5a6" stroke-width="1.8" opacity="0.7"/>
<polygon points="725.0,155.0 729.0,161.9 721.0,161.9" fill="#95a5a6" opacity="0.7"/>

<circle cx="884.7" cy="290.1" r="18" fill="#a0785a" stroke="#8b6545" stroke-width="2.0" opacity="0.85"/>
<text x="884.7" y="267.1" text-anchor="middle" font-size="10" fill="#333" opacity="1.0">obj_0</text>

<circle cx="782.4" cy="338.7" r="12" fill="#e74c3c" stroke="#c0392b" stroke-width="2.0" opacity="0.85"/>
<text x="782.4" y="321.7" text-anchor="middle" font-size="10" fill="#333" opacity="1.0">obj_1</text>

<circle cx="975.0" cy="111.3" r="12" fill="#95a5a6" stroke="#7f8c8d" stroke-width="2.0" opacity="0.85"/>
<text x="975.0" y="94.3" text-anchor="middle" font-size="10" fill="#333" opacity="1.0">obj_2</text>

<circle cx="725.0" cy="216.2" r="12" fill="#95a5a6" stroke="#7f8c8d" stroke-width="2.0" opacity="0.85"/>
<text x="725.0" y="199.2" text-anchor="middle" font-size="10" fill="#333" opacity="1.0">obj_3</text>

<circle cx="975.0" cy="302.2" r="18" fill="#a0785a" stroke="#8b6545" stroke-width="1.0" stroke-dasharray="4,3" opacity="0.2975"/>
<text x="975.0" y="279.2" text-anchor="middle" font-size="9" fill="#333" opacity="0.5974999999999999"></text>

<circle cx="972.1" cy="147.9" r="12" fill="#e74c3c" stroke="#c0392b" stroke-width="1.0" stroke-dasharray="4,3" opacity="0.2975"/>
<text x="972.1" y="130.9" text-anchor="middle" font-size="9" fill="#333" opacity="0.5974999999999999"></text>

<circle cx="972.1" cy="147.8" r="12" fill="#95a5a6" stroke="#7f8c8d" stroke-width="1.0" stroke-dasharray="4,3" opacity="0.2975"/>
<text x="972.1" y="130.8" text-anchor="middle" font-size="9" fill="#333" opacity="0.5974999999999999"></text>

<circle cx="725.0" cy="155.0" r="12" fill="#95a5a6" stroke="#7f8c8d" stroke-width="1.0" stroke-dasharray="4,3" opacity="0.2975"/>
<text x="725.0" y="138.0" text-anchor="middle" font-size="9" fill="#333" opacity="0.5974999999999999"></text>
<circle cx="940" cy="75" r="5" fill="#95a5a6" stroke="#333" stroke-width="1"/><text x="950" y="79" font-size="9" fill="#555">GT</text><circle cx="940" cy="91" r="5" fill="#95a5a6" stroke="#333" stroke-width="1" stroke-dasharray="3,2" opacity="0.5"/><text x="950" y="95" font-size="9" fill="#555">Recon</text><line x1="934" y1="107" x2="946" y2="107" stroke="#e74c3c" stroke-width="1.5"/><text x="950" y="111" font-size="9" fill="#555">Distortion</text>
</svg>
