<svg xmlns="http://www.w3.org/2000/svg" xmlns:xlink="http://www.w3.org/1999/xlink" width="1030" height="415" viewBox="0 0 1030 415" style="font-family: 'Helvetica Neue', Arial, sans-serif;">
<rect width="1030" height="415" fill="#fafafa"/>

<text x="515" y="22" text-anchor="middle" font-size="14" font-weight="bold" fill="#2c3e50">Scene: n04_000093 | claude-sonnet-4-6</text>
<text x="515" y="42" text-anchor="middle" font-size="10" fill="#7f8c8d">CSR_QRR=0.643  |  CSR_TRR=0.750  |  NRMS=0.2018  |  τ=0.333  |  K=1</text>
<line x1="20.0" y1="65.0" x2="20.0" y2="385.0" stroke="#ecf0f1" stroke-width="0.5"/>
<line x1="20.0" y1="65.0" x2="340.0" y2="65.0" stroke="#ecf0f1" stroke-width="0.5"/>
<line x1="84.0" y1="65.0" x2="84.0" y2="385.0" stroke="#ecf0f1" stroke-width="0.5"/>
<line x1="20.0" y1="129.0" x2="340.0" y2="129.0" stroke="#ecf0f1" stroke-width="0.5"/>
<line x1="148.0" y1="65.0" x2="148.0" y2="385.0" stroke="#ecf0f1" stroke-width="0.5"/>
<line x1="20.0" y1="193.0" x2="340.0" y2="193.0" stroke="#ecf0f1" stroke-width="0.5"/>
<line x1="212.0" y1="65.0" x2="212.0" y2="385.0" stroke="#ecf0f1" stroke-width="0.5"/>
<line x1="20.0" y1="257.0" x2="340.0" y2="257.0" stroke="#ecf0f1" stroke-width="0.5"/>
<line x1="276.0" y1="65.0" x2="276.0" y2="385.0" stroke="#ecf0f1" stroke-width="0.5"/>
<line x1="20.0" y1="321.0" x2="340.0" y2="321.0" stroke="#ecf0f1" stroke-width="0.5"/>
<line x1="340.0" y1="65.0" x2="340.0" y2="385.0" stroke="#ecf0f1" stroke-width="0.5"/>
<line x1="20.0" y1="385.0" x2="340.0" y2="385.0" stroke="#ecf0f1" stroke-width="0.5"/>
<rect x="20.0" y="65.0" width="320.0" height="320.0" fill="none" stroke="#ddd" stroke-width="1"/>
<text x="180" y="60" text-anchor="middle" font-size="12" font-weight="bold" fill="#2c3e50">Ground Truth</text>
<defs><radialGradient id="grad_obj_0" cx="35%" cy="35%"><stop offset="0%" stop-color="white" stop-opacity="0.4"/><stop offset="100%" stop-color="#2ecc71" stop-opacity="0"/></radialGradient></defs>

<rect x="84.2" y="89.8" width="20.4" height="20.4" rx="3" ry="3" fill="#2ecc71" stroke="#27ae60" stroke-width="2.0" opacity="1.0"/>
<text x="94.4" y="83.0" text-anchor="middle" font-size="10" fill="#333" opacity="1.0">obj_0</text>

<circle cx="265.6" cy="350.0" r="12" fill="#a0785a" stroke="#8b6545" stroke-width="2.0" opacity="0.85"/>
<text x="265.6" y="333.0" text-anchor="middle" font-size="10" fill="#333" opacity="1.0">obj_1</text>

<rect x="95.6" y="290.3" width="18.0" height="26.4" rx="9.0" ry="3.1" fill="#f1c40f" stroke="#d4ac0f" stroke-width="2.0" opacity="0.85"/>
<text x="104.6" y="286.5" text-anchor="middle" font-size="10" fill="#333" opacity="1.0">obj_2</text>

<rect x="189.5" y="236.8" width="30.6" height="30.6" rx="3" ry="3" fill="#1abc9c" stroke="#16a085" stroke-width="2.0" opacity="0.85"/>
<text x="204.8" y="229.1" text-anchor="middle" font-size="10" fill="#333" opacity="1.0">obj_3</text>
<line x1="355.0" y1="65.0" x2="355.0" y2="385.0" stroke="#ecf0f1" stroke-width="0.5"/>
<line x1="355.0" y1="65.0" x2="675.0" y2="65.0" stroke="#ecf0f1" stroke-width="0.5"/>
<line x1="419.0" y1="65.0" x2="419.0" y2="385.0" stroke="#ecf0f1" stroke-width="0.5"/>
<line x1="355.0" y1="129.0" x2="675.0" y2="129.0" stroke="#ecf0f1" stroke-width="0.5"/>
<line x1="483.0" y1="65.0" x2="483.0" y2="385.0" stroke="#ecf0f1" stroke-width="0.5"/>
<line x1="355.0" y1="193.0" x2="675.0" y2="193.0" stroke="#ecf0f1" stroke-width="0.5"/>
<line x1="547.0" y1="65.0" x2="547.0" y2="385.0" stroke="#ecf0f1" stroke-width="0.5"/>
<line x1="355.0" y1="257.0" x2="675.0" y2="257.0" stroke="#ecf0f1" stroke-width="0.5"/>
<line x1="611.0" y1="65.0" x2="611.0" y2="385.0" stroke="#ecf0f1" stroke-width="0.5"/>
<line x1="355.0" y1="321.0" x2="675.0" y2="321.0" stroke="#ecf0f1" stroke-width="0.5"/>
<line x1="675.0" y1="65.0" x2="675.0" y2="385.0" stroke="#ecf0f1" stroke-width="0.5"/>
<line x1="355.0" y1="385.0" x2="675.0" y2="385.0" stroke="#ecf0f1" stroke-width="0.5"/>
<rect x="355.0" y="65.0" width="320.0" height="320.0" fill="none" stroke="#ddd" stroke-width="1"/>
<text x="515" y="60" text-anchor="middle" font-size="12" font-weight="bold" fill="#2c3e50">Reconstructed</text>
<defs><radialGradient id="grad_obj_0" cx="35%" cy="35%"><stop offset="0%" stop-color="white" stop-opacity="0.4"/><stop offset="100%" stop-color="#2ecc71" stop-opacity="0"/></radialGradient></defs>

<rect x="456.7" y="128.1" width="20.4" height="20.4" rx="3" ry="3" fill="#2ecc71" stroke="#27ae60" stroke-width="2.0" opacity="1.0"/>
<text x="466.9" y="121.3" text-anchor="middle" font-size="10" fill="#333" opacity="1.0">obj_0</text>

<circle cx="640.0" cy="311.7" r="12" fill="#a0785a" stroke="#8b6545" stroke-width="2.0" opacity="0.85"/>
<text x="640.0" y="294.7" text-anchor="middle" font-size="10" fill="#333" opacity="1.0">obj_1</text>

<rect x="381.0" y="256.9" width="18.0" height="26.4" rx="9.0" ry="3.1" fill="#f1c40f" stroke="#d4ac0f" stroke-width="2.0" opacity="0.85"/>
<text x="390.0" y="253.1" text-anchor="middle" font-size="10" fill="#333" opacity="1.0">obj_2</text>

<rect x="501.0" y="238.6" width="30.6" height="30.6" rx="3" ry="3" fill="#1abc9c" stroke="#16a085" stroke-width="2.0" opacity="0.85"/>
<text x="516.3" y="230.9" text-anchor="middle" font-size="10" fill="#333" opacity="1.0">obj_3</text>
<line x1="690.0" y1="65.0" x2="690.0" y2="385.0" stroke="#ecf0f1" stroke-width="0.5"/>
<line x1="690.0" y1="65.0" x2="1010.0" y2="65.0" stroke="#ecf0f1" stroke-width="0.5"/>
<line x1="754.0" y1="65.0" x2="754.0" y2="385.0" stroke="#ecf0f1" stroke-width="0.5"/>
<line x1="690.0" y1="129.0" x2="1010.0" y2="129.0" stroke="#ecf0f1" stroke-width="0.5"/>
<line x1="818.0" y1="65.0" x2="818.0" y2="385.0" stroke="#ecf0f1" stroke-width="0.5"/>
<line x1="690.0" y1="193.0" x2="1010.0" y2="193.0" stroke="#ecf0f1" stroke-width="0.5"/>
<line x1="882.0" y1="65.0" x2="882.0" y2="385.0" stroke="#ecf0f1" stroke-width="0.5"/>
<line x1="690.0" y1="257.0" x2="1010.0" y2="257.0" stroke="#ecf0f1" stroke-width="0.5"/>
<line x1="946.0" y1="65.0" x2="946.0" y2="385.0" stroke="#ecf0f1" stroke-width="0.5"/>
<line x1="690.0" y1="321.0" x2="1010.0" y2="321.0" stroke="#ecf0f1" stroke-width="0.5"/>
<line x1="1010.0" y1="65.0" x2="1010.0" y2="385.0" stroke="#ecf0f1" stroke-width="0.5"/>
<line x1="690.0" y1="385.0" x2="1010.0" y2="385.0" stroke="#ecf0f1" stroke-width="0.5"/>
<rect x="690.0" y="65.0" width="320.0" height="320.0" fill="none" stroke="#ddd" stroke-width="1"/>
<text x="850" y="60" text-anchor="middle" font-size="12" font-weight="bold" fill="#2c3e50">Overlay (NRMS=0.202)</text>
<line x1="764.4" y1="100.0" x2="801.9" y2="138.3" stroke="#2ecc71" stroke-width="1.8" opacity="0.7"/>
<polygon points="801.9,138.3 794.2,136.2 800.0,130.6" fill="#2ecc71" opacity="0.7"/>
<line x1="935.6" y1="350.0" x2="975.0" y2="311.7" stroke="#a0785a" stroke-width="1.8" opacity="0.7"/>
<polygon points="975.0,311.7 972.8,319.3 967.2,313.6" fill="#a0785a" opacity="0.7"/>
<line x1="774.6" y1="303.5" x2="725.0" y2="270.1" stroke="#f1c40f" stroke-width="1.8" opacity="0.7"/>
<polygon points="725.0,270.1 733.0,270.7 728.5,277.3" fill="#f1c40f" opacity="0.7"/>
<line x1="874.8" y1="252.1" x2="851.3" y2="253.9" stroke="#1abc9c" stroke-width="1.8" opacity="0.7"/>
<polygon points="851.3,253.9 857.2,249.9 857.7,256.9" fill="#1abc9c" opacity="0.7"/>
<defs><radialGradient id="grad_obj_0" cx="35%" cy="35%"><stop offset="0%" stop-color="white" stop-opacity="0.4"/><stop offset="100%" stop-color="#2ecc71" stop-opacity="0"/></radialGradient></defs>

<rect x="754.2" y="89.8" width="20.4" height="20.4" rx="3" ry="3" fill="#2ecc71" stroke="#27ae60" stroke-width="2.0" opacity="1.0"/>
<text x="764.4" y="83.0" text-anchor="middle" font-size="10" fill="#333" opacity="1.0">obj_0</text>

<circle cx="935.6" cy="350.0" r="12" fill="#a0785a" stroke="#8b6545" stroke-width="2.0" opacity="0.85"/>
<text x="935.6" y="333.0" text-anchor="middle" font-size="10" fill="#333" opacity="1.0">obj_1</text>

<rect x="765.6" y="290.3" width="18.0" height="26.4" rx="9.0" ry="3.1" fill="#f1c40f" stroke="#d4ac0f" stroke-width="2.0" opacity="0.85"/>
<text x="774.6" y="286.5" text-anchor="middle" font-size="10" fill="#333" opacity="1.0">obj_2</text>

<rect x="859.5" y="236.8" width="30.6" height="30.6" rx="3" ry="3" fill="#1abc9c" stroke="#16a085" stroke-width="2.0" opacity="0.85"/>
<text x="874.8" y="229.1" text-anchor="middle" font-size="10" fill="#333" opacity="1.0">obj_3</text>

<rect x="791.7" y="128.1" width="20.4" height="20.4" rx="3" ry="3" fill="#2ecc71" stroke="#27ae60" stroke-width="1.0" stroke-dasharray="4,3" opacity="0.35"/>
<text x="801.9" y="121.3" text-anchor="middle" font-size="9" fill="#333" opacity="0.6499999999999999"></text>

<circle cx="975.0" cy="311.7" r="12" fill="#a0785a" stroke="#8b6545" stroke-width="1.0" stroke-dasharray="4,3" opacity="0.2975"/>
<text x="975.0" y="294.7" text-anchor="middle" font-size="9" fill="#333" opacity="0.5974999999999999"></text>

<rect x="716.0" y="256.9" width="18.0" height="26.4" rx="9.0" ry="3.1" fill="#f1c40f" stroke="#d4ac0f" stroke-width="1.0" stroke-dasharray="4,3" opacity="0.2975"/>
<text x="725.0" y="253.1" text-anchor="middle" font-size="9" fill="#333" opacity="0.5974999999999999"></text>

<rect x="836.0" y="238.6" width="30.6" height="30.6" rx="3" ry="3" fill="#1abc9c" stroke="#16a085" stroke-width="1.0" stroke-dasharray="4,3" opacity="0.2975"/>
<text x="851.3" y="230.9" text-anchor="middle" font-size="9" fill="#333" opacity="0.5974999999999999"></text>
<circle cx="940" cy="75" r="5" fill="#95a5a6" stroke="#333" stroke-width="1"/><text x="950" y="79" font-size="9" fill="#555">GT</text><circle cx="940" cy="91" r="5" fill="#95a5a6" stroke="#333" stroke-width="1" stroke-dasharray="3,2" opacity="0.5"/><text x="950" y="95" font-size="9" fill="#555">Recon</text><line x1="934" y1="107" x2="946" y2="107" stroke="#e74c3c" stroke-width="1.5"/><text x="950" y="111" font-size="9" fill="#555">Distortion</text>
</svg>
