<svg xmlns="http://www.w3.org/2000/svg" xmlns:xlink="http://www.w3.org/1999/xlink" width="1030" height="415" viewBox="0 0 1030 415" style="font-family: 'Helvetica Neue', Arial, sans-serif;">
<rect width="1030" height="415" fill="#fafafa"/>

<text x="515" y="22" text-anchor="middle" font-size="14" font-weight="bold" fill="#2c3e50">Scene: n05_000098 | claude-sonnet-4-6</text>
<text x="515" y="42" text-anchor="middle" font-size="10" fill="#7f8c8d">CSR_QRR=0.643  |  CSR_TRR=0.317  |  NRMS=0.7046  |  τ=0.200  |  K=1</text>
<line x1="20.0" y1="65.0" x2="20.0" y2="385.0" stroke="#ecf0f1" stroke-width="0.5"/>
<line x1="20.0" y1="65.0" x2="340.0" y2="65.0" stroke="#ecf0f1" stroke-width="0.5"/>
<line x1="84.0" y1="65.0" x2="84.0" y2="385.0" stroke="#ecf0f1" stroke-width="0.5"/>
<line x1="20.0" y1="129.0" x2="340.0" y2="129.0" stroke="#ecf0f1" stroke-width="0.5"/>
<line x1="148.0" y1="65.0" x2="148.0" y2="385.0" stroke="#ecf0f1" stroke-width="0.5"/>
<line x1="20.0" y1="193.0" x2="340.0" y2="193.0" stroke="#ecf0f1" stroke-width="0.5"/>
<line x1="212.0" y1="65.0" x2="212.0" y2="385.0" stroke="#ecf0f1" stroke-width="0.5"/>
<line x1="20.0" y1="257.0" x2="340.0" y2="257.0" stroke="#ecf0f1" stroke-width="0.5"/>
<line x1="276.0" y1="65.0" x2="276.0" y2="385.0" stroke="#ecf0f1" stroke-width="0.5"/>
<line x1="20.0" y1="321.0" x2="340.0" y2="321.0" stroke="#ecf0f1" stroke-width="0.5"/>
<line x1="340.0" y1="65.0" x2="340.0" y2="385.0" stroke="#ecf0f1" stroke-width="0.5"/>
<line x1="20.0" y1="385.0" x2="340.0" y2="385.0" stroke="#ecf0f1" stroke-width="0.5"/>
<rect x="20.0" y="65.0" width="320.0" height="320.0" fill="none" stroke="#ddd" stroke-width="1"/>
<text x="180" y="60" text-anchor="middle" font-size="12" font-weight="bold" fill="#2c3e50">Ground Truth</text>
<defs><radialGradient id="grad_obj_0" cx="35%" cy="35%"><stop offset="0%" stop-color="white" stop-opacity="0.4"/><stop offset="100%" stop-color="#9b59b6" stop-opacity="0"/></radialGradient></defs>

<circle cx="297.8" cy="255.4" r="12" fill="#9b59b6" stroke="#8e44ad" stroke-width="2.0" opacity="1.0"/>
<circle cx="297.8" cy="255.4" r="12" fill="url(#grad_obj_0)" opacity="1.0"/>
<text x="297.8" y="238.4" text-anchor="middle" font-size="10" fill="#333" opacity="1.0">obj_0</text>

<rect x="146.7" y="330.2" width="27.0" height="39.6" rx="13.5" ry="4.7" fill="#f1c40f" stroke="#d4ac0f" stroke-width="2.0" opacity="0.85"/>
<text x="160.2" y="327.0" text-anchor="middle" font-size="10" fill="#333" opacity="1.0">obj_1</text>

<circle cx="66.6" cy="100.0" r="18" fill="#95a5a6" stroke="#7f8c8d" stroke-width="2.0" opacity="0.85"/>
<text x="66.6" y="77.0" text-anchor="middle" font-size="10" fill="#333" opacity="1.0">obj_2</text>

<circle cx="62.2" cy="213.0" r="12" fill="#a0785a" stroke="#8b6545" stroke-width="2.0" opacity="0.85"/>
<text x="62.2" y="196.0" text-anchor="middle" font-size="10" fill="#333" opacity="1.0">obj_3</text>
<defs><radialGradient id="grad_obj_4" cx="35%" cy="35%"><stop offset="0%" stop-color="white" stop-opacity="0.4"/><stop offset="100%" stop-color="#f1c40f" stop-opacity="0"/></radialGradient></defs>

<rect x="283.4" y="111.1" width="18.0" height="26.4" rx="9.0" ry="3.1" fill="#f1c40f" stroke="#d4ac0f" stroke-width="2.0" opacity="1.0"/>
<text x="292.4" y="107.3" text-anchor="middle" font-size="10" fill="#333" opacity="1.0">obj_4</text>
<line x1="355.0" y1="65.0" x2="355.0" y2="385.0" stroke="#ecf0f1" stroke-width="0.5"/>
<line x1="355.0" y1="65.0" x2="675.0" y2="65.0" stroke="#ecf0f1" stroke-width="0.5"/>
<line x1="419.0" y1="65.0" x2="419.0" y2="385.0" stroke="#ecf0f1" stroke-width="0.5"/>
<line x1="355.0" y1="129.0" x2="675.0" y2="129.0" stroke="#ecf0f1" stroke-width="0.5"/>
<line x1="483.0" y1="65.0" x2="483.0" y2="385.0" stroke="#ecf0f1" stroke-width="0.5"/>
<line x1="355.0" y1="193.0" x2="675.0" y2="193.0" stroke="#ecf0f1" stroke-width="0.5"/>
<line x1="547.0" y1="65.0" x2="547.0" y2="385.0" stroke="#ecf0f1" stroke-width="0.5"/>
<line x1="355.0" y1="257.0" x2="675.0" y2="257.0" stroke="#ecf0f1" stroke-width="0.5"/>
<line x1="611.0" y1="65.0" x2="611.0" y2="385.0" stroke="#ecf0f1" stroke-width="0.5"/>
<line x1="355.0" y1="321.0" x2="675.0" y2="321.0" stroke="#ecf0f1" stroke-width="0.5"/>
<line x1="675.0" y1="65.0" x2="675.0" y2="385.0" stroke="#ecf0f1" stroke-width="0.5"/>
<line x1="355.0" y1="385.0" x2="675.0" y2="385.0" stroke="#ecf0f1" stroke-width="0.5"/>
<rect x="355.0" y="65.0" width="320.0" height="320.0" fill="none" stroke="#ddd" stroke-width="1"/>
<text x="515" y="60" text-anchor="middle" font-size="12" font-weight="bold" fill="#2c3e50">Reconstructed</text>
<defs><radialGradient id="grad_obj_0" cx="35%" cy="35%"><stop offset="0%" stop-color="white" stop-opacity="0.4"/><stop offset="100%" stop-color="#9b59b6" stop-opacity="0"/></radialGradient></defs>

<circle cx="430.6" cy="212.8" r="12" fill="#9b59b6" stroke="#8e44ad" stroke-width="2.0" opacity="1.0"/>
<circle cx="430.6" cy="212.8" r="12" fill="url(#grad_obj_0)" opacity="1.0"/>
<text x="430.6" y="195.8" text-anchor="middle" font-size="10" fill="#333" opacity="1.0">obj_0</text>

<rect x="524.2" y="330.2" width="27.0" height="39.6" rx="13.5" ry="4.7" fill="#f1c40f" stroke="#d4ac0f" stroke-width="2.0" opacity="0.85"/>
<text x="537.7" y="327.0" text-anchor="middle" font-size="10" fill="#333" opacity="1.0">obj_1</text>

<circle cx="589.1" cy="153.5" r="18" fill="#95a5a6" stroke="#7f8c8d" stroke-width="2.0" opacity="0.85"/>
<text x="589.1" y="130.5" text-anchor="middle" font-size="10" fill="#333" opacity="1.0">obj_2</text>

<circle cx="599.4" cy="246.3" r="12" fill="#a0785a" stroke="#8b6545" stroke-width="2.0" opacity="0.85"/>
<text x="599.4" y="229.3" text-anchor="middle" font-size="10" fill="#333" opacity="1.0">obj_3</text>
<defs><radialGradient id="grad_obj_4" cx="35%" cy="35%"><stop offset="0%" stop-color="white" stop-opacity="0.4"/><stop offset="100%" stop-color="#f1c40f" stop-opacity="0"/></radialGradient></defs>

<rect x="556.0" y="86.8" width="18.0" height="26.4" rx="9.0" ry="3.1" fill="#f1c40f" stroke="#d4ac0f" stroke-width="2.0" opacity="1.0"/>
<text x="565.0" y="83.0" text-anchor="middle" font-size="10" fill="#333" opacity="1.0">obj_4</text>
<line x1="690.0" y1="65.0" x2="690.0" y2="385.0" stroke="#ecf0f1" stroke-width="0.5"/>
<line x1="690.0" y1="65.0" x2="1010.0" y2="65.0" stroke="#ecf0f1" stroke-width="0.5"/>
<line x1="754.0" y1="65.0" x2="754.0" y2="385.0" stroke="#ecf0f1" stroke-width="0.5"/>
<line x1="690.0" y1="129.0" x2="1010.0" y2="129.0" stroke="#ecf0f1" stroke-width="0.5"/>
<line x1="818.0" y1="65.0" x2="818.0" y2="385.0" stroke="#ecf0f1" stroke-width="0.5"/>
<line x1="690.0" y1="193.0" x2="1010.0" y2="193.0" stroke="#ecf0f1" stroke-width="0.5"/>
<line x1="882.0" y1="65.0" x2="882.0" y2="385.0" stroke="#ecf0f1" stroke-width="0.5"/>
<line x1="690.0" y1="257.0" x2="1010.0" y2="257.0" stroke="#ecf0f1" stroke-width="0.5"/>
<line x1="946.0" y1="65.0" x2="946.0" y2="385.0" stroke="#ecf0f1" stroke-width="0.5"/>
<line x1="690.0" y1="321.0" x2="1010.0" y2="321.0" stroke="#ecf0f1" stroke-width="0.5"/>
<line x1="1010.0" y1="65.0" x2="1010.0" y2="385.0" stroke="#ecf0f1" stroke-width="0.5"/>
<line x1="690.0" y1="385.0" x2="1010.0" y2="385.0" stroke="#ecf0f1" stroke-width="0.5"/>
<rect x="690.0" y="65.0" width="320.0" height="320.0" fill="none" stroke="#ddd" stroke-width="1"/>
<text x="850" y="60" text-anchor="middle" font-size="12" font-weight="bold" fill="#2c3e50">Overlay (NRMS=0.705)</text>
<line x1="967.8" y1="255.4" x2="765.6" y2="212.8" stroke="#9b59b6" stroke-width="1.8" opacity="0.7"/>
<polygon points="765.6,212.8 773.2,210.3 771.5,218.1" fill="#9b59b6" opacity="0.7"/>
<line x1="830.2" y1="350.0" x2="872.7" y2="350.0" stroke="#f1c40f" stroke-width="1.8" opacity="0.7"/>
<polygon points="872.7,350.0 865.8,354.0 865.8,346.0" fill="#f1c40f" opacity="0.7"/>
<line x1="736.6" y1="100.0" x2="924.1" y2="153.5" stroke="#95a5a6" stroke-width="1.8" opacity="0.7"/>
<polygon points="924.1,153.5 916.4,155.4 918.5,147.7" fill="#95a5a6" opacity="0.7"/>
<line x1="732.2" y1="213.0" x2="934.4" y2="246.3" stroke="#a0785a" stroke-width="1.8" opacity="0.7"/>
<polygon points="934.4,246.3 927.0,249.1 928.3,241.3" fill="#a0785a" opacity="0.7"/>
<line x1="962.4" y1="124.3" x2="900.0" y2="100.0" stroke="#f1c40f" stroke-width="1.8" opacity="0.7"/>
<polygon points="900.0,100.0 907.9,98.8 905.0,106.2" fill="#f1c40f" opacity="0.7"/>
<defs><radialGradient id="grad_obj_0" cx="35%" cy="35%"><stop offset="0%" stop-color="white" stop-opacity="0.4"/><stop offset="100%" stop-color="#9b59b6" stop-opacity="0"/></radialGradient></defs>

<circle cx="967.8" cy="255.4" r="12" fill="#9b59b6" stroke="#8e44ad" stroke-width="2.0" opacity="1.0"/>
<circle cx="967.8" cy="255.4" r="12" fill="url(#grad_obj_0)" opacity="1.0"/>
<text x="967.8" y="238.4" text-anchor="middle" font-size="10" fill="#333" opacity="1.0">obj_0</text>

<rect x="816.7" y="330.2" width="27.0" height="39.6" rx="13.5" ry="4.7" fill="#f1c40f" stroke="#d4ac0f" stroke-width="2.0" opacity="0.85"/>
<text x="830.2" y="327.0" text-anchor="middle" font-size="10" fill="#333" opacity="1.0">obj_1</text>

<circle cx="736.6" cy="100.0" r="18" fill="#95a5a6" stroke="#7f8c8d" stroke-width="2.0" opacity="0.85"/>
<text x="736.6" y="77.0" text-anchor="middle" font-size="10" fill="#333" opacity="1.0">obj_2</text>

<circle cx="732.2" cy="213.0" r="12" fill="#a0785a" stroke="#8b6545" stroke-width="2.0" opacity="0.85"/>
<text x="732.2" y="196.0" text-anchor="middle" font-size="10" fill="#333" opacity="1.0">obj_3</text>
<defs><radialGradient id="grad_obj_4" cx="35%" cy="35%"><stop offset="0%" stop-color="white" stop-opacity="0.4"/><stop offset="100%" stop-color="#f1c40f" stop-opacity="0"/></radialGradient></defs>

<rect x="953.4" y="111.1" width="18.0" height="26.4" rx="9.0" ry="3.1" fill="#f1c40f" stroke="#d4ac0f" stroke-width="2.0" opacity="1.0"/>
<text x="962.4" y="107.3" text-anchor="middle" font-size="10" fill="#333" opacity="1.0">obj_4</text>

<circle cx="765.6" cy="212.8" r="12" fill="#9b59b6" stroke="#8e44ad" stroke-width="1.0" stroke-dasharray="4,3" opacity="0.35"/>
<text x="765.6" y="195.8" text-anchor="middle" font-size="9" fill="#333" opacity="0.6499999999999999"></text>

<rect x="859.2" y="330.2" width="27.0" height="39.6" rx="13.5" ry="4.7" fill="#f1c40f" stroke="#d4ac0f" stroke-width="1.0" stroke-dasharray="4,3" opacity="0.2975"/>
<text x="872.7" y="327.0" text-anchor="middle" font-size="9" fill="#333" opacity="0.5974999999999999"></text>

<circle cx="924.1" cy="153.5" r="18" fill="#95a5a6" stroke="#7f8c8d" stroke-width="1.0" stroke-dasharray="4,3" opacity="0.2975"/>
<text x="924.1" y="130.5" text-anchor="middle" font-size="9" fill="#333" opacity="0.5974999999999999"></text>

<circle cx="934.4" cy="246.3" r="12" fill="#a0785a" stroke="#8b6545" stroke-width="1.0" stroke-dasharray="4,3" opacity="0.2975"/>
<text x="934.4" y="229.3" text-anchor="middle" font-size="9" fill="#333" opacity="0.5974999999999999"></text>

<rect x="891.0" y="86.8" width="18.0" height="26.4" rx="9.0" ry="3.1" fill="#f1c40f" stroke="#d4ac0f" stroke-width="1.0" stroke-dasharray="4,3" opacity="0.35"/>
<text x="900.0" y="83.0" text-anchor="middle" font-size="9" fill="#333" opacity="0.6499999999999999"></text>
<circle cx="940" cy="75" r="5" fill="#95a5a6" stroke="#333" stroke-width="1"/><text x="950" y="79" font-size="9" fill="#555">GT</text><circle cx="940" cy="91" r="5" fill="#95a5a6" stroke="#333" stroke-width="1" stroke-dasharray="3,2" opacity="0.5"/><text x="950" y="95" font-size="9" fill="#555">Recon</text><line x1="934" y1="107" x2="946" y2="107" stroke="#e74c3c" stroke-width="1.5"/><text x="950" y="111" font-size="9" fill="#555">Distortion</text>
</svg>
